<svg width="1920" height="1080" viewBox="0 0 1920 1080" fill="none" xmlns="http://www.w3.org/2000/svg">
<path d="M570.611 147.362C534.24 251.087 514.83 306.541 513.81 311.96C512.307 319.94 512.789 328.298 511.095 334.748C508.184 345.833 493.134 348.729 471.041 358.883C451.679 367.781 433.312 392.182 411.229 410.183C395.884 422.691 390.329 431.043 389.308 437.472C386.047 458.017 381.532 482.578 369.306 506.468C353.801 536.767 334.568 560.259 325.088 573.832C313.559 590.336 289.748 605.794 271.052 624.827C252.914 643.291 231.926 672.392 219.925 694.292C211.589 709.504 208.699 722.887 200.545 728.694C183.318 740.962 148.203 727.051 135.59 723.275C131.353 722.007 124.446 722.928 120.64 724.275C116.833 725.622 116.16 728.316 115.813 731.388C115.466 734.459 115.466 737.827 116.476 740.572C120.228 750.768 133.1 754.196 142.978 760.993C146.349 763.312 150.081 767.748 152.837 772.188C155.592 776.627 156.939 781.342 157.296 807.344C157.653 833.347 156.98 880.494 157.306 907.139C157.785 946.227 163.756 958.256 170.542 978.993C177.279 999.579 197.718 1010.02 207.281 1014.44C211.287 1016.29 216.128 1019.53 220.547 1024.62C222.483 1026.85 222.945 1029.04 222.619 1031.43C222.292 1033.81 220.945 1036.51 218.567 1038.57C213.52 1042.95 206.658 1043.37 201.229 1043.03C190.578 1042.37 182.86 1034.55 177.38 1029.1C167.58 1019.36 205.923 1029.08 210.005 1026.05C232.695 1009.2 196.453 965.196 191.677 945.133C190.01 938.131 190.309 931.825 189.289 914.936C187.052 877.906 188.268 848.164 185.564 834.949C177.944 797.713 163.103 780.117 162.746 751.277C162.553 735.707 166.491 722.315 169.195 713.09C169.81 710.992 172.573 710.029 174.624 712.366C180.781 719.38 186.166 760.013 194.667 811.702C199.343 840.132 204.576 849.43 207.974 856.93C208.773 858.692 211.352 858.982 213.404 857.982C218.345 855.572 226.966 831.305 240.549 796.649C249.681 773.349 267.072 753.665 298.891 714.754C320.455 688.383 350.917 646.88 378.328 615.275C405.738 583.669 428.639 562.79 441.783 551.36C463.092 532.83 480.725 526.337 501.482 519.194C508.849 516.659 520.851 504.641 540.19 482.935C561.182 459.373 573.979 439.962 586.154 423.715C622.089 375.761 633.842 371.914 641.343 361.709C644.78 357.033 653.517 327.237 669.488 279.355C681.846 242.304 684.214 222.227 684.908 219.492C685.069 218.857 681.561 222.145 668.049 245.423C654.538 268.7 630.291 312.48 612.748 341.432C586.8 384.256 565.937 405.122 550.987 419.399C533.718 435.889 498.033 462.168 480.501 475.945C469.163 484.854 453.661 497.682 433.945 516.03C423.697 525.568 399.35 539.135 369.439 556.8C351.772 567.234 338.712 587.405 323.414 609.835C306.141 635.163 295.809 665.698 278.869 693.496C250.863 739.453 220.945 766.442 216.19 766.82C213.098 767.065 212.781 757.094 213.097 750.92C213.667 739.798 226.946 719.683 250.325 687.118C278.148 648.366 305.239 627.735 312.709 617.214C319.422 607.758 324.975 598.467 344.222 567.76C360.705 541.463 388.39 491.926 410.708 458.178C433.027 424.43 448.518 407.591 464.918 393.529C481.317 379.466 498.155 368.69 510.871 359.097C523.586 349.504 531.669 341.422 543.915 322.777C556.161 304.132 572.326 275.17 582.674 254.526C593.022 233.881 597.063 222.431 599.818 215.522C602.574 208.613 603.921 206.592 585.419 241.586C566.917 276.579 528.526 348.647 497.972 401.264C467.418 453.882 445.865 484.864 433.414 502.172C420.964 519.48 418.27 522.174 416.209 524.572C412.571 528.804 428.251 505.478 457.468 462.321C475.927 435.054 490.277 418.899 508.544 395.202C520.901 379.173 541.629 356.689 554.395 342.871C582.17 312.81 598.451 285.58 606.982 258.016C609.853 248.74 611.432 242.637 611.768 237.544C611.928 235.128 612.779 233.126 605.717 257.005C598.655 280.885 583.837 330.727 577.551 353.709C571.264 376.69 573.959 371.302 584.102 354.719C594.246 338.136 611.758 310.521 622.8 292.254C633.842 273.987 637.883 265.904 640.638 260.73C643.394 255.556 644.741 253.536 646.129 251.454" stroke="#A6FF00" stroke-width="40" stroke-linecap="round"/>
<path d="M478.766 192.265C536.016 223.921 593.266 255.577 622.759 274.579C664.274 301.326 666.457 343.83 676.713 359.924C684.786 372.592 694.378 384.732 734.749 414.623C747.355 423.956 759.67 425.614 824.778 442.125C882.776 456.834 990.243 488.946 1061.25 505.917C1132.26 522.888 1163.24 524.909 1220.96 541.104C1278.68 557.3 1362.2 587.609 1406.57 603.559C1450.94 619.51 1453.63 620.183 1469.84 621.204C1486.05 622.224 1515.68 623.571 1552.84 629.654C1589.99 635.736 1633.77 646.512 1658.01 652.737C1682.25 658.963 1685.62 660.31 1684.32 662.014C1679.33 668.578 1662.63 667.821 1651.06 665.463C1631.72 661.523 1664.59 618.959 1662.56 606.621C1661.87 602.386 1660.51 597.099 1661.19 590.987C1662.53 578.802 1692.31 564.504 1716.88 544.441C1738.99 526.394 1750.95 500.539 1759.44 480.884C1770.21 455.94 1768.69 435.859 1768.01 429.747C1767.7 426.937 1765.99 424.981 1763.95 423.603C1759.67 420.716 1749.03 420.858 1736.79 421.532C1723.94 422.239 1716.35 439.186 1690.23 474.751C1667.38 505.852 1659.19 533.073 1652.06 540.206C1645.47 546.804 1632.02 550.095 1617.08 554.177C1605.19 557.425 1595.91 554.891 1544.67 540.063C1496.72 526.186 1404.53 498.294 1296.04 478.006C1187.55 457.719 1065.64 445.595 964.782 418.47C863.925 391.345 787.816 349.586 746.25 326.39C692.045 296.14 686.969 288.886 685.928 286.508C685.358 285.206 690.949 284.804 700.44 284.794C709.931 284.784 724.748 285.457 786.265 305C847.781 324.543 955.546 362.934 1075.05 395.172C1194.55 427.41 1322.52 452.33 1392.82 466.515C1463.13 480.701 1471.88 483.395 1493.9 485.793C1515.93 488.191 1550.95 490.212 1579.43 493.61C1629.1 499.536 1653.67 506.581 1659.45 505.57C1670.35 503.664 1676.8 486.905 1691.06 473.302C1702.33 462.548 1716.93 459.637 1725.09 460.984C1729.93 461.782 1721.13 480.598 1706.21 506.05C1690.84 532.276 1664.74 556.116 1640.95 579.883C1614.23 606.583 1618.34 621.53 1609.9 625.612C1603.4 628.759 1590.02 627 1543.35 613.53C1496.68 600.059 1416.53 573.118 1370.52 556.881C1324.52 540.645 1315.09 535.93 1304.51 532.828C1293.93 529.726 1282.48 528.379 1230.1 512.867C1177.73 497.355 1084.78 467.72 1030.84 449.422C976.895 431.124 964.771 425.063 911.715 411.163C858.659 397.264 765.038 375.711 711.421 361.914C646.349 345.169 633.903 335.156 631.178 330.411C629.777 327.97 631.148 324.318 637.556 324.941C656.752 326.805 686.092 347.933 722.054 372.711C740.17 385.192 759.364 395.468 831.718 418.868C904.072 442.268 1029.35 477.966 1095.91 497.365C1162.46 516.765 1166.51 518.786 1211.36 519.827C1256.21 520.868 1341.75 520.868 1401.3 525.246C1460.86 529.624 1491.84 538.38 1515.55 546.258C1580.42 567.816 1603.3 578.669 1603.39 578.036C1597.42 574.71 1579.24 565.28 1540.23 554.024C1501.23 542.768 1441.96 529.971 1378.85 514.745" stroke="#A6FF00" stroke-width="40" stroke-linecap="round"/>
<path d="M1691.13 443.309C1677.65 441.288 1664.18 439.268 1636.03 417.347C1607.87 395.427 1565.44 353.668 1542.23 329.798C1519.03 305.928 1516.33 301.214 1503.5 284.977C1490.66 268.741 1467.76 241.126 1446.87 219.155C1425.98 197.183 1407.79 181.692 1374.85 173.038C1341.91 164.384 1294.76 163.037 1250.6 154.598C1206.45 146.158 1166.71 130.667 1144.89 122.35C1115.25 111.051 1100.01 114.665 1076.57 118.441C1066.19 120.112 1049.23 118.788 1110.26 120.809C1171.3 122.829 1310.72 126.87 1384.9 129.289C1459.08 131.708 1463.8 132.381 1468.25 134.075C1472.7 135.769 1476.74 138.463 1491.28 152.312C1505.82 166.16 1530.74 191.081 1544.93 204.929C1561.51 221.113 1572.67 231.636 1587.61 248.607C1600.72 263.507 1621.57 288.029 1648.08 313.868C1658.23 323.755 1662.47 326.236 1667.92 322.236C1683.36 310.902 1698.49 284.232 1719.55 262.496C1745.78 235.412 1761.09 218.226 1779.16 210.634C1783.3 208.896 1788.32 213.981 1791.42 217.053C1796.98 222.56 1797.26 231.003 1796.25 240.83C1794.86 254.298 1788.44 267.047 1780.65 280.263C1769.56 299.095 1754.46 320.052 1743.59 339.085C1730.43 362.123 1706.13 369.118 1700.69 378.599C1693.16 391.714 1699.27 411.918 1698.96 425.868C1698.85 430.952 1689.9 429.716 1651.07 397.713C1612.24 365.71 1541.52 302.397 1502.06 264.057C1462.59 225.717 1456.53 214.267 1452.06 201.296C1442.92 174.781 1439.43 158.261 1433.66 156.22C1430.59 155.526 1427.22 155.526 1466.57 189.876C1505.92 224.227 1588.1 292.927 1672.76 363.709" stroke="#A6FF00" stroke-width="40" stroke-linecap="round"/>
<path d="M1660.51 357.587C1673.31 349.504 1686.11 341.422 1703.48 323.451C1720.84 305.48 1742.4 277.865 1764.6 249.413" stroke="#A6FF00" stroke-width="40" stroke-linecap="round"/>
<path d="M1144.13 208.593C1141.44 209.94 1138.75 211.287 1059.57 210.297C980.384 209.307 824.798 205.939 742.964 197.469C661.129 188.999 657.762 175.528 661.752 180.376C682.308 205.348 695.724 239.82 705.929 239.585C713.713 239.406 709.399 211.736 713.104 206.368C716.808 201 724.217 211.777 730.728 207.899C737.239 204.021 742.627 185.162 767.292 174.1C791.958 163.037 835.738 160.343 893.652 159.966C951.565 159.588 1022.29 161.609 1069.16 160.966C1116.03 160.323 1136.91 156.955 1158.42 153.485" stroke="#A6FF00" stroke-width="40" stroke-linecap="round"/>
<path d="M1162.5 151.444C1162.5 154.138 1162.5 156.833 1087.74 173.712C1012.98 190.591 863.456 221.574 787.438 236.524C711.421 251.474 713.441 249.454 715.523 247.372" stroke="#A6FF00" stroke-width="40" stroke-linecap="round"/>
<path d="M764.506 322.889C839.942 340.401 915.377 357.913 1024.96 391.518C1134.54 425.123 1275.98 474.291 1421.71 524.949" stroke="#A6FF00" stroke-width="40" stroke-linecap="round"/>
<path d="M1540.09 524.95C1575.79 524.95 1611.49 524.95 1613.04 522.929C1614.59 520.908 1580.91 516.867 1546.21 512.704" stroke="#A6FF00" stroke-width="40" stroke-linecap="round"/>
<path d="M1601.32 604.549C1571.01 598.487 1540.7 592.425 1508.93 582.904C1477.15 573.382 1444.82 560.585 1411.51 547.4" stroke="#A6FF00" stroke-width="40" stroke-linecap="round"/>
<path d="M1427.84 539.236L1599.28 600.467" stroke="#A6FF00" stroke-width="40" stroke-linecap="round"/>
<path d="M1436 547.401C1405.02 541.339 1374.03 535.277 1352.69 531.144C1331.34 527.011 1320.56 524.991 1309.46 522.909" stroke="#A6FF00" stroke-width="40" stroke-linecap="round"/>
<path d="M1154.34 461.678C1128.07 454.269 1101.81 446.86 995.326 397.917C888.846 348.974 702.951 258.72 607.86 218.624C512.769 178.529 514.116 191.326 512.116 196.571C504.728 199.122 495.135 192.305 498.441 195.275C505.789 202.286 524.648 220.471 544.078 239.208" stroke="#A6FF00" stroke-width="40" stroke-linecap="round"/>
<path d="M531.832 402.489C486.705 465.127 441.578 527.766 409.912 563.402C378.246 599.038 361.407 605.774 363.509 597.793C365.612 589.813 387.165 566.913 387.491 569.26C387.818 571.607 366.265 599.895 355.162 612.784C344.059 625.673 344.059 622.306 344.059 618.836" stroke="#A6FF00" stroke-width="40" stroke-linecap="round"/>
<path d="M662.457 333.094C661.783 333.094 661.11 333.094 674.907 337.809C688.704 342.524 716.992 351.953 746.138 361.668" stroke="#A6FF00" stroke-width="40" stroke-linecap="round"/>
<path d="M744.096 257.577C751.505 258.924 758.913 260.271 833.114 244.127C907.315 227.982 1048.08 194.306 1193.12 159.608" stroke="#A6FF00" stroke-width="40" stroke-linecap="round"/>
<path d="M189.891 692.488C178.757 694.514 164.151 697.109 153.048 699.064C149.568 699.677 151.32 699.309 148.917 699.73C147.112 700.046 145.355 700.36 143.613 700.674L143.857 700.591C141.336 701.893 138.849 703.181 136.263 704.5C134.871 705.209 136.561 704.242 135.102 704.988C127.108 709.073 119.572 712.988 111.484 717.144C110.372 717.715 109.261 718.286 108.15 718.857L108.537 718.222C108.519 727.912 108.503 737.57 108.489 747.215L108.212 746.674C120.081 755.242 131.931 763.791 143.819 772.364L144.074 772.548L144.074 772.863C144.066 781.577 144.058 790.307 144.05 799.069C144.041 809.453 144.033 819.88 144.024 830.379C144.021 833.741 144.015 837.266 144.008 840.887L143.996 840.999C141.414 853.207 138.585 866.52 136.158 878.241C135.792 880.006 136.084 878.969 136.02 879.306C135.009 884.59 135.229 882.809 134.49 886.243C132.451 895.714 130.292 905.931 128.25 915.693L128.227 915.433C129.882 919.484 131.507 923.449 133.061 927.234C135.23 932.513 133.202 927.16 135.299 932.512C135.444 932.883 134.824 931.572 135.408 933.024C136.733 936.318 139.291 942.547 140.325 945.096C142.318 950.009 142.65 950.821 144.545 955.464C147.135 961.812 150.181 969.375 152.977 976.178C153.574 977.63 152.863 975.676 153.822 977.989C154.486 979.589 155.885 983.017 156.959 985.667L156.994 985.81C157.107 987.082 157.204 988.187 157.261 988.875C157.446 991.103 157.297 990.161 157.318 990.556C157.494 993.808 158.363 1001.43 158.457 1002.41C159.17 1009.86 159.813 1016.87 160.433 1023.73L160.195 1023.37C168.67 1028.02 176.869 1032.55 185.521 1037.29C188.9 1039.14 192.35 1041.02 195.814 1042.91L195.612 1042.86C198.8 1042.86 201.999 1042.86 205.173 1042.85L205.124 1042.86C211.06 1042.18 216.91 1041.51 222.447 1040.88C226.679 1040.41 230.723 1039.95 234.677 1039.51L234.359 1039.72C237.012 1035.38 239.591 1031.17 242.201 1026.9L242.185 1027.3C240.184 1023.33 238.157 1019.31 236.036 1015.12C235.363 1013.79 236.066 1015.39 235.244 1013.77C230.559 1004.52 225.897 995.295 221.249 986.077C217.283 978.083 213.329 970.094 209.38 962.091C208.526 960.36 209.708 962.551 208.859 960.819C208.695 960.483 208.527 960.142 208.357 959.795L208.323 959.649C208.394 947.81 208.537 930.072 208.187 923.279C208.201 915.28 208.216 905.568 208.289 898.411C208.289 898.379 208.289 898.348 208.29 898.317L208.312 898.192C209.9 894.026 208.466 898.166 210.38 892.872C210.815 891.67 210.165 893.202 210.822 891.401C213.591 883.819 216.67 875.555 219.397 868.05C219.952 866.523 219.732 866.915 219.879 866.479C221.122 862.815 223.512 856.834 224.01 855.521C227.799 845.527 230.468 838.192 233.919 828.852C234.72 826.685 233.684 829.214 234.452 827.127C236.119 822.596 237.814 817.998 239.512 813.408L239.558 813.316C243.274 807.626 246.992 801.951 250.599 796.466C251.979 794.368 250.785 796.347 251.448 795.346C254.371 790.935 254.884 789.868 257.684 785.636C258.275 784.743 258.003 785.286 258.116 785.126C259.885 782.633 261.194 780.318 261.62 779.658C267.007 771.305 270.626 766.081 275.851 758.026C276.475 757.062 274.987 759.184 276.748 756.477C281.388 749.346 286.141 742.056 290.915 734.747L290.96 734.692C300.246 725.157 309.676 715.582 318.759 706.467C321.097 704.122 319.48 705.848 319.632 705.706C322.114 703.382 323.546 701.7 324.297 700.936C330.271 694.866 336.028 689.341 340.015 685.155C344.17 681.159 348.232 677.004 352.737 673.339C374.21 652.27 393.715 629.094 413.81 606.816C414.108 606.481 413.638 607.142 414.235 606.469C415.92 604.572 417.133 603.193 418.03 602.162L418.022 602.171C420.825 598.383 420.738 598.269 424.288 593.952C425.422 592.506 429.524 588.723 429.975 588.483C431.401 587.387 430.032 588.658 430.506 588.287C432.463 586.804 433.355 586.22 434.625 585.918C435.857 585.684 437.27 585.372 440.595 584.852C440.804 584.82 439.936 585.033 440.499 584.952C442.232 584.704 443.918 584.401 445.607 584.152C449.467 583.58 450.864 583.553 456.72 582.449C457.46 582.308 456.289 582.272 462.163 581.284C463.601 581.042 468.072 580.278 471.959 579.607L471.754 579.725C473.346 577.808 474.797 576.064 475.528 575.191C477.419 572.935 476.187 574.539 476.323 574.379C481.463 568.338 479.575 570.679 482.226 567.714C484.875 564.75 483.902 565.374 484.906 564.102C485.912 562.828 489.688 558.405 490.622 557.323C491.556 556.242 490.455 557.643 491.278 556.676C496.736 550.262 493.504 553.72 495.233 551.549C499.308 546.429 502.761 542.673 506.604 538.079C507.643 536.836 506.754 537.816 507.671 536.702C511.303 532.29 513.56 529.696 517.653 524.643C518.323 523.817 521.558 519.671 523.818 517.126C524.139 516.765 523.314 517.861 524.881 515.995C527.22 513.208 531.416 508.171 533.896 505.147C535.728 502.914 533.532 505.393 535.878 502.617C536.921 501.383 535.058 503.727 537.013 501.405C538.957 499.096 543.882 493.153 545.756 490.891C547.626 488.633 546.539 489.817 546.686 489.631C547.577 488.507 551.139 484.152 551.456 483.769C556.296 477.929 561.032 472.235 565.715 466.612C573.921 457.062 581.964 447.724 590.107 438.217L590.089 438.242C592.203 434.535 594.325 430.807 596.463 427.041C597.408 425.375 596.702 426.441 596.846 426.187C600.063 420.469 597.699 425.076 600.034 421.132C599.556 421.621 600.923 419.287 603.194 415.262C604.289 413.323 603.63 414.344 603.725 414.164C605.271 411.244 606.524 409.312 606.841 408.81C608.01 406.959 609.086 404.834 609.881 403.573C610.674 402.314 609.064 405.336 611.257 401.485C611.819 400.375 610.049 403.153 611.692 400.216C613.818 396.418 616.607 391.509 619.559 386.341L619.576 386.315C626.358 377.18 633.835 367.077 637.79 361.666C643.802 353.439 645.722 350.753 649.199 345.955C655.468 337.257 653.087 340.39 656.88 334.898C660.619 329.405 659.034 332.198 659.625 331.458C660.198 330.729 660.723 329.837 661.402 328.864C662.046 327.937 660.732 330.051 662.227 327.754C662.551 327.23 663.001 326.57 663.364 325.74C664.799 322.8 667.496 318.727 667.846 318.038C668.84 316.26 666.86 318.988 670.912 312.932C671.143 312.588 670.465 313.753 671.346 312.437C678.44 301.864 685.905 290.952 693.152 280.502C694.144 279.074 693.331 280.408 693.915 279.568C698.924 272.38 698.252 273.204 699.641 270.976L699.675 270.926L699.736 270.921C700.286 270.843 700.999 270.749 702 270.628C700.722 270.964 703.931 270.798 711.936 270.057C716.748 269.612 715.91 269.595 719.017 269.24C719.948 269.134 723.359 268.882 723.972 268.781C725.993 268.448 722.771 268.584 731.03 267.883C731.392 267.852 730.247 268.038 731.498 267.927C739.588 267.208 740.542 266.968 749.282 266.138C756.133 265.489 768.328 264.45 776.132 263.742C775.99 263.998 783.354 263.26 786.328 262.816C791.392 262.353 796.86 261.836 801.756 261.406C803.441 261.257 802.341 261.43 802.554 261.418C805.822 261.234 808.009 260.868 809.101 260.76C820.941 259.6 830.603 258.827 841.897 257.659C842.297 257.617 842.932 257.389 845.965 257.232C846.162 257.222 842.435 257.645 847.753 257.157C853.073 256.67 863.108 255.83 870.484 255.067C872.269 254.883 876.776 254.327 880.414 254.097C880.898 254.067 880.374 254.164 881.074 254.126C883.337 254.002 884.553 253.719 887.216 253.617C889.88 253.515 895.404 253.112 902.841 252.322C903.078 252.297 904.828 251.999 907.17 251.784C910.909 251.441 916.218 250.976 920.122 250.613C921.991 250.44 920.787 250.467 921.111 250.435C933.673 249.223 942.624 248.468 956.089 247.252C958.557 247.029 965.638 246.258 970.424 245.904C975.679 245.516 970.326 246.426 982.375 245.21C987.235 244.72 993.344 243.629 1002.11 243.088C1019.05 241.449 1034.74 240.133 1051.73 238.461C1052.49 238.386 1054.9 238.017 1056.7 237.852C1059.36 237.608 1060.83 237.54 1062.74 237.368C1070.72 236.648 1078.02 235.912 1085.72 235.208C1088.64 234.94 1087.63 235.105 1091.11 234.785C1094.59 234.466 1096.91 234.159 1101.63 233.765C1105.2 233.469 1108.78 233.327 1113.51 232.91C1113.68 232.707 1116.93 232.41 1122.7 231.825C1123.81 231.712 1122.61 231.758 1123.13 231.702C1125.27 231.47 1127.25 231.34 1129.28 231.116C1129.77 231.061 1129.79 230.995 1130.19 230.947C1132.69 230.646 1136.4 230.361 1138.59 230.204L1138.48 230.265C1138.96 229.616 1139.32 229.134 1139.48 228.924C1141.71 225.927 1142.65 224.452 1144.34 222.133C1146.02 219.817 1143.59 223.339 1145.54 220.621C1149.58 214.989 1154.71 207.711 1158.77 201.965C1160.39 199.672 1159.22 201.188 1159.45 200.858C1162.78 196.103 1166.24 191.36 1167.96 188.633C1168.01 188.583 1168.05 188.534 1168.09 188.486C1170.8 185.76 1170.21 185.761 1175.39 179.453C1175.81 178.948 1176.49 178.43 1174.94 180.405C1173.39 182.38 1170.95 185.305 1168.81 188.048C1168.72 188.166 1168.55 188.387 1168.33 188.674L1168.34 188.662C1167.45 190.014 1165.68 192.756 1165.38 193.192C1162.54 197.369 1161.87 197.775 1161.71 197.983C1159.81 200.351 1156.65 205.187 1155.78 206.437C1151.82 212.155 1148.37 216.956 1145.06 221.734C1142.89 224.859 1142.84 225.28 1141.11 227.716C1140.35 228.776 1139.66 229.743 1139.02 230.641L1138.88 230.831L1138.65 230.853C1131.33 231.465 1127.64 231.62 1119.56 232.584C1117.57 232.822 1119.58 232.859 1112.4 233.349C1111.95 233.379 1106.62 233.713 1103.56 234.099C1103.17 234.147 1103.19 234.211 1102.68 234.263C1099.28 234.614 1097 234.774 1093.29 235.143C1089.58 235.512 1085.11 235.963 1080.87 236.334C1078.32 236.558 1075.03 236.742 1073.8 236.826C1070.34 237.062 1066.65 237.544 1064.5 237.64C1062.33 237.737 1066.53 237.19 1060.87 237.648C1060.68 237.835 1060.21 238.051 1059.89 238.251C1047.49 239.395 1035.28 240.472 1022.84 241.634C1021.3 241.778 1022.88 241.722 1021.23 241.878C1014.26 242.54 1008.16 243.041 1000.92 243.737C995.325 244.277 989.193 244.942 983.339 245.509C979.744 245.649 971.061 246.52 964.747 247.088C962.535 247.287 962.678 247.222 961.104 247.351C955.165 247.84 957.961 247.751 956.337 247.929C949.37 248.69 948.737 248.362 940.511 249.134C940.075 249.175 934.766 249.874 934.034 249.954C929.379 250.47 933.255 249.955 930.336 250.21C925.006 250.677 921.299 250.972 915.054 251.611C913.233 251.798 908.872 252.331 905.323 252.561C904.857 252.591 905.108 252.499 904.733 252.53C897.943 253.094 897.784 253.322 893.914 253.754C890.043 254.185 884.041 254.594 882.818 254.665C879.62 254.851 885.257 254.392 885.429 254.365C887.445 254.049 883.08 254.476 879.742 254.775C879.239 254.612 874.573 255.057 876.281 255.086C876.475 255.088 879.07 254.828 879.742 254.775C876.831 255.251 871.704 255.753 866.022 256.087C863.362 256.244 865.859 255.907 857.807 256.692C854.153 257.049 855.579 257.061 852.356 257.399C844.994 258.172 835.404 258.927 827.807 259.652C825.05 259.916 827.743 259.745 825.859 259.928C820.859 260.413 816.443 260.763 811.422 261.259C810.967 261.304 812.087 261.283 810.525 261.429C798.683 262.537 788.366 263.441 776.001 264.586C770.027 265.14 759.35 266.176 753.16 266.741C742.432 267.72 729.226 268.825 720.065 269.703C714.091 270.276 715.409 270.237 712.854 270.53C709.036 270.969 702.92 271.438 699.805 271.664L700.254 271.401C699.737 272.117 699.342 272.661 699.181 272.882C699.171 272.894 699.737 272.07 700.211 271.372L699.8 271.612C700.924 271.497 701.883 271.392 700.333 271.512C700.14 271.519 699.961 271.528 699.793 271.539L700.152 271.33C699.448 272.29 699.208 272.841 699.181 272.882C698.717 273.511 692.854 281.981 691.706 283.687C691.08 284.614 691.495 284.147 691.172 284.624C683.438 296.045 675.63 307.463 667.978 319.167C667.845 319.371 667.968 319.018 667.659 319.494C666.155 321.838 664.697 324.036 663.809 325.914C661.668 329.892 659.522 332.761 657.07 336.416C653.282 341.925 650.163 346.216 647.732 349.337C644.797 353.445 640.492 359.255 638.004 362.594C635.518 365.933 635.309 366.503 635.096 366.8C629.431 374.693 625.662 379.715 620.328 386.873L620.373 386.804C619.598 388.154 618.783 389.576 617.912 391.099C615.117 395.989 609.606 405.708 606.602 411.016C604.229 415.21 602.757 417.713 600.58 421.584C600.285 422.108 600.651 421.618 600.563 421.779C598.188 426.13 599.206 423.969 598.671 424.842C596.729 428.005 595.539 429.965 592.445 435.508C592.104 436.119 591.495 437.316 590.811 438.653L590.738 438.757C589.729 440.048 588.599 441.485 587.7 442.548C585.459 445.197 586.238 444.14 583.893 446.915C583.693 447.153 583.78 447.142 582.32 448.844C577.256 454.747 571.842 461.04 566.495 467.275L566.503 467.265C564.728 469.402 562.96 471.532 561.216 473.637C560.273 474.775 561.554 473.376 560.193 475.021C553.808 482.738 546.796 491.187 540.533 498.67C538.991 500.512 539.902 499.311 539.554 499.7C537.42 502.089 534.653 505.692 534.178 506.271C522.835 520.076 513.987 530.502 502.418 544.566C501.788 545.332 497.058 551.322 494.764 553.842C494.607 554.015 492.334 556.505 490.517 558.867C490.404 559.014 491.808 557.451 489.463 560.265C487.119 563.079 483.398 567.651 480.114 571.468C479.075 572.677 476.547 575.474 473.61 579.215C473.558 579.281 473.19 579.762 472.644 580.464L472.452 580.696L472.157 580.747C469.829 581.228 465.507 582.086 463.598 582.264C463.177 582.302 463.577 582.023 457.998 583.078C456.933 583.279 458.882 582.998 456.069 583.503C451.76 584.273 446.023 585.178 440.72 586.109C440.001 586.228 437.414 586.758 434.747 587.065C434.284 587.109 433.678 587.358 433.132 587.642C432.728 587.871 433.435 587.313 432.109 588.182C427.05 591.97 422.772 597.445 418.806 602.738L418.757 602.8C417.778 603.909 416.728 605.095 415.737 606.209C413.782 608.403 414.724 607.161 412.675 609.441C410.67 611.67 406.612 616.215 404.561 618.607C402.494 621.015 404.927 618.547 401.798 622.094C388.16 637.496 374.565 652.67 360.384 667.577C358.231 669.792 360.132 667.965 356.907 671.212C355.895 672.199 354.796 673.333 353.467 674.35C341.04 685.225 323.606 703.452 314.282 712.596C306.133 720.71 316.226 710.342 310.029 716.572C307.039 719.58 303.978 723.004 303.264 723.742C298.918 728.239 295.343 731.873 291.793 735.503L291.889 735.383C290.209 737.943 288.519 740.522 286.687 743.35C285.676 744.91 286.744 743.43 285.883 744.758C282.943 749.292 279.808 754.028 276.993 758.357C275.73 760.299 276.017 759.977 274.849 761.76C272.052 766.026 269.565 769.789 266.797 773.92C266.545 774.296 268.147 771.692 266.082 774.851C262.741 779.964 258.549 786.281 254.762 792.201C253.639 793.957 253.719 794.107 251.184 797.805C250.652 798.58 251.157 797.478 248.435 801.935C247.977 802.684 243.36 810.144 240.896 813.675C240.825 813.776 240.742 813.895 240.648 814.027L240.733 813.858C240.225 815.09 239.236 817.437 238.482 819.541C238.368 819.861 238.914 818.611 238.202 820.562C235.691 827.44 233.025 834.636 230.443 841.702C229.753 843.589 230.868 840.811 229.838 843.622C227.006 851.353 223.426 860.988 220.613 868.532C219.576 871.313 220.222 869.364 220.14 869.564C218.823 872.78 218.266 874.764 217.875 875.848C215.446 882.594 213.483 887.688 211.213 893.894C210.587 895.607 211.108 894.421 210.989 894.764C209.749 898.32 210.588 895.64 209.748 897.87C209.655 898.118 209.561 898.368 209.467 898.618L209.521 898.317C209.482 904.784 209.488 911.904 209.498 918.387C209.502 920.867 209.593 918.08 209.595 920.306C209.61 933.349 209.602 946.904 209.553 959.649L209.459 959.247C209.514 959.36 209.57 959.473 209.626 959.586C210.695 961.757 209.954 960.425 210.165 960.883C211.613 964.046 214.02 968.541 214.555 969.584C216.989 974.328 217.856 976.209 219.964 980.42C220.79 982.07 221.631 983.751 222.484 985.459C229.125 998.535 236.498 1013.14 243.346 1026.71L243.57 1027.16L243.311 1027.58C240.61 1032 237.978 1036.3 235.474 1040.4L235.25 1040.76L234.824 1040.81C232.713 1041.05 230.649 1041.28 228.642 1041.5C220.405 1042.43 212.707 1043.28 205.267 1044.11L205.173 1044.12C201.945 1044.11 198.766 1044.11 195.612 1044.1L195.218 1044C183.466 1037.54 172.11 1031.3 159.597 1024.46L159.23 1024.26L159.192 1023.84C159.086 1022.69 158.978 1021.52 158.87 1020.35C158.712 1018.64 158.777 1020.37 158.64 1018.9C157.614 1007.85 156.617 996.906 155.614 985.936L155.676 986.19C152.678 978.841 149.673 971.482 146.636 964.072C146.041 962.62 146.814 964.748 145.856 962.418C143.891 957.641 141.422 951.58 139.474 946.734C138.523 944.37 139.885 947.505 138.927 945.126C136.696 939.588 134.282 933.66 131.951 927.987C130.959 925.573 132.364 929.253 131.08 926.112C129.694 922.72 128.311 919.338 126.932 915.961L126.821 915.69L126.881 915.406C130.842 896.458 134.779 877.682 138.903 858.469C139.239 856.904 139.706 855.566 140.369 852.227C140.372 851.966 140.31 851.967 140.28 851.847C141.055 848.13 141.83 844.417 142.606 840.708L142.587 840.887C142.583 826.922 142.592 813.002 142.604 799.069C142.611 790.343 142.619 781.613 142.626 772.863L142.973 773.54C137.232 769.402 131.482 765.257 125.714 761.104C124.559 760.273 126.498 761.787 124.263 760.178C118.561 756.074 112.93 752.027 107.285 747.961L106.902 747.685L106.903 747.215C106.906 738.39 106.921 729.531 106.975 720.414C106.981 719.383 107.053 719.346 107.097 718.222L107.098 717.779L107.49 717.577C108.07 717.306 108.96 716.865 110.492 716.064C111.237 715.674 117.606 712.36 119.238 711.475C119.46 711.355 118.259 711.885 120.314 710.821C127.768 706.964 135.45 703.003 143.078 699.083L143.312 699.003C148.395 698.1 153.453 697.206 158.42 696.332C160.553 695.957 158.298 696.448 159.818 696.182C170.597 694.292 182.301 692.124 192.607 690.351C199.506 689.165 196.981 689.767 200.667 689.252C201.189 689.179 205.456 688.416 205.691 688.459C206.295 688.565 204.269 689.164 205.157 689.234C205.345 689.249 211.049 688.172 207.687 688.895C207.452 688.945 203.317 689.727 202.303 689.95C201.598 690.104 202.893 689.959 201.45 690.254C200.007 690.548 198.402 690.764 196.007 691.236C193.612 691.709 194.686 691.615 189.891 692.488ZM626.774 377.608C624.424 380.659 624.323 381.299 626.74 377.9C626.857 377.735 626.895 377.45 626.774 377.608ZM1035.33 240.241C1030.3 240.575 1026.89 241.087 1030.44 240.86C1033.98 240.633 1036.86 240.139 1035.33 240.241ZM1087.33 235.322C1081.46 235.762 1080.58 236.27 1086.85 235.602C1087.21 235.563 1087.67 235.296 1087.33 235.322ZM183.697 692.342C183.75 692.336 186.818 691.789 186.89 691.772C188.506 691.386 182.373 692.479 183.697 692.342ZM1138.88 230.151C1138.82 230.229 1138.76 230.315 1138.69 230.408L1138.66 230.448L1138.61 230.452C1136.56 230.6 1131.96 231.09 1134.11 230.958C1135.18 230.893 1137.39 230.68 1138.62 230.539L1138.71 230.53L1138.76 230.458C1139.26 229.71 1139.46 229.381 1138.88 230.151ZM506.819 538.048C506.777 538.092 505.348 539.809 505.396 539.79C505.555 539.725 507.522 537.318 506.819 538.048ZM1191.56 159.608C1183.39 169.738 1178.17 175.667 1187.09 164.649C1188.7 162.654 1183.71 169.029 1185.78 166.503C1188.54 163.138 1190.52 160.51 1192.91 157.523C1193.8 156.409 1194.74 155.244 1195.81 153.973C1196.27 153.414 1194.48 155.797 1193.07 157.653C1192.34 158.608 1191.71 159.424 1191.55 159.626C1191.55 159.62 1191.56 159.614 1191.56 159.608ZM625.169 379.18C625.116 379.246 623.282 381.726 623.237 381.791C622.319 383.196 626.026 378.185 625.169 379.18ZM408.4 613.071C408.261 613.219 403.527 618.554 403.365 618.746C401 621.652 410.631 610.799 408.4 613.071ZM776.255 263.737C779.606 263.33 783.624 262.946 786.313 262.817C782.974 263.12 779.613 263.431 776.255 263.737Z" fill="black"/>
<path d="M211.319 690.916C212.827 690.906 214.52 690.904 216.252 690.908L215.598 691.152C217.604 689.42 219.686 687.639 221.439 686.149C222.347 685.377 221.926 685.813 222.554 685.282C222.81 685.065 223.062 684.85 223.31 684.636L223.194 684.759C223.961 683.78 224.689 682.824 225.477 681.842C225.808 681.431 225.471 682.001 225.816 681.569C227.704 679.202 229.446 676.927 231.344 674.517C234.168 670.93 236.974 667.359 239.774 663.788L239.702 663.904C242.76 657.677 245.808 651.454 248.879 645.178L248.924 645.1C250.96 642.171 253.005 639.23 255.064 636.269C257.296 633.057 259.933 629.329 262.373 625.81L262.404 625.77C263.208 624.828 263.994 623.902 264.746 623.008C265.138 622.543 264.847 622.771 264.917 622.679C266.023 621.237 265.745 621.793 266.528 620.904C269.637 617.376 273.033 613.4 275.946 609.937C276.178 609.662 276.318 609.486 276.403 609.373L276.428 609.346C276.832 608.882 276.079 609.519 277.239 608.449C277.338 608.357 277.049 608.759 277.427 608.39C278.285 607.555 279.878 605.936 280.537 605.283C281.808 604.024 282.016 603.814 283.21 602.616C284.843 600.979 286.812 599.057 288.55 597.287C288.92 596.909 288.369 597.349 288.955 596.741C289.376 596.304 290.31 595.367 291.005 594.68L290.991 594.696C291.253 594.414 291.48 594.173 291.628 594.019C292.151 593.476 291.98 593.755 292.081 593.666C292.912 592.939 294.534 590.916 294.756 590.668C296.625 588.577 298.396 586.646 300.14 584.759L300.02 585.067C300.025 584.086 300.031 583.111 300.037 582.137C300.05 580.144 300.062 578.151 300.062 576.093C300.062 575.379 300.061 574.658 300.06 573.932L300.059 573.774L300.165 573.655C302.601 570.903 305.104 568.056 307.39 565.49C308.684 564.038 309.904 562.678 311.103 561.342L311.046 561.424C312.343 559.024 313.605 556.692 314.955 554.156C315.191 553.713 314.83 554.188 315.119 553.646C317.185 549.764 319.249 545.904 321.331 542.056L321.397 541.961C322.815 540.394 324.236 538.83 325.663 537.269C326.102 536.788 325.604 537.468 326.046 536.991C328.14 534.733 331.202 531.479 333.089 529.194L333.041 529.266C333.373 528.462 333.633 527.767 333.783 527.246C334.926 524.801 336.311 521.832 337.387 519.67C337.915 518.61 337.723 519.172 337.937 518.731L337.959 518.693C338.049 518.568 338.197 518.352 338.449 517.97C338.688 517.611 338.304 518.027 338.666 517.491C340.191 515.235 341.904 512.803 343.402 510.564C343.706 510.109 343.563 510.192 343.641 510.057C344.298 508.925 345.674 507.236 345.953 506.853C348.08 503.941 349.547 501.755 351.459 498.993C351.903 498.353 351.301 499.056 351.725 498.438C352.343 497.537 352.968 496.629 353.597 495.719L353.613 495.698C355.352 493.462 357.114 491.217 358.82 489.074C359.348 488.411 358.934 489.076 359.189 488.762C360.315 487.376 360.437 486.97 361.514 485.639C361.741 485.358 361.671 485.561 361.718 485.514C362.445 484.774 362.861 483.963 363.02 483.752C365.001 481.124 366.44 479.55 368.354 477.061L368.337 477.086C368.367 477.036 368.398 476.985 368.428 476.934C368.627 476.601 368.098 477.302 368.66 476.37C372.405 470.155 376.408 463.608 380.196 457.506C380.784 456.557 380.427 457.272 380.471 457.217C381.173 456.303 381.413 455.582 381.596 455.267C382.042 454.505 382.495 453.767 382.932 453.059L382.944 453.041C384.059 451.536 385.083 450.176 385.766 449.001C388.677 445.062 391.557 441.113 394.434 437.172L394.41 437.21C396.846 432.709 399.279 428.216 401.741 423.749L401.748 423.737C402.853 421.932 403.964 420.132 405.082 418.338C405.163 418.207 405.093 418.486 405.254 418.226C407.195 415.094 406.719 415.633 407.84 413.462C408.123 412.915 409.252 411.414 409.349 411.279C409.704 410.79 409.489 411.39 409.601 411.222C410.53 409.833 410.037 409.853 411.198 407.925C411.235 407.865 411.147 408.157 411.251 407.999C411.575 407.509 411.849 406.994 412.168 406.516C412.402 406.165 412.603 405.896 412.8 405.634C413.216 405.077 413.61 404.552 414.244 403.341C414.362 403.115 413.962 403.327 415.006 401.61C415.423 400.925 417.245 397.882 417.77 397.038C418.294 396.194 418.008 396.817 418.047 396.758C419.371 394.728 419.098 395.266 419.64 394.59C419.704 394.527 419.778 394.451 419.867 394.359C420.799 393.385 420.294 393.467 420.596 393.009C420.898 392.551 422.156 391.044 422.472 390.679C422.788 390.314 422.461 390.82 422.734 390.49C424.546 388.3 423.355 389.395 423.88 388.618C425.118 386.787 426.37 385.581 427.619 383.993C427.957 383.563 427.639 383.881 427.931 383.492C428.648 382.534 429.217 381.835 429.851 381.016L429.892 380.979C430.439 380.661 431.025 380.31 431.728 379.865C432.031 379.673 433.481 378.641 434.529 378.159C434.678 378.091 434.312 378.38 435.028 377.977C436.098 377.375 438.012 376.268 439.139 375.581C439.971 375.075 438.954 375.548 440.028 374.956C440.506 374.693 439.666 375.258 440.561 374.759C441.275 374.361 442.862 373.431 443.902 372.82L443.886 372.832C444.103 372.63 444.292 372.454 444.434 372.321C445.158 371.647 444.706 371.956 444.761 371.897C445.094 371.545 446.458 370.225 446.581 370.111C451.274 365.745 455.746 361.697 460.25 357.54C461.71 356.228 463.171 354.907 464.644 353.561C465.122 353.125 464.745 353.35 464.817 353.283C466.435 351.773 465.293 353.111 466.49 352.131C466.209 352.152 466.907 351.564 468.05 350.504C468.601 349.994 468.253 350.218 468.299 350.167C469.057 349.345 469.721 348.922 469.887 348.808C469.917 348.788 469.947 348.766 469.977 348.745L469.949 348.777C470.398 348.227 470.722 347.543 471.035 347.178C471.365 346.794 470.815 347.814 471.631 346.562C471.809 346.177 471.066 347.017 471.665 346.053C473.915 342.426 478.368 335.837 480.273 332.945L480.263 332.963C480.269 332.952 480.274 332.941 480.28 332.93C481.827 329.862 482.313 328.864 483.227 327.082C484.88 323.865 484.18 324.997 485.134 322.963C486.091 320.923 485.867 322.035 486.068 321.774C486.267 321.518 486.363 321.178 486.571 320.84C486.779 320.503 486.436 321.286 486.862 320.463C487.232 319.747 488.059 317.903 488.327 317.219C488.371 317.117 488.401 317.041 488.414 316.999C488.62 316.32 487.947 317.256 489.158 315.121C489.228 314.998 489.079 315.438 489.342 314.966C491.432 311.217 493.552 307.295 495.634 303.547C495.92 303.032 495.746 303.537 495.913 303.238C496.047 302.998 496.167 302.783 496.273 302.59C497.166 300.081 496.728 300.934 497.177 299.177C497.237 299.663 497.716 298.683 498.603 296.12C499.136 294.58 498.956 294.814 499.237 293.796C499.322 293.491 499.76 292.422 499.786 292.21C499.874 291.511 499.366 292.485 500.341 289.864C500.384 289.749 500.331 290.144 500.474 289.745C501.399 287.166 501.363 286.807 502.313 284.002C503.058 281.804 504.494 277.932 505.372 275.439C505.469 275.499 505.681 275.034 505.9 274.414C506.213 273.697 506.55 272.769 506.684 272.229C507.368 270.656 508.092 268.951 508.769 267.438C509.002 266.917 508.918 267.289 508.954 267.226C509.499 266.259 509.645 265.51 509.785 265.167C511.315 261.457 512.721 258.503 514.125 254.938C514.175 254.812 514.107 254.543 514.625 253.651C514.659 253.594 514.229 254.786 514.947 253.134C515.665 251.481 517.091 248.397 518.008 246.069C518.209 245.56 518.62 244.319 519.128 243.283L519.123 243.296C519.17 243.182 519.218 243.07 519.267 242.962C519.336 242.813 519.321 242.998 519.426 242.784C519.761 242.092 519.74 241.642 520.176 240.844C520.612 240.046 521.338 238.322 522.086 235.911C522.11 235.834 522.182 235.226 522.449 234.479C522.875 233.286 523.502 231.601 523.943 230.355C524.154 229.758 523.939 230.112 523.975 230.007C525.301 226.128 526.353 223.359 527.816 219.331C527.898 219.183 527.979 219.037 528.061 218.89C528.468 218.159 529.52 215.996 530.376 214.62C531.315 213.108 530.8 214.908 532.674 211.277C533.43 209.813 533.973 207.732 535.631 205.265C538.327 200.195 540.997 195.602 543.676 190.504C543.796 190.275 544.061 189.487 544.355 188.954C544.792 188.162 545.089 187.76 545.403 187.196C545.421 187.163 545.44 187.13 545.458 187.097C546.677 184.733 547.73 182.53 548.9 180.241C549.35 179.359 549.257 179.7 549.794 178.649C550.331 177.598 550.604 176.854 551.366 175.449C551.943 174.387 552.658 173.396 553.402 171.976C553.263 171.837 553.764 170.857 554.604 169.09C554.766 168.75 554.525 169.08 554.599 168.918C554.896 168.257 555.247 167.684 555.525 167.054C555.593 166.901 555.54 166.865 555.592 166.738C556.034 165.659 557.028 164.015 557.199 163.733C557.853 162.652 558.046 162.089 558.516 161.243C558.986 160.399 558.375 161.708 558.905 160.712C560.004 158.648 561.352 155.964 562.428 153.848C562.857 153.003 562.489 153.541 562.549 153.42C563.415 151.663 564.391 149.937 564.731 148.891C565.736 147.878 565.227 147.818 566.571 145.361C566.677 145.167 566.989 145.011 566.633 145.78C566.278 146.549 565.639 147.665 565.151 148.734C565.035 148.987 564.488 150.497 564.4 150.696C563.712 152.257 563.326 152.332 563.27 152.405C562.645 153.233 561.951 155.065 561.732 155.529C560.731 157.651 559.791 159.41 558.946 161.181C558.393 162.34 558.517 162.544 558.056 163.44C556.523 166.419 555.742 167.333 554.534 170.26C554.275 170.888 554.777 170.388 553.525 172.473C553.446 172.604 552.489 174.138 552.109 175.111C552.061 175.234 552.121 175.259 552.048 175.415C551.557 176.461 551.163 177.125 550.616 178.259C550.07 179.392 549.419 180.758 548.75 182.029C548.347 182.795 547.737 183.731 547.523 184.088C546.918 185.093 546.476 186.275 546.056 186.875C545.711 187.369 545.985 186.562 545.592 187.165C545.498 187.301 545.37 187.504 545.191 187.806C545.304 187.948 545.377 188.174 545.471 188.356C543.45 192.038 541.419 195.638 539.403 199.34C539.154 199.799 539.489 199.373 539.224 199.866C538.102 201.947 537.055 203.727 535.902 205.89C535.009 207.564 534.095 209.435 533.164 211.187C532.414 212.158 531.059 214.772 530.017 216.639C529.653 217.294 529.631 217.225 529.361 217.684C528.342 219.418 528.943 218.673 528.703 219.169C528.614 219.352 528.53 219.518 528.449 219.672L528.494 219.571C527.906 221.33 527.474 221.588 526.631 223.993C526.582 224.132 526.173 225.902 526.102 226.141C525.653 227.657 525.947 226.363 525.603 227.29C524.975 228.982 524.51 230.148 523.859 232.164C523.67 232.752 523.296 234.191 522.802 235.288C522.738 235.432 522.703 235.327 522.657 235.446C521.827 237.59 522.008 237.718 521.637 238.98C521.267 240.242 520.451 242.105 520.273 242.48C519.809 243.462 520.505 241.684 520.515 241.626C520.623 240.935 520.15 242.337 519.762 243.399C519.732 243.41 519.697 243.441 519.661 243.487L519.652 243.508C519.368 243.822 518.938 244.897 519.287 244.5C519.325 244.455 519.581 243.829 519.711 243.534L519.721 243.508C519.738 243.464 519.752 243.426 519.762 243.399C519.757 243.437 519.751 243.477 519.745 243.517L519.734 243.544C519.505 244.543 518.857 246.091 517.958 247.713C517.52 248.503 517.76 247.682 516.716 250.203C516.242 251.347 516.563 250.965 516.167 251.984C515.262 254.313 513.855 257.24 512.857 259.612C512.495 260.473 512.927 259.669 512.682 260.258C512.031 261.823 511.386 263.172 510.741 264.747C510.682 264.89 510.907 264.576 510.699 265.063C509.276 268.39 507.973 271.31 506.514 274.673L506.53 274.632C506.399 275.007 506.267 275.389 506.133 275.776C505.471 277.689 504.331 281.123 503.638 283.102C502.436 286.531 500.862 290.716 499.875 293.659C499.231 295.579 499.454 295.186 499.224 296.024C498.78 297.642 497.627 300.379 497.468 300.746C497.464 300.757 498.014 299.104 497.671 299.969C497.411 300.451 497.475 300.727 497.468 300.746C497.415 300.869 497.087 301.789 496.75 302.746L496.715 302.828C496.251 303.678 495.775 304.56 495.621 304.86C495.451 305.195 495.619 305.047 495.529 305.221C493.39 309.333 491.203 313.43 488.94 317.55L488.95 317.53C488.942 317.547 488.933 317.563 488.925 317.58C488.886 317.654 488.864 317.503 488.774 317.676C487.519 320.103 486.833 321.716 485.882 323.761C484.932 325.805 484.115 327.394 483.385 328.52C482.672 329.989 481.584 332.031 480.912 333.287L480.88 333.342C480.847 333.391 480.814 333.438 480.782 333.484C479.981 334.637 480.016 334.894 479.951 334.999C477.935 338.283 476.636 340.094 474.438 343.432C473.517 344.831 471.822 347.46 470.673 349.25L470.557 349.386C470.347 349.579 470.15 349.76 469.971 349.925C468.775 351.026 468.022 351.653 466.928 352.677C466.78 352.815 466.982 352.734 466.938 352.777C465.759 353.966 466.231 353.29 465.953 353.497C464.943 354.247 464.327 354.717 462.777 356.195C462.427 356.528 461.568 357.648 460.916 358.273L460.924 358.265C460.91 358.279 460.896 358.293 460.882 358.306C460.037 359.117 460.296 358.746 459.414 359.597C459.338 359.67 459.394 359.698 458.838 360.211C456.258 362.591 453.429 365.17 450.76 367.657C450.395 367.997 450.927 367.63 450.4 368.122C448.516 369.883 446.487 371.767 444.545 373.542L444.392 373.656C443.686 374.063 442.991 374.462 442.314 374.847C441.61 375.247 442.015 374.934 441.854 375.006C440.863 375.451 439.629 376.373 439.412 376.504C436.153 378.477 433.334 380.082 430.372 381.797L430.603 381.593C429.382 383.167 428.13 384.794 426.776 386.604C426.576 386.872 425.155 389.026 424.332 389.842C424.276 389.898 423.457 390.702 422.933 391.566C422.901 391.62 423.397 391.108 422.639 392.084C422.041 392.853 421.19 394.017 420.314 395.109L420.369 395.028C420.169 395.346 419.967 395.658 419.765 395.956C419.464 396.402 418.672 397.409 417.956 398.85C417.91 398.944 416.883 401.215 416.257 401.87C416.156 401.976 416.052 401.739 415.159 403.436C414.989 403.76 415.371 403.215 414.9 404.056C414.548 404.686 414.116 405.401 413.667 406.155C413.195 406.945 412.704 407.776 412.267 408.596C412.118 408.875 411.545 410.103 410.895 410.973C410.793 411.109 410.898 410.797 410.597 411.282C409.165 413.587 407.739 416.045 406.276 418.38C405.758 419.207 405.918 418.721 405.367 419.577C404.815 420.433 403.733 422.173 403.228 423.112C402.746 424.009 403.414 423.225 402.768 424.351L402.788 424.316C402.761 424.37 402.73 424.428 402.697 424.491C400.328 428.965 397.896 433.366 395.468 437.783L395.406 437.881C394.297 439.379 393.189 440.88 392.083 442.387C391.476 443.215 392.03 442.566 391.139 443.789C389.198 446.452 386.441 450.268 383.897 453.736L383.94 453.671C382.386 456.217 380.92 458.587 379.842 460.252C377.734 463.511 380.196 459.294 378.619 461.805C377.858 463.016 377.236 464.449 377.062 464.747C375.369 467.666 374.072 469.622 372.521 472.232C372.2 472.771 372.593 472.29 372.319 472.748C371.386 474.314 370.359 475.932 369.461 477.424C369.401 477.524 369.352 477.608 369.313 477.679L369.255 477.762C368.984 478.137 369.028 478.156 368.649 478.636C367.584 479.987 366.628 481.171 365.55 482.457C365.452 482.574 366.021 481.711 365.237 482.714C363.968 484.337 362.35 486.318 360.944 488.227C360.527 488.794 360.628 488.907 359.618 490.037C359.407 490.274 359.513 489.845 358.554 491.33C358.393 491.579 356.741 494.042 355.744 495.106C355.524 495.339 354.99 495.852 354.529 496.411L354.552 496.379C354.466 496.496 354.383 496.614 354.306 496.732C354.244 496.828 354.571 496.496 354.179 497.077C352.796 499.123 351.317 501.247 349.894 503.349C349.515 503.91 350.157 503.127 349.589 503.962C348.027 506.258 346.037 509.098 344.471 511.317C343.894 512.134 344.231 511.526 344.183 511.582C343.417 512.476 343.158 513.139 342.945 513.465C341.617 515.486 340.506 516.957 339.255 518.802C338.909 519.311 339.222 518.997 339.158 519.101C339.084 519.222 339.024 519.318 338.974 519.395L339.058 519.248C338.771 519.925 338.948 519.271 338.637 519.914C337.654 521.941 336.609 524.224 335.664 526.296C335.318 527.057 335.794 526.241 335.482 526.924C335.049 527.872 334.611 528.828 334.17 529.786L334.014 530.023C331.717 532.591 329.381 535.177 327.138 537.624C326.586 538.226 326.877 537.797 326.751 537.913C325.886 538.712 324.852 540.094 324.599 540.398C323.656 541.532 323.142 542.059 322.408 542.868L322.528 542.696C322.414 542.907 322.292 543.133 322.159 543.387C319.107 549.203 315.377 556.136 312.197 562.039L312.078 562.209C311.268 563.114 310.483 563.991 309.734 564.827C306.611 568.316 303.824 571.414 301.083 574.47L301.287 573.932C301.275 576.65 301.266 579.342 301.262 582.137C301.261 583.1 301.261 584.075 301.262 585.067L301.261 585.375L301.056 585.597C300.621 586.073 300.181 586.555 299.736 587.043C299.346 587.471 299.809 587.103 299.474 587.472C296.982 590.214 294.498 592.918 292.012 595.63L291.986 595.657C290.07 597.579 288.153 599.504 286.229 601.452C285.857 601.829 286.458 601.35 285.863 601.957C284.643 603.201 283.082 604.762 281.819 605.99C281.203 606.59 281.963 605.72 281.344 606.324C280.049 607.588 278.684 608.948 277.368 610.282L277.413 610.234C277.277 610.395 277.141 610.557 277.006 610.717C276.44 611.391 277.37 610.439 276.628 611.31C272.244 616.469 267.931 621.55 263.467 626.676L263.522 626.605C262.928 627.444 262.331 628.286 261.729 629.129C261.415 629.568 260.995 629.854 260.371 630.818C260.364 630.918 260.415 630.948 260.439 631.01C257.002 636.008 253.562 640.963 250.114 645.923L250.18 645.81C247.869 650.534 245.552 655.262 243.232 660.023C243.022 660.455 243.472 659.751 243.065 660.587C242.412 661.93 241.765 663.263 241.119 664.594L241.018 664.756C238.659 667.791 236.306 670.808 233.813 673.9C233.47 674.324 233.507 673.999 232.54 675.283C232.37 675.51 230.901 677.436 230.546 677.953C230.498 678.023 230.832 677.723 230.355 678.341C228.458 680.793 226.488 683.316 224.531 685.799L224.42 685.916C223.308 686.868 222.201 687.812 221.109 688.739C220.551 689.212 221.084 688.638 220.686 688.974C219.377 690.081 218.031 691.253 216.693 692.415L216.501 692.58L216.252 692.58C214.207 692.581 212.179 692.58 210.29 692.539C207.929 692.487 208.803 692.34 207.548 692.196C207.371 692.176 205.909 692.172 205.833 692.088C205.639 691.877 206.347 691.646 206.056 691.42C205.995 691.372 204.037 691.424 205.196 691.307C205.277 691.299 206.697 691.26 207.046 691.22C207.29 691.193 206.851 691.107 207.348 691.072C207.845 691.037 208.39 691.108 209.214 691.067C210.037 691.025 209.675 690.928 211.319 690.916ZM477.176 338.677C476.397 339.721 476.542 340.045 477.251 338.829C477.285 338.77 477.216 338.623 477.176 338.677ZM541.233 195.509C540.302 196.937 539.914 198.05 540.578 197.047C541.243 196.045 541.516 195.075 541.233 195.509ZM549.377 179.88C548.387 181.604 548.624 182.074 549.509 180.139C549.56 180.026 549.435 179.779 549.377 179.88ZM213.366 692.155C213.348 692.151 212.297 692.147 212.272 692.151C211.713 692.246 213.814 692.254 213.366 692.155ZM557.188 164.238C556.856 164.765 556.108 166.387 556.52 165.732C556.852 165.205 557.6 163.581 557.188 164.238ZM427.768 384.039C427.752 384.052 427.291 384.648 427.32 384.651C427.416 384.66 428.035 383.814 427.768 384.039ZM570.617 137.731C568.618 141.639 567.102 143.855 569.299 139.609C569.696 138.84 568.555 141.324 569.081 140.355C570.044 138.582 570.453 137.289 571.488 135.507C571.676 135.184 570.732 137.508 570.614 137.738C570.615 137.735 570.616 137.733 570.617 137.731ZM476.466 339.107C476.448 339.127 475.875 339.998 475.864 340.021C475.635 340.546 476.79 338.791 476.466 339.107ZM403.712 420.771C403.675 420.816 402.42 422.885 402.386 422.957C401.867 424.118 404.406 419.935 403.712 420.771ZM505.392 275.402C505.479 275.06 505.581 274.7 505.692 274.342L505.699 274.322C506.005 273.543 506.358 272.777 506.681 272.234C506.374 272.936 506.068 273.642 505.761 274.349L505.756 274.364C505.635 274.71 505.513 275.056 505.392 275.402Z" fill="black"/>
<path d="M1011.55 139.936C1017.54 142.067 1024.83 144.694 1031.55 147.133L1031.18 147.076C1034.13 146.949 1036.98 146.829 1039.59 146.72C1042.39 146.604 1040.98 146.722 1042.91 146.644C1046.69 146.491 1050.21 146.304 1053.95 146.158C1055.19 146.109 1053.65 146.264 1054.95 146.211C1062.06 145.922 1068.79 145.593 1075.99 145.28C1077.28 145.224 1078.58 145.168 1079.87 145.112L1079.9 145.112C1108.65 145.18 1137.04 145.212 1165.95 145.243L1166.11 145.267C1171.36 146.825 1176.62 148.39 1181.91 149.961C1187.52 151.63 1193.73 153.491 1200 155.362L1200.02 155.37C1206.33 157.596 1212.7 159.836 1218.55 161.867C1218.83 161.962 1219.02 162.024 1219.14 162.062L1219.08 162.044C1219.58 162.13 1219.11 161.979 1219.32 162.02C1223.51 162.821 1222.09 162.67 1224.81 163.272C1229.69 164.35 1234.81 165.467 1239.93 166.57L1240 166.593C1245.88 168.99 1251.76 171.363 1257.17 173.539C1261.37 175.227 1257.22 173.388 1261.41 175.175C1261.7 175.299 1260.61 174.94 1261.76 175.414C1264.36 176.489 1269.31 178.481 1271.33 179.306C1271.97 179.569 1272.53 179.795 1273.02 179.996C1275.51 181.047 1276.47 181.446 1279.53 182.73C1284.54 184.833 1290.49 187.367 1295.88 189.605C1297.03 190.082 1295.54 189.371 1297.38 190.126C1299.22 190.881 1304.06 192.919 1305.69 193.621C1307.32 194.324 1306.6 194.09 1306.88 194.225C1309.22 195.335 1314.89 197.529 1315.61 197.828C1315.62 197.829 1315.62 197.83 1315.62 197.831L1315.59 197.82C1325.52 201.148 1334.38 204.208 1343.4 207.308L1343.27 207.285C1346.73 207.294 1350.21 207.3 1353.77 207.3C1356.32 207.3 1358.91 207.298 1361.52 207.295C1369.31 207.286 1377.23 207.269 1384.48 207.273C1386.13 207.273 1387.75 207.275 1389.33 207.277L1389.48 207.302C1396.09 209.624 1402.2 211.784 1408.59 214.026L1408.73 214.107C1410.52 215.724 1412.33 217.365 1414.21 219.052C1415.09 219.843 1414.12 218.845 1415.19 219.811C1423.81 227.571 1432.38 235.3 1440.93 243.049L1440.91 243.027C1443.83 245.319 1446.76 247.613 1449.68 249.911C1450.89 250.857 1449.28 249.71 1450.48 250.659C1454.67 253.97 1460.23 258.395 1465.1 262.169L1465.16 262.23C1467.62 266.167 1469.84 269.617 1471.24 271.565C1472.66 273.858 1474.22 276.36 1475.76 278.851L1475.66 278.739C1478.75 281.205 1481.82 283.66 1484.35 285.716C1487.2 288.023 1484.35 285.889 1487.9 288.647C1488.7 289.269 1487.72 288.389 1488.92 289.327C1493.95 293.275 1499.43 297.632 1504.42 301.528C1505.43 302.321 1505.2 302.047 1505.5 302.263C1507.97 304.085 1511.87 307.386 1512.73 308.086C1512.83 308.162 1512.92 308.238 1513.01 308.314L1513.12 308.394L1513.15 308.52C1515.04 315.23 1516.58 320.448 1518.31 326.378L1518.19 326.197C1519.12 326.911 1520.07 327.642 1521.05 328.399C1522.51 329.518 1520.85 328.121 1522.25 329.194C1529.5 334.762 1537 340.547 1544.07 346.043C1545.65 347.265 1544.15 346.212 1544.89 346.8C1548.2 349.39 1549.03 349.836 1552.2 352.317C1552.87 352.84 1552.44 352.604 1552.56 352.704C1554.41 354.277 1556.18 355.426 1556.68 355.803C1562.95 360.571 1566.84 363.784 1572.89 368.409C1573.61 368.962 1572.04 367.64 1574.07 369.199C1584.23 376.997 1594.81 385.155 1605.1 393.119L1605.18 393.18L1605.21 393.275C1606.62 397.36 1608 401.41 1609.36 405.392C1610.21 407.877 1609.54 406.127 1609.58 406.286C1610.35 408.872 1611.08 410.463 1611.36 411.269C1611.61 411.975 1611.86 412.676 1612.1 413.371C1614.29 418.804 1616.68 423.744 1619.07 427.017C1619.36 427.451 1619.66 427.883 1619.96 428.299C1624.43 434.616 1630.37 439.607 1636.4 444.42C1645.07 451.181 1654.64 456.778 1664.16 462.241L1664.18 462.251C1671.42 466.913 1678.65 471.581 1685.86 476.265L1685.67 476.235C1686.25 476.094 1686.82 475.953 1687.4 475.813C1687.75 475.727 1687.14 475.966 1687.84 475.794C1696.26 473.731 1694.61 474.009 1700.13 472.459C1701.27 472.139 1704.38 471.487 1705.67 471.219L1705.51 471.358C1705.63 471.095 1705.71 470.914 1705.74 470.85C1706.32 469.557 1705.88 470.965 1706.07 470.529C1707.61 466.922 1706.99 467.36 1708.98 462.453C1709.04 462.3 1708.85 462.973 1709.02 462.564C1709.56 461.293 1710.05 460.013 1710.58 458.771C1711.8 455.929 1712.4 454.983 1714.06 450.563C1714.27 450.003 1713.71 450.761 1715.49 446.385C1716.21 444.64 1719.33 436.908 1720.22 434.747C1721.11 432.589 1720.58 434.103 1720.65 433.95C1722.73 429.027 1722.43 429.895 1723.1 428.509C1723.11 428.241 1723.13 427.892 1723.16 427.418C1723.3 424.267 1722.95 425.141 1722.91 423.856C1722.88 422.569 1722.96 417.957 1722.99 416.824C1723.01 415.691 1723.06 417.104 1723.08 416.096C1723.18 409.418 1722.9 413.165 1722.85 410.964C1722.83 410.291 1722.82 409.636 1722.82 408.997L1722.85 409.136C1720.78 405.388 1719.24 402.131 1717.29 398.487C1716.68 397.354 1717.13 398.304 1716.58 397.301C1716.38 396.939 1716.19 396.591 1716.01 396.252L1715.99 396.173C1715.98 392.32 1716.04 389.64 1715.98 384.953C1715.97 384.468 1715.92 382.888 1715.89 381.119L1715.89 380.955L1716.04 380.883C1717.21 380.299 1718.49 379.685 1719.55 379.231C1719.9 379.08 1718.95 379.609 1720.7 378.785C1723.08 377.661 1727.19 375.696 1730.01 374.324L1729.99 374.334C1730.24 374.16 1730.47 373.993 1730.69 373.836C1732.56 372.504 1730.35 373.928 1732.73 372.296C1733.78 371.57 1731.88 372.988 1733.86 371.621C1735.83 370.261 1740.83 366.735 1742.73 365.392C1744.63 364.052 1743.55 364.718 1743.7 364.606C1744.61 363.925 1748.24 361.325 1748.56 361.098C1754.35 357.016 1759.99 353.062 1765.57 349.157L1765.53 349.196C1772.18 341.457 1778.27 333.655 1785.69 326.317C1786.47 324.74 1787.3 322.51 1788.05 320.532C1788.57 319.125 1788.14 320.031 1788.22 319.816C1789.99 314.927 1788.79 318.845 1790.1 315.461C1789.76 315.897 1790.53 313.889 1791.74 310.429C1792.32 308.763 1791.93 309.646 1791.98 309.492C1792.76 306.989 1793.49 305.311 1793.67 304.876C1794.34 303.27 1794.84 301.455 1795.3 300.356C1795.74 299.266 1794.95 301.861 1796.1 298.541C1796.36 297.585 1795.35 300.005 1796.2 297.468C1796.86 295.513 1797.64 293.187 1798.49 290.71L1798.47 290.793C1798.45 280.595 1798.54 267.406 1798.55 260.972C1798.56 253.931 1798.55 251.044 1798.57 247.302L1798.56 247.26L1798.59 247.223C1798.86 246.743 1799.14 246.246 1799.43 245.719C1803.62 238.316 1801.99 240.978 1804.52 236.341C1807.06 231.692 1806.06 234.083 1806.49 233.45C1806.91 232.829 1807.25 232.084 1807.73 231.29C1808.21 230.498 1807.27 232.27 1808.35 230.374C1809.42 228.477 1812.23 223.219 1812.55 222.512C1813.22 221.017 1811.78 223.289 1814.64 218.279C1814.81 217.99 1814.35 218.968 1814.98 217.863C1815.02 217.798 1815.05 217.732 1815.09 217.666L1815.07 217.785C1813.96 212.093 1812.81 206.279 1811.66 200.488L1811.73 200.567C1807.71 199.032 1803.71 197.5 1799.78 195.986C1798.49 195.488 1799.68 195.846 1798.92 195.556C1794.57 193.873 1793.49 193.495 1792.63 193.239L1792.65 193.239C1791.98 193.472 1791.47 193.679 1789.51 194.281C1790.45 193.804 1787.96 194.338 1781.8 195.993C1778.1 196.987 1778.76 196.907 1776.39 197.615C1775.67 197.827 1773.04 198.469 1772.58 198.64C1771.05 199.201 1773.56 198.694 1767.19 200.339C1766.91 200.411 1767.78 200.096 1766.82 200.35C1766.44 200.449 1766.08 200.544 1765.74 200.635L1765.81 200.599C1761.66 204.132 1760.93 204.934 1755.97 209.199C1755.07 209.974 1754.02 210.876 1752.86 211.855C1748.8 215.449 1743.54 220.06 1739.9 223.284C1739.87 223.136 1738.53 224.27 1737.06 225.604L1737.07 225.534C1737.67 227.034 1738.36 228.664 1738.82 229.632C1740.28 233.392 1741.87 237.447 1743.26 241.087C1743.74 242.34 1743.36 241.544 1743.41 241.705C1743.62 242.317 1743.82 242.875 1744.02 243.38L1744.03 243.403L1744.02 243.425C1743.23 244.857 1742.77 245.914 1742.46 246.491C1740.6 249.974 1738.86 253.173 1737.15 256.299L1737.12 256.343C1734.79 258.391 1732.5 260.397 1730.17 262.475L1730.17 262.469C1728.86 263.791 1727.54 265.139 1726.18 266.54C1725.96 266.769 1725.71 267.255 1723.92 268.872C1723.81 268.976 1725.85 266.817 1722.86 269.811C1721.22 271.444 1718.78 273.849 1716.24 276.382L1716.21 276.402C1713.6 277.872 1710.9 279.408 1708.59 280.76C1707.37 281.48 1704.3 283.377 1701.74 284.711C1701.4 284.889 1701.74 284.639 1701.24 284.89C1699.64 285.703 1698.87 286.335 1696.96 287.252C1695.06 288.169 1691.18 290.244 1686.08 293.261C1686.03 293.289 1685.9 293.378 1685.69 293.513C1685.19 293.816 1684.25 294.369 1683.07 294.966C1680.42 296.313 1676.64 298.205 1673.86 299.616C1672.54 300.291 1673.43 299.934 1673.2 300.052C1668.57 302.432 1664.63 304.429 1660.56 306.477L1660.53 306.491L1660.5 306.484C1656.44 305.399 1652.26 304.278 1647.29 302.955C1646.18 302.661 1643.85 302.09 1641.38 301.455L1641.36 301.446C1639.84 300.428 1638.26 299.355 1636.97 298.432C1633.56 296.008 1637.35 298.074 1629.34 292.771C1628.3 292.085 1627.15 291.381 1625.88 290.605L1625.9 290.62C1623.4 288.702 1620.39 286.407 1616.89 283.22C1615.2 281.814 1613.54 280.421 1611.89 279.036L1611.91 279.06C1607.69 268.819 1603.75 258.982 1599.37 248.525C1599.27 248.287 1599.06 247.84 1598.81 247.304C1598.26 246.708 1597.6 245.975 1597.07 245.338C1595.73 243.695 1595.04 242.752 1594.08 241.578C1590.05 236.657 1586.31 232.203 1582.42 227.466C1580.94 225.667 1581.51 226.251 1579.75 224.106C1578.01 221.986 1576.77 220.623 1574.46 217.759C1574.45 217.719 1574.43 217.681 1574.41 217.643C1573.28 215.04 1572.29 212.373 1570.76 208.927C1570.53 208.873 1569.48 206.511 1567.54 202.336C1567.17 201.533 1567.5 202.425 1567.32 202.047C1566.59 200.508 1566 199.049 1565.3 197.59C1565.13 197.235 1565.07 197.244 1564.92 196.955C1563.72 194.501 1562 190.335 1561.71 189.619C1561.59 189.327 1561.47 189.052 1561.36 188.791L1561.37 188.804C1560.06 186.826 1559.25 185.777 1558.12 184.091C1556.85 182.207 1558.83 184.966 1557.33 182.777C1554.23 178.24 1550.18 172.451 1547 167.869C1545.72 166.041 1546.52 167.337 1546.34 167.076C1545.26 165.539 1544.19 163.985 1543.19 162.547C1541.34 160.808 1539.69 159.279 1538.51 158.32C1536.48 155.819 1536.46 156.455 1531.71 151.896C1531.33 151.536 1530.99 150.934 1532.47 152.271C1533.94 153.609 1536.1 155.717 1538.15 157.569C1538.64 158.007 1541.51 160.424 1541.89 160.765C1542.54 161.347 1543.06 161.831 1543.48 162.235L1543.54 162.304C1544.69 164.026 1544.75 164.45 1544.83 164.594C1546.06 166.671 1548.85 170.308 1549.55 171.289C1552.75 175.778 1555.4 179.648 1558.07 183.407C1559.82 185.866 1560.16 185.992 1561.51 187.939C1561.63 188.115 1561.75 188.288 1561.87 188.458L1561.91 188.542C1564.92 195.304 1565.83 197.964 1569.01 204.452C1569.71 205.882 1569.26 204.348 1571.44 209.621C1571.58 209.952 1573.17 213.879 1574.26 216.069C1574.4 216.344 1574.46 216.308 1574.63 216.676C1574.76 216.963 1574.89 217.24 1575.01 217.509L1574.93 217.376C1576.36 219.092 1577.43 220.442 1579.1 222.445C1581 224.713 1583.29 227.435 1585.42 230.056C1586.71 231.635 1588.27 233.728 1588.87 234.498C1590.55 236.676 1592.54 238.864 1593.54 240.245C1594.55 241.638 1592.3 239.144 1595.11 242.666C1595.34 242.687 1595.72 242.874 1596.02 242.973C1597.11 244.293 1598.19 245.61 1599.27 246.925L1599.36 247.077C1602.43 254.606 1605.46 262.081 1608.57 269.66C1609.04 270.796 1608.65 269.6 1609.15 270.817C1610.3 273.6 1611.35 276.201 1612.43 278.847L1612.25 278.607C1614.09 280.169 1615.96 281.751 1617.98 283.442C1620.6 285.624 1623.44 287.934 1626.23 290.234L1626.17 290.188C1627.1 290.806 1628.03 291.423 1628.94 292.036C1631.2 293.793 1636.96 297.62 1641.12 300.453C1641.37 300.624 1641.57 300.765 1641.74 300.885L1641.56 300.8C1642.52 301.07 1642.61 301.131 1643.6 301.408C1648.16 302.667 1646.06 301.941 1647.32 302.244C1652.73 303.544 1653.09 304.037 1659.43 305.691C1659.53 305.718 1660.01 305.823 1660.64 305.959L1660.32 305.994C1661.54 305.302 1663.39 304.249 1663.74 304.059C1667.02 302.301 1664.32 303.844 1666.4 302.803C1670.2 300.904 1672.85 299.61 1677.26 297.299C1678.54 296.625 1681.59 294.932 1684.15 293.742C1684.48 293.585 1684.33 293.739 1684.6 293.607C1684.93 293.446 1685.23 293.295 1685.51 293.153L1685.49 293.163C1689.35 291.007 1689.53 290.685 1692 289.204C1694.65 287.615 1698.87 285.387 1699.73 284.944C1702 283.785 1698.07 285.946 1697.95 286.024C1696.61 286.933 1699.62 285.195 1701.94 283.892C1702.38 283.883 1705.6 282.036 1704.34 282.54C1704.2 282.598 1702.41 283.636 1701.94 283.892C1703.87 282.561 1707.41 280.52 1711.42 278.458C1713.16 277.567 1711.86 278.414 1716.01 276.04L1715.95 276.088C1716.23 275.802 1716.54 275.482 1716.9 275.126C1718.94 273.053 1718.04 273.748 1719.83 271.901C1722.73 268.903 1726.34 265.356 1729.71 262.012L1729.74 261.99C1731.2 260.719 1732.61 259.478 1733.92 258.315C1735.56 256.856 1733.91 258.212 1735.03 257.213C1735.57 256.728 1736.11 256.256 1736.63 255.791L1736.51 255.949C1738.01 253.188 1739.44 250.617 1740.98 247.731C1741.15 247.411 1740.65 248.15 1741.25 247.056C1741.97 245.708 1742.69 244.39 1743.4 243.089L1743.36 243.635C1741.03 237.647 1738.86 232 1736.45 225.778L1736.29 225.383L1736.61 225.103C1737.55 224.27 1738.5 223.423 1739.47 222.555C1742.78 219.61 1748.49 214.474 1752.23 211.138L1752.24 211.13C1752.53 210.887 1752.8 210.654 1753.06 210.433C1756.89 207.169 1761.26 203.49 1765.34 200.043L1765.55 199.928C1769.16 198.981 1772.58 198.073 1775.47 197.282C1780.07 196.028 1779.04 196.219 1780.99 195.635C1784.76 194.508 1791.54 192.886 1792.46 192.672C1792.48 192.665 1788.53 193.748 1790.66 193.221C1791.91 192.976 1792.41 192.684 1792.46 192.672C1792.47 192.669 1792.48 192.666 1792.49 192.663L1792.67 192.615L1792.85 192.68C1793.64 193.001 1801.05 195.83 1802.55 196.381C1803.38 196.686 1802.94 196.438 1803.38 196.599C1806.25 197.668 1809.13 198.742 1812.01 199.821L1812.37 199.957L1812.44 200.33C1813.62 206.067 1814.78 211.821 1815.94 217.611L1815.99 217.869L1815.86 218.098C1814.86 219.883 1813.86 221.671 1812.85 223.462C1812.75 223.632 1812.82 223.332 1812.59 223.732C1809.42 229.321 1807.51 232.964 1804.98 237.621C1802.75 241.737 1800.87 245.073 1799.32 247.632L1799.4 247.302C1799.39 247.694 1799.37 248.072 1799.36 248.435C1799.37 252.432 1799.31 258.167 1799.27 261.467C1799.23 264.767 1799.4 265.228 1799.4 265.518C1799.51 274.575 1799.41 279.81 1799.4 289.206C1799.4 289.687 1799.4 290.22 1799.39 290.793L1799.36 291.008C1797.83 295.495 1795.39 302.615 1793.97 306.693C1792.71 310.305 1791.9 312.462 1790.73 315.79C1790.57 316.234 1790.8 315.812 1790.76 315.948C1789.49 319.688 1789.97 317.838 1789.66 318.587C1789.13 319.861 1788.69 320.907 1788.19 322.134C1787.94 322.748 1787.69 323.388 1787.37 324.167C1787.3 324.344 1787.21 324.554 1787.13 324.757C1787.05 324.954 1786.96 325.163 1786.86 325.386C1786.78 325.586 1786.66 325.843 1786.56 326.056C1786.51 326.166 1786.44 326.318 1786.38 326.424C1786.36 326.467 1786.3 326.575 1786.25 326.639C1786.22 326.679 1786.22 326.695 1786.16 326.758C1786.09 326.822 1786.05 326.963 1785.69 327C1785.91 326.98 1785.88 326.946 1785.87 326.962C1785.86 326.969 1785.84 326.983 1785.82 327.003C1785.76 327.051 1785.72 327.088 1785.66 327.14C1785.53 327.258 1785.44 327.348 1785.31 327.48C1784.51 328.28 1782.46 330.97 1781.08 332.571C1779.28 334.655 1779.89 333.811 1778.03 336.001C1777.87 336.19 1777.94 336.188 1776.78 337.536C1773.4 341.471 1769.84 345.648 1766.31 349.851L1766.16 349.992C1763.51 351.851 1760.86 353.713 1758.26 355.546C1757.3 356.221 1758.58 355.433 1757.2 356.41C1750.71 360.992 1743.59 366.002 1737.23 370.421C1735.67 371.509 1736.61 370.768 1736.26 370.99C1734.12 372.355 1731.27 374.568 1730.79 374.912C1730.7 374.974 1730.62 375.035 1730.53 375.095L1730.41 375.163C1725.47 377.578 1720.95 379.744 1716.51 381.866L1716.98 381.119C1716.97 386.085 1716.95 390.963 1716.95 396.173L1716.85 395.794C1718.17 398.229 1719.54 400.744 1721 403.393C1721.24 403.846 1722.65 406.265 1723.91 408.564L1724.01 408.997C1724.02 410.361 1724.01 411.678 1723.95 412.602C1723.94 412.786 1723.78 415.458 1723.89 417.819C1723.9 417.966 1723.98 416.302 1723.97 419.206C1723.97 421.575 1724 425.12 1723.96 428.512L1723.9 428.835C1723.61 429.544 1723.31 430.244 1723.02 430.921C1722.52 432.082 1721.25 434.791 1719.95 438.334C1719.87 438.565 1717.95 444.069 1716.98 445.92C1716.83 446.22 1716.76 445.814 1715.18 450.026C1714.87 450.831 1715.5 449.402 1714.68 451.512C1713.42 454.746 1711.64 458.988 1710.13 462.977C1709.86 463.673 1708.81 466.663 1707.75 468.977C1707.59 469.339 1707.81 468.612 1707.29 469.853C1707.03 470.487 1706.77 471.124 1706.51 471.764L1706.35 472.165L1705.93 472.269C1700.35 473.65 1694.59 475.129 1688.97 476.495C1686.87 477.006 1687.74 476.683 1685.89 477.108L1685.61 477.177L1685.37 477.023C1685.28 476.959 1685.17 476.89 1685.06 476.815C1683.06 475.498 1679.02 472.871 1676.89 471.563C1674.75 470.255 1676.96 471.885 1673.79 469.872C1670.35 467.684 1666.92 465.492 1663.51 463.297L1663.55 463.326C1653.96 457.828 1644.45 452.218 1635.66 445.339C1634.76 444.614 1633.86 443.889 1632.97 443.156C1631.1 441.61 1632.6 442.959 1629.86 440.65C1626.46 437.781 1622.38 433.822 1618.93 429.057C1615.54 424.33 1613.07 418.897 1611 413.788L1610.99 413.757C1609.19 408.523 1607.55 403.741 1606.35 400.137C1603.47 391.481 1607.31 402.301 1605.07 395.7C1604.83 394.993 1604.58 394.278 1604.32 393.584L1604.53 393.866C1602.44 392.321 1600.5 390.993 1600 390.612C1593.67 385.827 1589.36 382.39 1583.69 378.058C1582.52 377.164 1583.61 378.113 1582.61 377.351C1579.21 374.749 1575.66 371.971 1572.41 369.478C1570.95 368.36 1571.18 368.618 1569.85 367.583C1566.65 365.107 1563.83 362.903 1560.74 360.449C1560.46 360.225 1562.43 361.639 1560.06 359.811C1556.23 356.853 1551.5 353.138 1547.04 349.788C1545.72 348.794 1545.58 348.873 1542.83 346.623C1542.25 346.151 1543.11 346.589 1539.74 344.186C1539.17 343.782 1533.53 339.705 1530.91 337.516C1530.21 336.939 1528.48 335.421 1526.89 334.226C1526.68 334.064 1527.48 334.787 1526.17 333.788C1523.33 331.619 1520.41 329.375 1517.48 327.125L1517.27 326.961L1517.19 326.707C1516.54 324.496 1515.89 322.282 1515.24 320.086C1514.78 318.558 1515.37 320.859 1514.7 318.582C1513.81 315.593 1512.83 312.247 1511.86 308.898L1512.18 309.371C1509.19 306.998 1506.2 304.619 1503.59 302.539C1501.75 301.071 1503.07 302.026 1502.94 301.914C1500.85 300.11 1499.47 299.229 1498.75 298.67C1494.25 295.188 1490.91 292.442 1486.78 289.208C1485.64 288.315 1486.4 289.013 1486.17 288.839C1483.78 287.041 1485.62 288.31 1484.14 287.126C1481.2 284.755 1477.99 282.212 1474.86 279.744L1474.67 279.529C1473.83 278.18 1472.99 276.846 1472.18 275.551C1471.14 273.884 1472.23 275.807 1471.29 274.311C1468.93 270.537 1466.54 266.696 1464.15 262.86L1464.37 263.107C1459.57 259.364 1454.79 255.623 1450.2 252.005C1448.69 250.818 1449.68 251.505 1449.38 251.246C1447.27 249.464 1443.99 247.1 1443.25 246.54C1441.94 245.559 1440.96 244.799 1440.07 244.104L1440.02 244.063C1438.68 242.856 1437.58 241.833 1435.87 240.302C1427.19 232.527 1417.24 223.552 1407.86 215.072L1408.16 215.253C1401.42 212.886 1394.91 210.596 1389.05 208.535L1389.33 208.584C1389.33 208.584 1389.32 208.584 1389.31 208.584C1379.31 208.57 1370.32 208.548 1361.52 208.531C1355.43 208.519 1349.43 208.508 1343.27 208.503L1343.01 208.461C1338.36 206.871 1333.61 205.251 1328.62 203.557C1327.34 203.119 1328.6 203.65 1327.49 203.273C1323.37 201.874 1319.26 200.477 1315.16 199.08L1315.11 199.058C1305.23 194.918 1295.4 190.785 1285.43 186.63C1284.28 186.151 1285.9 186.926 1284.05 186.16C1280.53 184.698 1276.15 182.856 1272.48 181.297L1272.49 181.301C1272.22 181.188 1271.95 181.076 1271.68 180.966C1269.81 180.195 1272.35 181.143 1270.47 180.368C1266.1 178.563 1261.39 176.651 1256.88 174.838C1254.96 174.067 1257.82 175.323 1255.33 174.314C1250.02 172.167 1244.74 170.033 1239.47 167.897L1239.63 167.946C1232.69 166.461 1225.75 164.972 1218.78 163.46L1218.66 163.429C1213.53 161.618 1208.38 159.792 1203.19 157.939C1202.2 157.584 1201.35 157.151 1199.62 156.521L1199.65 156.531C1199.29 156.421 1198.9 156.305 1198.46 156.181C1198.25 156.172 1198.25 156.233 1198.15 156.26C1187.3 153.06 1176.5 149.859 1165.7 146.653L1165.95 146.688C1150.65 146.675 1135.35 146.652 1119.94 146.646C1118.81 146.646 1120.76 146.743 1118.58 146.742C1105.94 146.741 1093.66 146.768 1080.73 146.671C1080.33 146.668 1080.12 146.649 1079.9 146.626L1079.93 146.625C1079.46 146.595 1078.95 146.544 1076.36 146.68C1075.7 146.715 1070.01 146.998 1068.54 147.103C1068.34 147.117 1069.38 147.15 1067.55 147.236C1056.9 147.736 1045.74 148.229 1035.1 148.668C1033.39 148.738 1035.21 148.57 1033.99 148.619C1033.08 148.656 1032.17 148.694 1031.25 148.734L1030.99 148.694C1023.76 146.074 1016.11 143.369 1009.28 140.849L1009.15 140.786C1008.98 140.678 1008.82 140.571 1008.66 140.464C1004.01 137.423 1005.82 138.409 1003.42 136.695C1003.08 136.452 1000.18 134.594 1000.08 134.427C999.81 134.003 1001.34 134.707 1000.88 134.148C1000.79 134.029 996.884 131.588 999.242 132.961C999.406 133.057 1002.24 134.826 1002.95 135.237C1003.45 135.523 1002.62 134.894 1003.63 135.495C1004.63 136.096 1005.67 136.849 1007.32 137.859C1008.64 138.664 1008.48 138.483 1010.02 139.43L1009.82 139.333C1010.26 139.48 1010.81 139.674 1011.55 139.936ZM1799.09 276.326C1799.01 279.382 1799.31 279.833 1799.23 276.528C1799.23 276.368 1799.09 276.169 1799.09 276.326ZM1604.58 260.529C1605.97 264.275 1607.19 266.731 1606.21 264.085C1605.24 261.439 1604.15 259.388 1604.58 260.529ZM1581.81 226.323C1584.7 229.993 1585.5 230.291 1582.25 226.485C1582.06 226.264 1581.65 226.108 1581.81 226.323ZM1015.66 142.73C1015.63 142.712 1013.3 141.873 1013.24 141.856C1011.97 141.501 1016.62 143.179 1015.66 142.73ZM1562.34 190.505C1562.89 191.858 1564.67 195.658 1563.99 193.977C1563.45 192.624 1561.67 188.82 1562.34 190.505ZM1717.36 398.305C1717.38 398.349 1718.22 399.908 1718.22 399.865C1718.24 399.721 1717.04 397.564 1717.36 398.305ZM1516.98 137.915C1524.51 144.975 1528.85 149.505 1520.66 141.8C1519.18 140.405 1523.94 144.714 1522.07 142.922C1518.65 139.643 1516.2 137.654 1512.74 134.264C1512.12 133.65 1516.55 137.512 1517 137.927C1516.99 137.923 1516.99 137.919 1516.98 137.915ZM1798.73 278.086C1798.73 278.147 1798.72 280.6 1798.73 280.658C1798.82 281.986 1798.83 277.046 1798.73 278.086ZM1681.78 473.759C1681.67 473.679 1676.88 470.599 1676.72 470.505C1674.14 469.033 1683.82 475.259 1681.78 473.759ZM1739.82 223.344C1739 224.13 1738.1 224.968 1737.21 225.773L1737.28 225.452C1737.88 226.969 1738.43 228.451 1738.82 229.62C1738.28 228.244 1737.75 226.863 1737.21 225.48L1737.15 225.715C1738.04 224.925 1738.93 224.134 1739.82 223.344ZM485.69 201.173C489.056 204.198 492.699 207.478 496.469 210.876L496.414 210.83C504.402 217.053 512.929 223.71 520.733 229.81L520.961 230.063C522.921 233.219 524.813 236.266 526.592 239.133C529.38 243.628 527.918 241.383 529.841 244.487C530.332 245.28 530.82 246.065 531.304 246.844L531.106 246.622C535.894 250.42 540.479 254.023 545.279 257.845C547.108 259.302 544.772 257.563 546.692 259.089C554.049 264.939 561.145 270.546 568.396 276.282L568.578 276.426L568.644 276.65C569.758 280.465 570.882 284.315 572.025 288.245C572.631 290.33 573.237 292.414 573.843 294.497L573.594 294.131C602.651 316.558 631.472 338.78 660.452 361.119L660.598 361.231L660.658 361.404C662.969 368.089 665.282 374.78 667.599 381.481L667.565 381.401C670.166 386.414 672.77 391.433 675.378 396.46L675.268 396.31C680.757 401.691 686.257 407.083 691.773 412.489L691.681 412.416C698.205 416.606 704.748 420.808 711.312 425.024C713.963 426.726 716.694 428.482 719.484 430.276C726.459 434.762 733.803 439.49 741.195 444.245L741.047 444.18C753.29 447.435 765.642 450.712 776.983 453.693C779.593 454.379 778.057 453.897 778.555 454.022C786.364 455.99 783.737 455.45 788.816 456.813C808.972 462.223 831.406 468.161 850.83 473.267C859.093 475.439 850.848 473.108 859.145 475.386C859.721 475.544 857.605 475.066 859.868 475.673C865.001 477.049 874.751 479.613 878.732 480.671C886.402 482.712 887.672 483.047 894.93 484.967C904.851 487.592 916.642 490.75 927.293 493.547C929.566 494.144 926.578 493.271 930.205 494.216C933.836 495.162 943.43 497.705 946.66 498.579C949.891 499.453 948.497 499.149 949.066 499.315C953.746 500.678 964.889 503.449 966.317 503.823C992.374 510.638 1014.68 516.635 1039.12 523.097C1057.68 528.002 1077.53 533.217 1095.18 537.889C1116.21 543.456 1134.03 548.211 1154.47 553.607C1156.62 554.176 1154.12 553.417 1156.75 554.112C1184.74 561.5 1212.53 568.857 1240.38 576.286C1243.17 577.031 1239.55 576.159 1242.33 576.908C1259.41 581.493 1286.41 588.801 1296.66 591.136C1308.23 594.211 1322.28 597.942 1332.62 600.75C1339.29 602.561 1332.78 600.934 1340.99 603.065C1342.85 603.546 1340.46 602.834 1343.24 603.561C1354.93 606.622 1367.69 610.021 1379.25 613.037C1381.61 613.65 1380.98 613.412 1381.65 613.576C1387.28 614.956 1396.55 617.585 1398.58 618.134C1414.03 622.313 1425.33 625.265 1439.74 629.077C1443.09 629.962 1439.16 628.825 1442.38 629.673C1459.07 634.072 1476.36 638.651 1492.69 643.013C1496.32 643.983 1492.96 643.177 1494.69 643.645C1502.34 645.706 1504.08 646.007 1511.42 647.982C1512.96 648.398 1512.07 648.234 1512.35 648.316C1516.74 649.6 1520.63 650.452 1521.77 650.749C1536.16 654.503 1545.31 657.105 1559.22 660.755C1560.88 661.191 1557.15 660.115 1561.83 661.347C1592.82 669.517 1625.58 678.202 1656.25 686.384L1655.91 686.557C1655.96 686.419 1656.02 686.281 1656.08 686.143C1657.95 681.553 1656.68 684.857 1656.8 684.571C1658.83 679.908 1659.91 676.795 1660.51 675.295C1665.25 663.461 1669.85 652.476 1672.91 644.371C1673.02 644.114 1673.12 643.856 1673.23 643.599L1673.2 643.734C1673.21 637.226 1673.21 630.721 1673.22 624.219L1673.26 624.383C1670.94 620.106 1668.63 615.83 1666.31 611.557L1666.27 611.395C1666.27 606.375 1666.27 601.357 1666.27 596.341L1666.27 596.13L1666.46 596.038C1671.1 593.807 1675.74 591.577 1680.37 589.347L1680.32 589.375C1692.21 581.002 1704.09 572.639 1715.97 564.294L1715.9 564.351C1722.55 556.617 1728.57 548.759 1736.14 541.415C1738.72 535.253 1741.26 527.97 1743.69 521.195C1743.92 520.553 1743.59 521.732 1744.05 520.452C1747.21 511.492 1748.11 508.705 1748.99 505.949L1748.98 506.015C1748.93 503.921 1748.87 501.838 1748.81 497.303C1748.77 494.577 1748.96 486.284 1748.97 485.551C1749.02 482.877 1749.15 485.65 1749.16 484.755C1749.24 477.348 1748.83 478.555 1748.82 468.562C1748.83 468.249 1748.9 469.562 1748.91 468.724C1748.93 466.641 1748.91 464.573 1748.92 462.524L1748.92 462.456L1748.95 462.395C1749.2 461.947 1749.46 461.501 1749.71 461.056C1752.61 455.992 1753.8 454.275 1758.05 446.438C1758.58 445.446 1757.54 446.836 1761.9 439.053C1762.51 437.972 1763.83 435.6 1765.4 432.805L1765.36 433.041C1764.18 427.168 1762.67 419.631 1762.11 416.81C1762.03 416.393 1761.96 416.044 1761.9 415.753L1762.11 415.993C1759.52 414.988 1761.82 415.796 1761.56 415.692C1750.49 411.39 1754.72 412.948 1749.2 410.701C1743.86 408.524 1745.03 409.315 1743.03 408.616L1743.15 408.621C1743.08 408.641 1743.02 408.66 1742.94 408.681C1740.61 409.35 1732.18 411.532 1730.11 412.06C1728.03 412.588 1730.6 411.849 1728.76 412.327C1716.55 415.5 1723.46 413.933 1719.46 415.066C1718.36 415.378 1717.28 415.678 1716.23 415.967L1716.34 415.908C1711.69 419.927 1707.53 423.347 1703.21 426.953C1701.77 428.21 1700.3 429.491 1698.8 430.826C1696.98 432.435 1698.5 431.162 1696.89 432.603C1693.35 435.774 1690.57 438.22 1687.57 440.888L1687.61 440.726C1688.77 443.724 1690.01 446.911 1691.62 450.93C1691.99 451.859 1693.31 455.075 1694.67 458.524L1694.72 458.639L1694.66 458.748C1693.62 460.685 1692.53 462.685 1691.59 464.33C1691.23 464.956 1692.15 463.123 1690.4 466.322C1689.61 467.765 1688.63 469.558 1687.57 471.501L1687.55 471.533C1685.32 473.494 1682.86 475.659 1680.59 477.661C1679.05 479.201 1677.61 480.655 1676.4 481.872C1673.36 484.943 1676.94 481.511 1673.07 485.34C1671.35 487.041 1674.47 483.824 1671.25 487.025C1670.16 488.102 1668.51 489.752 1666.68 491.584L1666.66 491.6C1662.25 494.097 1657 497.083 1654.47 498.521C1650.65 500.691 1652.78 499.575 1652.48 499.755C1650.63 500.842 1643.32 505.037 1642.67 505.405C1640.54 506.617 1638.42 507.822 1636.31 509.021L1636.22 509.071L1636.12 509.046C1602.44 500.469 1570.99 492.348 1537.87 483.965C1535.09 483.261 1536.92 483.815 1536.5 483.708C1526.97 481.321 1534.53 483.01 1527.9 481.245C1528.82 481.658 1524.9 480.629 1518.19 478.942C1514.96 478.129 1516.7 478.641 1516.4 478.573C1511.59 477.453 1508.28 476.476 1507.43 476.232C1504.28 475.329 1500.8 474.564 1498.66 473.95C1496.52 473.337 1501.51 474.506 1495.08 472.872C1493.26 472.473 1497.99 473.845 1493.1 472.628C1474.66 468.039 1440.31 459.168 1425.5 455.388C1410.73 451.615 1405.95 450.411 1397.34 448.198C1381.8 444.201 1387.47 445.768 1377.79 443.364C1368.09 440.953 1372.87 441.864 1371.5 441.448C1370.15 441.039 1368.64 440.722 1366.95 440.256C1365.26 439.791 1368.94 440.683 1364.96 439.656C1360.97 438.628 1350.04 435.963 1348.61 435.668C1345.58 435.044 1350.46 436.438 1339.92 433.702C1339.31 433.545 1341.3 433.971 1338.98 433.372C1320.54 428.617 1301.36 423.735 1282.93 418.993C1280.4 418.341 1282.69 418.833 1281.21 418.453C1265.86 414.49 1271.32 416.029 1262.86 414.043C1264.8 414.315 1260.17 413.002 1248.51 410.034C1241.5 408.249 1242.68 408.647 1238.13 407.558C1236.77 407.231 1231.82 405.907 1230.91 405.721C1227.91 405.107 1232.55 406.453 1220.54 403.331C1220.01 403.194 1221.71 403.545 1219.89 403.076C1208.11 400.048 1206.66 399.836 1193.92 396.613C1183.93 394.087 1166.2 389.48 1154.84 386.573C1155.13 386.399 1144.38 383.721 1139.99 382.775C1132.61 380.891 1124.64 378.873 1117.51 377.037C1115.06 376.405 1116.69 376.747 1116.38 376.661C1111.67 375.338 1108.42 374.68 1106.83 374.281C1089.55 369.95 1075.52 366.253 1059.02 362.179C1058.43 362.035 1057.44 361.957 1053.07 360.717C1052.79 360.637 1058.25 361.946 1050.5 359.969C1042.75 357.992 1028.16 354.188 1017.39 351.526C1014.78 350.882 1008.16 349.339 1002.9 347.891C1002.2 347.698 1002.98 347.847 1001.97 347.562C998.707 346.643 996.871 346.352 993.045 345.229C989.218 344.107 981.212 341.958 970.337 339.294C969.991 339.209 967.389 338.686 963.977 337.816C958.531 336.427 950.805 334.433 945.118 332.987C942.394 332.294 944.116 332.819 943.643 332.7C925.322 328.087 912.309 324.7 892.701 319.678C889.107 318.757 878.745 316.239 871.807 314.38C864.187 312.34 872.144 313.939 854.55 309.565C847.454 307.8 838.354 306.023 825.686 302.521C800.971 296.303 778.165 290.358 753.374 284.15C752.26 283.871 748.702 283.116 746.084 282.448C742.198 281.456 740.081 280.847 737.306 280.136C729.839 278.223 722.77 276.445 715.698 274.659C711.768 273.635 707.837 272.609 703.835 271.556C699.754 270.481 700.981 270.736 696.593 269.576L696.602 269.58C696.448 269.475 696.286 269.365 696.115 269.249C691.782 266.31 688.839 264.429 682.988 260.414C682.308 259.947 681.629 259.477 680.947 259.001C677.494 256.011 673.94 252.838 669.349 248.948C669.208 248.935 668.441 248.347 667.083 247.243L667.105 247.273C666.185 245.133 664.763 241.695 662.855 237.119C662.213 235.578 662.832 237.259 662.525 236.531C661.275 233.571 660.196 230.799 659.004 227.99C658.714 227.307 658.642 227.299 658.402 226.742C656.989 223.469 655.076 218.678 653.853 215.58L653.876 215.619C652.944 214.455 652.243 213.575 651.962 213.222C648.478 208.842 646.752 206.877 644.052 203.54C641.357 200.209 645.466 205.124 642.302 201.246C638.513 196.603 634.082 191.21 629.724 185.915L629.736 185.935C627.682 181.362 625.652 176.849 623.828 172.79C622.104 168.955 623.203 171.606 622.954 171.058C620.71 166.101 618.491 161.091 616.621 156.976C615.069 154.764 613.698 152.843 612.615 151.4C609.53 146.203 609.584 147.123 602.554 136.876C602 136.068 601.459 134.928 603.631 137.994C605.804 141.06 609.008 145.773 612.027 150.025C612.622 150.863 615.633 154.948 616.95 156.746L616.987 156.811C617.18 157.216 617.324 157.517 617.392 157.664C620.576 164.521 620.732 165.625 620.881 165.997C622.573 170.208 626.309 178.005 627.256 180.075C628.165 182.062 629.041 183.988 629.891 185.865L629.855 185.807C634.805 191.781 639.219 197.171 643.623 202.459C647.268 206.837 647.779 207.138 650.617 210.594C651.995 212.271 653.237 213.793 654.382 215.202L654.459 215.331C658.427 225.184 660.364 230.369 665.099 241.359C666.077 243.628 665.623 242.108 667.612 247.066L667.435 246.824C668.314 247.575 669.434 248.543 670.879 249.8C671.389 250.244 677.4 255.513 680.998 258.41C681.11 258.501 681.196 258.565 681.271 258.618L681.228 258.585C681.47 258.72 681.601 258.764 682.079 259.082C686.343 261.927 689.145 263.887 693.782 266.997C694.79 267.672 695.841 268.377 696.925 269.104L696.738 269.019C701.291 270.192 706.323 271.494 711.146 272.777C712.636 273.173 714.291 273.631 715.853 274.069C718.184 274.704 720.312 275.297 721.375 275.586C726.386 276.948 731.817 278.186 734.909 279.079C738.028 279.979 731.842 278.568 740.071 280.73C740.417 280.645 741.162 280.656 741.694 280.617C759.761 285.22 777.526 289.795 795.656 294.4C797.904 294.971 795.628 294.298 798.038 294.908C808.207 297.48 817.07 299.801 827.618 302.459C835.783 304.515 844.754 306.699 853.293 308.846C858.458 310.358 871.135 313.516 880.329 315.873C883.549 316.699 883.321 316.694 885.608 317.293C894.237 319.552 890.228 318.357 892.605 318.934C902.8 321.41 903.576 322.004 915.566 325.045C916.201 325.206 924.014 326.982 925.086 327.242C931.901 328.89 926.193 327.597 930.441 328.694C938.197 330.695 943.58 332.115 952.702 334.374C955.363 335.032 961.765 336.529 966.898 337.937C967.573 338.122 967.181 338.093 967.726 338.235C977.595 340.814 977.907 340.674 983.574 342.041C989.241 343.409 997.931 345.771 999.696 346.264C1004.31 347.552 996.125 345.404 995.87 345.35C992.883 344.722 999.253 346.32 1004.11 347.567C1004.76 347.949 1011.57 349.667 1009.15 348.86C1008.88 348.769 1005.09 347.825 1004.11 347.567C1008.43 348.455 1015.91 350.331 1024.12 352.616C1027.96 353.686 1024.28 352.858 1036.03 355.807C1041.36 357.146 1039.34 356.483 1044.05 357.641C1054.81 360.286 1068.73 363.967 1079.81 366.763C1083.83 367.778 1079.93 366.706 1082.68 367.397C1089.98 369.23 1096.39 370.923 1103.72 372.755C1104.38 372.921 1102.78 372.429 1105.06 373.007C1122.31 377.388 1137.33 381.262 1155.34 385.847C1164.05 388.062 1179.62 391.977 1188.64 394.28C1204.26 398.271 1223.46 403.279 1236.82 406.647C1245.53 408.845 1243.64 408.279 1247.39 409.174C1254.61 410.9 1267.31 414.331 1269.02 414.797C1269.07 414.812 1261.57 412.924 1265.56 413.982C1267.86 414.659 1268.93 414.776 1269.02 414.797C1270.14 415.103 1285.11 418.929 1288.08 419.67C1289.7 420.073 1288.81 419.767 1289.66 419.979C1309.69 425.003 1329.75 430.085 1350.04 435.285C1350.4 435.378 1349.84 435.325 1350.68 435.542C1362.42 438.569 1369.97 440.38 1379.68 442.785C1389.39 445.189 1397.07 447.165 1402.77 448.77C1410.08 450.612 1420.56 453.345 1426.59 454.92C1432.61 456.495 1433.5 456.544 1434.03 456.676C1450.62 460.787 1460.18 463.318 1477.36 467.706C1485.53 469.792 1501.75 473.892 1510.6 476.125C1517.6 477.889 1521.8 479 1528.25 480.614C1529.12 480.833 1528.26 480.535 1528.53 480.6C1535.74 482.342 1532.24 481.642 1533.72 482.052C1539.07 483.538 1542.38 484.446 1551.6 486.734C1553.73 487.262 1559.98 488.577 1563.86 489.547C1568.9 490.809 1566.97 490.418 1572.25 491.737C1572.7 491.85 1572.62 491.769 1575.87 492.599C1590.97 496.452 1607.43 500.673 1623.12 504.66C1625.27 505.205 1622.54 504.415 1625.64 505.201C1629.16 506.094 1632.77 507.009 1636.41 507.935L1635.74 508.024C1645.96 502.221 1656.5 496.244 1666.14 490.805C1666.15 490.795 1666.17 490.785 1666.19 490.776L1666 490.915C1668.49 488.438 1666.97 490.058 1667.53 489.523C1671 486.213 1675.68 481.281 1676.47 480.485C1677.64 479.305 1678.79 478.142 1679.93 476.994L1679.97 476.958C1682.34 474.861 1684.65 472.819 1686.91 470.816L1686.73 471.046C1689.11 466.664 1691.41 462.422 1693.69 458.225L1693.65 458.923C1691.34 452.966 1689.06 447.092 1686.72 441.07L1686.52 440.55L1686.94 440.18C1691.96 435.718 1697.1 431.136 1702.58 426.24L1702.59 426.229C1703.99 425.033 1705.4 423.818 1706.84 422.58C1707.6 421.928 1711.73 418.284 1715.56 414.998L1715.92 414.811C1718.28 414.172 1720.54 413.58 1722.16 413.197C1722.5 413.116 1727.41 411.962 1731.69 410.698C1731.95 410.619 1728.9 411.355 1734.19 409.939C1736.57 409.303 1739.6 408.48 1742.87 407.596L1743.14 407.523L1743.41 407.623C1747.3 409.094 1751.55 410.709 1755.41 412.228C1756.76 412.76 1759.23 413.767 1762.48 415.017L1762.85 415.158L1762.92 415.547C1763.35 417.727 1763.86 420.227 1764.45 422.938C1764.52 423.248 1765.69 428.351 1766.61 432.79L1766.67 433.127L1766.51 433.425C1765.49 435.263 1764.53 436.958 1763.87 438.011C1763.53 438.55 1763.67 437.866 1759.62 445.334C1758.84 446.761 1760.32 444.212 1758.26 447.959C1755.9 452.259 1752.9 457.573 1749.93 462.942L1750.04 462.524C1750.05 464.582 1750.06 466.644 1750.09 468.666C1750.1 470.07 1750.25 476.049 1750.14 480.845C1750.12 481.596 1750.05 480.169 1750.04 482.702C1750.02 490.326 1750.03 498.177 1750.03 506.015L1749.98 506.287C1748.52 510.576 1747.03 514.88 1745.53 519.111C1744.08 523.197 1744.71 521.069 1743.17 525.319C1741.43 529.524 1739.6 537.196 1736.14 542.344C1736.45 542.313 1736.39 542.272 1736.39 542.288C1736.38 542.294 1736.36 542.31 1736.34 542.332C1736.27 542.387 1736.24 542.417 1736.18 542.473C1733.01 545.831 1736.6 542.218 1731.9 547.476C1726.82 553.307 1721.81 559.237 1716.86 565.148L1716.68 565.31C1704.79 573.681 1692.91 582.012 1681.02 590.359L1680.89 590.432C1676.26 592.654 1671.62 594.877 1666.98 597.104L1667.46 596.341C1667.45 599.589 1667.45 602.84 1667.45 606.093C1667.45 610.035 1667.49 607.741 1667.51 611.395L1667.4 610.966C1667.67 611.467 1668.02 612.096 1668.45 612.893C1670.24 616.2 1672.24 619.871 1674.36 623.786L1674.47 624.219C1674.47 630.321 1674.48 636.944 1674.48 643.734L1674.41 644.079C1668.39 658.973 1662.01 674.73 1656.99 686.998L1656.7 687.717L1655.95 687.518C1652.11 686.49 1648.6 685.545 1645.54 684.714C1628.92 680.206 1649.89 685.663 1637.18 682.256C1631.05 680.613 1624.35 679.061 1622.87 678.676C1608.38 674.914 1598.34 672.164 1585.3 668.747C1582.61 668.041 1585.23 668.821 1582.94 668.22C1575.11 666.166 1566.9 663.956 1559.43 661.987C1556.07 661.104 1556.67 661.33 1553.59 660.51C1546.21 658.547 1539.69 656.794 1532.51 654.832C1531.85 654.654 1536.3 655.744 1530.84 654.298C1522 651.956 1511.04 648.997 1500.85 646.368C1497.83 645.588 1497.68 645.701 1491.22 643.887C1489.86 643.506 1491.64 643.792 1484.05 641.944C1482.77 641.633 1470.02 638.479 1463.83 636.702C1462.19 636.233 1458.04 634.982 1454.4 634.045C1453.91 633.919 1455.86 634.517 1452.85 633.73C1442.25 630.953 1431.14 628.009 1420.25 625.154C1417.34 624.392 1421.65 625.617 1417.31 624.479C1405.39 621.349 1390.52 617.395 1378.87 614.289C1374.58 613.144 1377.57 613.863 1377.26 613.773C1372.26 612.326 1369.25 611.699 1367.58 611.267C1357.19 608.579 1349.3 606.416 1339.73 603.907C1337.09 603.214 1338.95 603.785 1338.42 603.653C1332.95 602.278 1337.05 603.215 1333.6 602.288C1323.95 599.691 1313.18 596.849 1303.4 594.276C1299.81 593.33 1303.82 594.485 1300.6 593.635C1281.53 588.61 1261.72 583.361 1243.12 578.394C1239.62 577.458 1241.84 577.974 1241.12 577.765C1236.11 576.327 1228.7 574.524 1227 574.089C1219.27 572.113 1216.28 571.261 1209.47 569.471C1176.16 560.725 1135.07 549.818 1103.65 541.486C1062.71 530.629 1030.96 522.164 991.905 511.857C989.423 511.202 991.902 511.953 989.762 511.389C962.136 504.109 934.953 496.884 907.27 489.593C904.999 488.995 908.25 489.945 904.603 488.988C897.123 487.024 887.653 484.515 880.1 482.489C876.416 481.501 881.381 482.736 877.673 481.743C869.038 479.43 859.776 476.975 850.895 474.642C847.116 473.649 852.793 475.243 847.882 473.946C814.433 465.112 781.581 456.442 747.811 447.393C745.867 446.872 744.155 446.285 740.735 445.359L740.536 445.272C739.969 444.903 739.345 444.503 738.654 444.066C738.304 443.902 738.289 443.964 738.119 443.919C731.64 439.768 725.172 435.622 718.712 431.479C709.43 425.526 700.164 419.579 690.901 413.632L690.763 413.522C685.259 408.129 679.758 402.738 674.256 397.344L674.095 397.127C671.491 392.109 668.887 387.09 666.281 382.068L666.232 381.955C663.92 375.268 661.606 368.577 659.29 361.878L659.569 362.266C650.796 355.506 642.006 348.734 633.19 341.945C631.503 340.645 634.36 342.967 631.093 340.452C612.187 325.897 593.81 311.785 574.529 296.821C573.575 296.081 573.367 295.864 572.696 295.297L572.501 295.146L572.432 294.909C572.223 294.05 571.845 292.627 570.829 289.196C570.534 288.203 568.426 281.047 567.234 277.062L567.485 277.434C566.778 276.883 566.192 276.427 565.802 276.127C565.502 275.897 566.991 277.176 564.273 275.03C553.055 266.172 541.466 257 530.056 247.95L529.867 247.74C526.73 242.692 523.614 237.673 520.545 232.724C518.851 229.993 520.701 232.802 519.551 230.942L519.712 231.121C519.697 231.109 519.681 231.097 519.664 231.084C511.792 224.917 503.471 218.453 495.385 212.15L495.348 212.119C490.49 207.737 485.721 203.426 481.212 199.32C473.463 192.265 476.443 194.754 472.404 190.918C471.833 190.375 467.016 186.028 466.823 185.741C466.324 185.007 468.814 186.94 468.007 185.909C467.837 185.691 461.347 179.91 465.247 183.269C465.52 183.503 470.225 187.693 471.404 188.703C472.225 189.406 470.836 188.039 472.497 189.489C474.158 190.938 475.909 192.613 478.651 195.03C481.392 197.445 480.264 196.297 485.69 201.173ZM1453.72 462.01C1459.29 463.511 1460.19 463.431 1454.13 461.962C1453.84 461.892 1453.44 461.933 1453.72 462.01ZM777.369 289.988C784.644 291.975 789.693 293.059 784.562 291.649C779.433 290.239 775.152 289.383 777.369 289.988ZM701.592 270.696C710.091 273.033 711.54 272.975 702.388 270.662C701.856 270.528 701.096 270.559 701.592 270.696ZM491.611 208.178C491.555 208.122 488.093 204.996 488.008 204.924C486.099 203.332 493.021 209.583 491.611 208.178ZM653.414 214.641C653.598 214.874 653.821 215.152 654.07 215.46L654.085 215.485C655.302 218.528 657.626 224.036 656.527 221.19C656.008 219.846 654.92 217.203 654.177 215.447L654.147 215.396C653.029 214.068 652.402 213.359 653.414 214.641ZM1698.52 430.878C1698.59 430.821 1701.09 428.6 1701.02 428.626C1700.8 428.716 1697.34 431.829 1698.52 430.878ZM575.848 109.577C590.072 122.895 598.464 131.218 582.989 116.699C580.187 114.07 589.116 122.273 585.564 118.91C579.066 112.757 574.574 108.86 567.983 102.538C566.79 101.393 575.037 108.817 575.874 109.601C575.865 109.593 575.857 109.585 575.848 109.577ZM1456.86 463.177C1456.97 463.209 1461.45 464.354 1461.56 464.378C1464.01 464.904 1454.98 462.597 1456.86 463.177ZM1739.59 532.89C1739.53 533.007 1737.4 539.029 1736.14 541.544C1736 541.559 1735.94 541.631 1735.89 541.659C1735.85 541.695 1735.77 541.757 1735.74 541.785C1735.66 541.853 1735.54 541.963 1735.48 542.021C1735.33 542.165 1735.18 542.314 1735.08 542.422C1734.84 542.668 1734.72 542.799 1734.68 542.835C1733.41 544.347 1734.23 543.221 1736.14 541.658C1738.18 537.788 1740.71 529.962 1739.59 532.89ZM1154.66 386.522C1149.74 385.369 1143.88 383.89 1140.01 382.781C1144.87 384.025 1149.77 385.271 1154.66 386.522Z" fill="black"/>
</svg>
