<svg width="1920" height="1080" viewBox="0 0 1920 1080" fill="none" xmlns="http://www.w3.org/2000/svg">
<path d="M143.794 673.965C132.021 676.159 116.556 678.852 104.793 680.848C101.107 681.474 102.942 680.983 100.396 681.408C98.4829 681.727 96.6235 682.058 94.7796 682.39L95.512 682.142C92.845 683.521 90.2174 684.891 87.4672 686.26C85.9867 686.996 87.6997 685.828 86.1499 686.605C77.6581 690.864 69.7024 695.044 61.1273 699.411C59.9488 700.011 58.7709 700.611 57.5936 701.211L58.7548 699.305C58.6996 709.559 58.6521 719.779 58.6104 729.985L57.7783 728.361C70.3143 737.462 82.8344 746.534 95.3979 755.629L96.1622 756.176L96.1648 757.126C96.139 766.347 96.1155 775.585 96.0929 784.857C96.0662 795.845 96.0407 806.88 96.0141 817.989C96.0057 821.547 95.9875 825.277 95.9657 829.108L95.9307 829.446C93.1506 842.354 90.0813 856.426 87.5613 868.839C87.1819 870.708 87.6314 869.64 87.5749 869.999C86.6813 875.628 86.6323 873.684 85.8125 877.309C83.5519 887.311 81.2288 898.114 79.0732 908.445L79.0024 907.665C80.7558 911.951 82.485 916.144 84.1457 920.142C86.4628 925.72 84.5804 919.947 86.6509 925.671C86.7951 926.068 85.9985 924.738 86.6014 926.281C87.969 929.78 90.7016 936.361 91.7848 939.063C93.8711 944.272 94.2242 945.13 96.2276 950.044C98.9644 956.762 102.118 964.795 105.109 971.98C105.748 973.514 105.14 971.387 106.179 973.824C106.898 975.51 108.378 979.138 109.502 981.948L109.606 982.376C109.72 983.723 109.813 984.894 109.862 985.622C110.022 987.984 109.741 986.998 109.736 987.419C109.687 990.882 110.932 998.917 111.04 999.955C111.852 1007.83 112.534 1015.25 113.171 1022.51L112.46 1021.42C121.415 1026.37 130.061 1031.22 139.216 1036.23C142.792 1038.19 146.446 1040.18 150.115 1042.18L149.508 1042.02C152.882 1042.01 156.266 1042 159.625 1041.99L159.479 1042C165.759 1041.27 171.948 1040.55 177.809 1039.89C182.287 1039.39 186.567 1038.92 190.753 1038.46L189.797 1039.07C192.617 1034.49 195.361 1030.05 198.133 1025.54L198.086 1026.73C195.978 1022.52 193.839 1018.27 191.59 1013.83C190.876 1012.43 191.457 1014.21 190.586 1012.49C185.618 1002.7 180.684 992.942 175.786 983.178C171.603 974.705 167.45 966.236 163.323 957.742C162.43 955.904 163.825 958.15 162.947 956.308C162.777 955.951 162.603 955.588 162.427 955.218L162.325 954.782C162.538 942.254 162.965 923.483 161.918 916.296C161.96 907.83 162.003 897.553 162.221 889.98C162.222 889.946 162.223 889.913 162.224 889.88L162.291 889.506C164.058 885.129 162.702 889.57 164.657 883.943C165.102 882.665 164.27 884.233 164.953 882.323C167.83 874.28 171.135 865.552 173.947 857.583C174.518 855.961 174.156 856.328 174.289 855.858C175.416 851.911 178.256 845.697 178.806 844.317C182.983 833.802 185.742 826.016 189.398 816.134C190.246 813.841 188.977 816.454 189.784 814.244C191.538 809.445 193.328 804.579 195.13 799.723L195.268 799.448C199.207 793.432 203.163 787.439 207.019 781.662C208.495 779.452 207.364 781.632 208.079 780.582C211.233 775.954 211.527 774.663 214.544 770.219C215.18 769.282 215.006 769.93 215.138 769.769C217.204 767.258 218.313 764.628 218.758 763.925C224.375 755.033 228.493 749.692 233.981 741.141C234.637 740.118 232.919 742.27 234.777 739.402C239.672 731.846 244.698 724.129 249.758 716.401L249.891 716.235C259.731 706.155 269.747 696.056 279.418 686.467C281.908 684 280.288 685.916 280.459 685.778C283.261 683.491 284.543 681.479 285.329 680.662C291.588 674.173 297.875 668.523 301.821 663.81C306.252 659.583 310.498 655.242 315.389 651.273C337.934 629.185 358.622 604.477 380.077 581.128C380.395 580.776 380.019 581.583 380.657 580.876C382.456 578.881 383.741 577.425 384.681 576.326L384.659 576.354C387.601 572.31 387.339 572.073 390.943 567.318C392.095 565.724 396.748 561.936 397.245 561.702C398.838 560.605 397.523 562.153 398.042 561.771C400.174 560.261 400.961 559.517 402.397 558.993C403.665 558.566 405.126 558.037 408.639 557.487C408.861 557.454 407.966 557.825 408.563 557.755C410.403 557.537 412.178 557.159 413.972 556.946C418.074 556.457 419.616 556.812 425.775 555.42C426.554 555.242 425.24 554.756 431.458 553.732C432.98 553.482 437.71 552.672 441.823 551.967L441.207 552.324C442.895 550.297 444.435 548.455 445.217 547.539C447.241 545.17 446.049 546.961 446.199 546.796C451.787 540.526 449.851 543.055 452.876 540.101C455.899 537.146 454.346 537.372 455.35 535.978C456.356 534.581 460.474 530.002 461.505 528.893C462.536 527.784 461.443 529.327 462.339 528.323C468.272 521.666 464.434 524.979 466.18 522.613C470.295 517.032 474.337 513.379 478.442 508.55C479.553 507.243 478.523 508.207 479.485 507.021C483.297 502.325 485.806 499.681 490.027 494.243C490.717 493.353 493.907 488.772 496.47 486.221C496.834 485.86 496.059 487.099 497.738 485.143C500.246 482.221 504.707 476.908 507.3 473.681C509.213 471.298 506.731 473.79 509.263 470.893C510.388 469.605 508.51 472.164 510.612 469.735C512.704 467.319 517.912 461.027 519.891 458.631C521.866 456.239 520.595 457.391 520.743 457.187C521.639 455.96 525.35 451.302 525.686 450.897C530.803 444.713 535.83 438.701 540.807 432.769L540.814 432.761C549.533 422.691 558.099 412.857 566.723 402.802L566.67 402.877C568.91 398.956 571.152 395.009 573.4 391.016C574.395 389.249 573.504 390.296 573.653 390.025C576.998 383.941 574.879 389.033 577.478 384.933C576.68 385.285 578.179 382.844 580.551 378.567C581.693 376.506 580.883 377.522 580.971 377.325C582.436 374.137 583.984 372.219 584.365 371.714C585.769 369.851 586.711 367.489 587.663 366.219C588.614 364.949 587.074 368.241 589.393 364.165C589.882 362.93 587.736 365.714 589.43 362.582C591.622 358.529 594.561 353.328 597.694 347.864L597.744 347.787C604.937 338.133 612.939 327.51 617.138 321.794C623.519 313.104 625.533 310.249 629.247 305.199C635.943 296.042 633.234 299.22 637.158 293.352C641.021 287.486 639.821 290.763 640.547 290.049C641.256 289.347 641.706 288.332 642.483 287.34C643.222 286.394 641.898 288.682 643.506 286.258C643.857 285.698 644.32 285.019 644.72 284.076C646.155 281.02 648.899 276.577 649.179 275.803C650.001 273.773 647.665 276.503 652.04 270.146C652.29 269.785 651.698 271.102 652.643 269.717C660.249 258.59 668.154 247.048 675.908 236.047C676.969 234.544 676.247 236.052 676.875 235.168C682.248 227.613 681.39 228.383 682.66 225.888L682.763 225.739L682.946 225.721C683.523 225.589 684.273 225.436 685.327 225.253C684.013 226.025 687.433 226.106 695.903 225.324C700.996 224.854 700.093 224.654 703.368 224.15C704.35 223.999 707.971 223.858 708.612 223.665C710.724 223.032 707.286 222.863 716.037 222.246C716.421 222.219 715.223 222.569 716.548 222.461C725.115 221.761 726.097 221.214 735.342 220.301C742.589 219.585 755.51 218.665 763.771 217.944C763.664 218.685 771.447 217.796 774.564 217.003C779.924 216.526 785.709 215.961 790.894 215.55C792.678 215.408 791.527 215.727 791.754 215.729C795.233 215.764 797.518 215.062 798.672 214.936C811.19 213.588 821.437 213.009 833.366 211.54C833.789 211.488 834.43 210.921 837.662 210.991C837.872 210.998 833.942 211.593 839.571 211.089C845.201 210.585 855.836 209.87 863.628 208.912C865.513 208.681 870.258 207.829 874.126 207.792C874.642 207.788 874.096 207.984 874.841 207.996C877.251 208.031 878.507 207.401 881.352 207.573C884.197 207.745 890.061 207.528 897.913 206.499C898.163 206.467 899.991 205.89 902.47 205.667C906.427 205.311 912.05 204.874 916.181 204.488C918.158 204.303 916.869 204.17 917.212 204.134C930.497 202.76 939.982 202.106 954.236 200.881C956.849 200.657 964.322 199.62 969.403 199.421C974.981 199.202 969.391 200.96 982.123 199.483C987.259 198.889 993.63 196.725 1002.95 196.676C1020.87 194.812 1037.5 193.687 1055.46 191.733C1056.27 191.645 1058.78 190.973 1060.69 190.802C1063.51 190.55 1065.08 190.61 1067.09 190.436C1075.55 189.714 1083.26 188.823 1091.41 188.095C1094.5 187.818 1093.44 188.128 1097.13 187.798C1100.81 187.468 1103.24 186.963 1108.25 186.634C1112.03 186.386 1115.86 186.602 1120.87 186.204C1121.01 185.628 1124.45 185.32 1130.55 184.606C1131.72 184.468 1130.44 184.391 1130.99 184.316C1133.25 184.006 1135.35 183.973 1137.49 183.665C1138.01 183.59 1138.02 183.397 1138.44 183.325C1141.08 182.873 1145.01 182.685 1147.33 182.608L1147.02 182.789C1147.55 182.122 1147.96 181.629 1148.14 181.414C1150.65 178.349 1151.51 176.696 1153.36 174.283C1155.2 171.874 1152.7 175.653 1154.79 172.804C1159.14 166.896 1164.55 159.183 1168.86 153.106C1170.58 150.68 1169.2 152.188 1169.44 151.838C1172.93 146.782 1176.74 141.864 1178.29 138.788C1178.35 138.743 1178.41 138.7 1178.46 138.656L1178.47 138.645C1181.94 136.254 1180.61 135.689 1186.23 129.12C1186.68 128.594 1187.71 128.299 1186.12 130.426C1184.53 132.553 1181.85 135.569 1179.65 138.53C1179.56 138.657 1179.39 138.9 1179.18 139.218L1179.21 139.184C1178.35 140.675 1176.68 143.724 1176.38 144.197C1173.52 148.72 1172.33 148.801 1172.12 149.003C1169.82 151.302 1166.81 156.654 1165.92 157.993C1161.83 164.119 1158.12 169.15 1154.68 174.259C1152.43 177.6 1152.7 178.273 1150.86 180.845C1150.06 181.963 1149.32 182.978 1148.62 183.917L1148.21 184.491L1147.52 184.553C1139.76 185.074 1135.83 184.878 1127.31 186.311C1125.21 186.664 1127.38 187.132 1119.75 187.314C1119.27 187.325 1113.6 187.369 1110.38 187.973C1109.98 188.049 1110.01 188.241 1109.47 188.307C1105.87 188.746 1103.45 188.816 1099.53 189.254C1095.61 189.692 1090.89 190.24 1086.4 190.591C1083.69 190.802 1080.19 190.764 1078.88 190.796C1075.21 190.881 1071.33 191.661 1069.03 191.563C1066.72 191.466 1071.14 190.582 1065.14 190.938C1064.96 191.461 1064.5 192.024 1064.19 192.562C1051.06 193.761 1038.14 194.796 1024.98 196.039C1023.34 196.194 1025.04 196.309 1023.29 196.482C1015.91 197.21 1009.44 197.615 1001.8 198.402C995.874 199.012 989.402 199.9 983.212 200.547C979.374 200.324 970.197 201.372 963.512 201.939C961.17 202.137 961.312 201.969 959.644 202.074C953.349 202.471 956.338 202.706 954.624 202.945C947.272 203.971 946.533 202.88 937.83 203.716C937.369 203.76 931.788 204.896 931.015 205.006C926.104 205.712 930.178 204.868 927.086 205.11C921.441 205.55 917.51 205.767 910.912 206.56C908.988 206.792 904.397 207.603 900.624 207.655C900.128 207.662 900.381 207.434 899.983 207.459C892.786 207.927 892.656 208.581 888.574 209.177C884.491 209.773 878.113 209.921 876.812 209.914C873.408 209.9 879.384 209.535 879.564 209.485C881.675 208.904 877.059 209.398 873.525 209.694C872.956 209.117 868.021 209.613 869.861 210.002C870.07 210.044 872.813 209.731 873.525 209.694C870.482 210.593 865.062 211.175 859.014 211.159C856.183 211.151 858.807 210.592 850.293 211.497C846.429 211.908 847.964 212.199 844.561 212.633C836.786 213.623 826.614 214.162 818.579 214.971C815.662 215.265 818.527 215.236 816.535 215.445C811.248 216 806.563 216.256 801.256 216.84C800.775 216.893 801.975 217.03 800.322 217.187C787.793 218.377 776.866 219.232 763.781 220.441C757.459 221.025 746.169 222.209 739.617 222.789C728.263 223.796 714.266 224.733 704.578 225.72C698.259 226.362 699.669 226.479 696.975 226.899C692.949 227.526 686.46 227.833 683.153 227.951L684.502 227.163C683.925 227.9 683.483 228.459 683.301 228.685C683.291 228.698 683.883 227.821 684.372 227.074L683.138 227.795C684.326 227.654 685.337 227.51 683.694 227.591C683.487 227.578 683.296 227.574 683.118 227.577L684.193 226.95C683.397 227.93 683.33 228.641 683.301 228.685C682.78 229.329 676.547 238.269 675.358 240.091C674.71 241.081 675.274 240.673 674.937 241.181C666.868 253.337 658.636 265.445 650.5 277.761C650.357 277.974 650.344 277.509 650.013 278.008C648.424 280.425 646.814 282.925 646.055 284.596C643.611 289.268 641.555 292.118 638.992 296.101C635.076 302.012 631.739 306.532 628.929 309.666C625.851 314.038 621.19 320.112 618.494 323.601C615.799 327.088 615.844 327.887 615.624 328.205C609.771 336.666 605.693 341.915 600.002 349.459L600.135 349.255C599.307 350.679 598.438 352.179 597.513 353.789C594.542 358.956 588.752 369.264 585.605 374.899C583.119 379.352 581.494 381.962 579.233 386.083C578.927 386.641 579.442 386.195 579.354 386.368C576.993 391.059 577.759 388.594 577.136 389.486C574.879 392.718 573.511 394.731 570.333 400.65C569.982 401.303 569.447 402.631 568.835 404.111L568.616 404.422C567.656 405.881 566.574 407.498 565.635 408.633C563.292 411.461 563.975 410.222 561.528 413.188C561.319 413.442 561.498 413.505 559.949 415.302C554.578 421.538 548.817 428.171 543.149 434.759L543.172 434.73C541.29 436.988 539.417 439.241 537.574 441.47C536.577 442.675 538.073 441.311 536.636 443.054C529.895 451.234 522.471 460.17 515.777 468.035C514.129 469.97 514.995 468.618 514.598 469.005C512.164 471.388 509.492 475.412 508.994 476.029C497.113 490.739 487.519 501.581 475.387 516.554C474.727 517.37 469.996 523.936 467.333 526.408C467.152 526.578 464.506 529.013 462.747 531.649C462.638 531.813 464.247 530.262 461.754 533.229C459.26 536.196 455.406 541.103 451.795 545.029C450.652 546.273 447.737 549.034 444.821 553.151C444.769 553.225 444.414 553.762 443.879 554.54L443.298 555.237L442.416 555.388C439.977 556.043 435.438 557.168 433.37 557.079C432.914 557.056 433.268 556.357 427.398 557.681C426.277 557.934 428.356 557.727 425.387 558.317C420.839 559.22 414.75 560.069 409.153 561.237C408.379 561.39 405.723 562.12 402.765 562.434C402.759 562.405 402.246 562.534 401.764 562.739C401.386 562.913 401.972 562.266 400.725 563.064C395.723 566.715 391.132 572.583 387.009 578.055L386.862 578.24C385.821 579.41 384.701 580.658 383.638 581.825C381.544 584.126 382.376 582.665 380.161 585.039C377.995 587.359 373.658 592.132 371.562 594.731C369.45 597.347 372.289 594.969 368.997 598.742C354.648 615.131 340.118 631.04 325.044 646.842C322.749 649.197 324.87 647.333 321.424 650.805C320.316 651.881 319.233 653.033 317.579 654.307C304.845 665.495 286.214 685.031 276.233 694.485C267.46 702.917 278.021 691.835 271.402 698.365C268.209 701.518 265.263 705.428 264.518 706.217C259.979 711.032 256.168 714.848 252.393 718.667L252.681 718.308C250.888 721.008 249.09 723.73 247.168 726.734C246.109 728.392 247.378 726.916 246.473 728.325C243.386 733.139 240.007 738.11 237.039 742.698C235.708 744.757 236.119 744.486 234.874 746.367C231.896 750.869 229.22 754.821 226.191 759.128C225.915 759.521 227.478 756.679 225.288 760.019C221.746 765.424 217.211 772.045 213.305 778.375C212.147 780.253 212.474 780.571 209.624 784.374C209.027 785.172 209.27 783.815 206.641 788.696C206.198 789.516 201.652 797.631 198.826 801.225C198.745 801.328 198.648 801.448 198.539 801.582L198.793 801.075C198.164 802.344 196.91 804.752 196.149 806.991C196.035 807.332 196.76 806.064 196.02 808.134C193.41 815.43 190.573 823.039 187.887 830.532C187.17 832.534 188.5 829.65 187.424 832.63C184.466 840.824 180.639 851.007 177.615 858.972C176.5 861.908 177.058 859.8 176.958 860.007C175.343 863.328 175.052 865.537 174.657 866.691C172.19 873.868 169.972 879.207 167.608 885.788C166.954 887.604 167.649 886.402 167.535 886.769C166.347 890.578 166.98 887.647 166.063 889.997C165.96 890.259 165.858 890.521 165.756 890.785L165.917 889.88C165.802 896.724 165.821 904.258 165.85 911.119C165.861 913.743 166.133 910.794 166.14 913.149C166.187 926.951 166.162 941.295 166.015 954.782L165.732 953.574C165.79 953.694 165.848 953.814 165.906 953.934C167.021 956.24 166.115 954.891 166.31 955.39C167.649 958.834 170.46 963.458 171.052 964.549C173.743 969.512 174.553 971.557 176.803 976.002C177.686 977.744 178.583 979.52 179.491 981.324L179.484 981.308C186.559 995.128 194.348 1010.59 201.567 1024.97L202.24 1026.3L201.464 1027.57C198.597 1032.24 195.802 1036.79 193.143 1041.11L192.466 1042.22L191.194 1042.36C188.959 1042.6 186.774 1042.84 184.651 1043.08C175.931 1044.03 167.783 1044.92 159.907 1045.77L159.625 1045.79C156.21 1045.77 152.845 1045.76 149.508 1045.74L148.327 1045.44C135.912 1038.57 123.91 1031.94 110.664 1024.7L109.56 1024.09L109.449 1022.85C109.336 1021.63 109.221 1020.39 109.105 1019.15C108.936 1017.34 108.825 1019.19 108.676 1017.63C107.566 1005.95 106.524 994.364 105.468 982.756L105.654 983.519C102.485 975.741 99.3044 967.953 96.07 960.12C95.4367 958.585 96.0965 960.901 95.0718 958.441C92.9682 953.395 90.364 946.979 88.3529 941.83C87.3716 939.318 88.9485 942.58 87.9564 940.054C85.6468 934.172 83.1041 927.895 80.6116 921.902C79.5503 919.352 80.8751 923.312 79.5152 919.99C78.0456 916.402 76.5797 912.824 75.1173 909.251L74.7857 908.433L74.9659 907.585C79.1456 887.532 83.32 867.664 87.8703 847.373C88.2411 845.719 89.0839 844.377 89.719 840.83C89.6252 840.533 89.4466 840.511 89.3112 840.361C90.125 836.427 90.9413 832.498 91.7598 828.572L91.7042 829.108C91.6915 814.331 91.7184 799.6 91.7532 784.857C91.775 775.623 91.7999 766.385 91.8202 757.126L92.86 759.156C86.7918 754.768 80.7115 750.376 74.6102 745.977C73.3893 745.097 75.3304 746.853 72.9657 745.15C66.9331 740.806 60.9679 736.531 54.998 732.224L53.8469 731.391L53.8509 729.985C53.8608 720.646 53.907 711.272 54.0689 701.624C54.0869 700.534 54.3015 700.494 54.4348 699.305L54.4386 697.974L55.6118 697.372C56.2486 697.129 57.2047 696.691 58.818 695.826C59.602 695.406 66.3212 691.86 68.0155 690.86C68.2449 690.722 66.9036 691.146 69.0756 690.016C76.9566 685.922 85.09 681.737 93.1757 677.617L93.8793 677.378C99.2606 676.441 104.618 675.521 109.88 674.632C112.141 674.25 109.783 674.933 111.393 674.663C122.815 672.749 135.179 670.331 146.111 668.603C153.429 667.447 150.808 668.365 154.758 668.096C155.317 668.057 159.833 667.256 160.111 667.462C160.823 667.979 158.759 669.055 159.775 669.559C159.991 669.668 166.009 668.428 162.491 669.417C162.246 669.485 157.883 670.387 156.824 670.699C156.087 670.915 157.487 670.924 155.972 671.304C154.457 671.683 152.734 671.774 150.214 672.353C147.695 672.933 148.864 673.019 143.794 673.965ZM606.326 339.285C603.711 342.42 604.072 343.442 606.518 339.761C606.635 339.583 606.46 339.122 606.326 339.285ZM1038.15 194.115C1032.81 194.214 1029.23 195.13 1033 195.087C1036.77 195.044 1039.78 194.085 1038.15 194.115ZM1093.16 188.723C1086.93 188.988 1086.07 190.345 1092.69 189.473C1093.07 189.423 1093.52 188.708 1093.16 188.723ZM136.815 671.444C136.872 671.446 140.119 670.874 140.195 670.849C141.872 670.258 135.379 671.401 136.815 671.444ZM1147.85 182.957C1147.78 183.036 1147.71 183.125 1147.63 183.22L1147.55 183.339L1147.4 183.352C1145.22 183.427 1140.36 184.067 1142.66 184.058C1143.79 184.053 1146.13 183.812 1147.43 183.611L1147.69 183.587L1147.84 183.371C1148.35 182.557 1148.51 182.176 1147.85 182.957ZM478.889 508.698C478.837 508.739 477.319 510.55 477.408 510.562C477.697 510.594 479.744 508.018 478.889 508.698ZM1203.58 108.314C1194.91 119.015 1188.86 124.862 1198.35 113.251C1200.07 111.148 1194.94 118.021 1197.18 115.387C1200.17 111.877 1202.11 108.968 1204.61 105.79C1205.54 104.603 1206.55 103.38 1207.73 102.073C1208.24 101.499 1206.49 104.137 1205.09 106.178C1204.37 107.228 1203.74 108.12 1203.57 108.334C1203.57 108.327 1203.58 108.32 1203.58 108.314ZM604.066 340.535C604.004 340.6 602.057 343.22 602.016 343.294C601.192 344.89 605.127 339.596 604.066 340.535ZM374.471 587.851C374.312 587.996 369.291 593.632 369.131 593.845C366.853 597.12 377.069 585.656 374.471 587.851ZM763.902 217.952C767.431 217.337 771.681 216.909 774.548 217.004C771.013 217.313 767.456 217.64 763.902 217.952Z" fill="black"/>
<path d="M166.13 668.488C167.726 668.458 169.518 668.452 171.35 668.464L169.388 669.196C171.518 667.371 173.746 665.515 175.631 663.973C176.607 663.173 176.228 663.712 176.907 663.165C177.183 662.943 177.452 662.718 177.716 662.494L177.368 662.861C178.186 661.83 178.938 660.804 179.802 659.788C180.164 659.364 179.937 660.066 180.312 659.617C182.367 657.157 184.178 654.725 186.213 652.196C189.242 648.432 192.244 644.678 195.235 640.921L195.019 641.269C198.303 634.702 201.562 628.134 204.843 621.508L204.98 621.274C207.149 618.186 209.326 615.083 211.519 611.959C213.897 608.571 216.764 604.679 219.355 600.962L219.447 600.842C220.3 599.847 221.13 598.865 221.914 597.909C222.323 597.412 221.905 597.56 221.971 597.455C223.004 595.813 222.93 596.588 223.788 595.672C227.193 592.037 230.797 587.838 233.837 584.138C234.079 583.844 234.217 583.649 234.293 583.518L234.368 583.436C234.741 582.89 233.828 583.448 235.147 582.407C235.259 582.318 235.061 582.85 235.473 582.472C236.407 581.614 238.073 579.881 238.779 579.198C240.141 577.883 240.36 577.66 241.625 576.393C243.355 574.663 245.492 572.683 247.306 570.786C247.693 570.38 246.999 570.736 247.601 570.074C248.033 569.598 249.022 568.608 249.769 567.892L249.726 567.938C250.008 567.644 250.254 567.394 250.418 567.239C250.999 566.689 250.909 567.067 251.036 566.992C252.091 566.382 253.565 564.02 253.793 563.752C255.724 561.496 257.602 559.457 259.466 557.477L259.106 558.402C259.121 557.363 259.139 556.332 259.158 555.301C259.196 553.192 259.233 551.082 259.233 548.905C259.233 548.15 259.23 547.386 259.226 546.618L259.222 546.153L259.542 545.787C262.109 542.865 264.726 539.824 267.15 537.114C268.522 535.58 269.826 534.151 271.107 532.749L270.936 532.995C272.331 530.467 273.69 528.012 275.111 525.325C275.359 524.855 274.816 525.271 275.119 524.697C277.293 520.582 279.482 516.5 281.721 512.447L281.919 512.165C283.435 510.52 284.961 508.885 286.5 507.259C286.975 506.759 286.567 507.586 287.052 507.096C289.344 504.774 292.742 501.474 294.566 498.9L294.424 499.117C294.713 498.237 294.891 497.458 294.906 496.839C296.14 494.264 297.631 491.134 298.898 488.905C299.52 487.812 299.423 488.457 299.668 487.998L299.733 487.884C299.834 487.755 299.987 487.524 300.24 487.11C300.478 486.72 299.946 487.073 300.318 486.498C301.885 484.079 303.739 481.534 305.259 479.12C305.568 478.629 305.303 478.638 305.365 478.481C305.896 477.17 307.624 475.571 307.939 475.18C310.337 472.2 311.832 469.846 313.859 466.927C314.33 466.249 313.54 466.889 313.985 466.231C314.633 465.274 315.291 464.311 315.957 463.348L316.002 463.285C317.843 460.918 319.727 458.558 321.579 456.326C322.152 455.637 321.837 456.437 322.121 456.115C323.37 454.693 323.265 454.08 324.455 452.711C324.706 452.422 324.738 452.72 324.799 452.679C325.751 452.039 325.932 450.979 326.095 450.751C328.115 447.91 329.897 446.447 331.896 443.792L331.843 443.868C331.875 443.814 331.906 443.76 331.938 443.706C332.143 443.35 331.438 444.004 332.027 443.013C335.949 436.413 340.226 429.509 344.35 423.122C344.991 422.129 344.722 422.952 344.782 422.902C345.736 422.063 345.707 421.128 345.89 420.789C346.339 419.968 346.824 419.191 347.296 418.448L347.333 418.392C348.534 416.815 349.657 415.405 350.16 414.002C353.284 409.866 356.33 405.685 359.374 401.514L359.302 401.629C361.879 396.865 364.456 392.113 367.129 387.422L367.149 387.386C368.346 385.493 369.559 383.611 370.795 381.744C370.884 381.608 370.95 381.987 371.126 381.715C373.259 378.448 372.538 378.888 373.46 376.431C373.693 375.813 375.207 374.417 375.333 374.288C375.796 373.823 375.775 374.582 375.911 374.415C377.025 373.024 375.817 372.633 377.046 370.592C377.086 370.529 377.12 370.914 377.242 370.755C377.624 370.259 377.864 369.685 378.245 369.205C378.524 368.853 378.794 368.602 379.056 368.358C379.613 367.839 380.142 367.35 380.682 365.989C380.781 365.735 379.968 365.726 381.092 363.92C381.54 363.2 383.462 359.976 384.043 359.097C384.623 358.22 384.445 358.955 384.492 358.896C386.044 356.838 385.825 357.449 386.593 356.85C386.677 356.8 386.776 356.735 386.891 356.654C388.104 355.797 387.03 355.469 387.289 354.939C387.548 354.408 389.007 352.911 389.386 352.558C389.764 352.206 389.491 352.798 389.805 352.468C391.886 350.275 390.194 351.103 390.664 350.215C391.771 348.122 393.496 347.153 394.858 345.503C395.226 345.056 394.798 345.323 395.098 344.904C395.837 343.875 396.48 343.167 397.156 342.304L397.281 342.194C397.862 341.861 398.476 341.48 399.193 340.962C399.502 340.739 400.882 339.385 402.104 339.067C402.277 339.022 401.954 339.437 402.726 339.035C403.879 338.434 405.919 337.286 407.09 336.524C407.955 335.96 406.774 336.282 407.943 335.711C408.463 335.458 407.636 336.16 408.605 335.671C409.378 335.28 411.06 334.299 412.159 333.65L412.111 333.686C412.34 333.472 412.54 333.285 412.69 333.144C413.453 332.427 412.868 332.638 412.918 332.569C413.23 332.152 414.622 330.7 414.752 330.579C419.708 325.948 424.541 321.774 429.332 317.4C430.887 316.017 432.433 314.619 433.977 313.178C434.478 312.712 433.968 312.828 434.043 312.755C435.708 311.105 434.795 312.848 436.161 311.92C435.637 311.693 436.417 311.116 437.602 309.967C438.173 309.414 437.717 309.555 437.757 309.491C438.427 308.474 439.3 308.216 439.511 308.134C439.549 308.119 439.587 308.103 439.623 308.086L439.54 308.184C440.137 307.68 440.312 306.848 440.747 306.528C441.202 306.192 440.779 307.374 441.64 306.048C441.727 305.575 440.678 306.292 441.269 305.244C443.489 301.301 448.406 294.463 450.445 291.417L450.414 291.471C450.42 291.459 450.426 291.447 450.432 291.436C452.092 288.2 452.586 287.134 453.593 285.269C455.412 281.899 454.462 282.993 455.376 280.793C456.294 278.587 456.57 280.02 456.894 279.799C457.215 279.583 457.203 279.167 457.484 278.839C457.764 278.513 457.477 279.379 457.95 278.519C458.361 277.771 459.091 275.748 459.26 274.967C459.29 274.85 459.305 274.76 459.304 274.708C459.281 273.86 458.316 274.713 459.686 272.502C459.765 272.375 459.741 272.912 460.033 272.42C462.347 268.508 464.597 264.361 466.89 260.444C467.205 259.906 467.169 260.52 467.355 260.208C467.504 259.958 467.636 259.734 467.752 259.531L467.762 259.509C468.747 256.877 468.033 257.694 468.234 255.739C468.693 256.39 469.442 255.437 470.383 252.726C470.949 251.097 470.585 251.285 470.761 250.165C470.814 249.829 471.396 248.739 471.343 248.487C471.17 247.656 470.335 248.583 471.485 245.85C471.536 245.731 471.626 246.199 471.786 245.78C472.822 243.071 472.506 242.595 473.478 239.615C474.24 237.279 475.929 233.241 476.886 230.613C477.192 230.747 477.506 230.285 477.744 229.631L477.749 229.619C478.087 228.868 478.34 227.842 478.32 227.201C479.057 225.542 479.806 223.731 480.563 222.147C480.824 221.601 480.861 222.049 480.912 221.988C481.701 221.057 481.565 220.139 481.702 219.772C483.211 215.798 484.919 212.767 486.189 208.902C486.234 208.765 485.862 208.351 486.629 207.502C486.68 207.447 486.362 208.768 487.132 207.024C487.903 205.28 489.573 202.086 490.405 199.562C490.587 199.01 490.82 197.61 491.459 196.558L491.443 196.598C491.504 196.482 491.57 196.368 491.641 196.26C491.74 196.112 491.813 196.339 491.973 196.13C492.485 195.454 492.15 194.867 492.877 194.116C493.603 193.366 494.569 191.611 495.178 188.995C495.198 188.912 495.028 188.181 495.314 187.392C495.771 186.132 496.486 184.367 496.951 183.048C497.173 182.416 496.793 182.736 496.827 182.625C498.148 178.49 499.385 175.604 500.995 171.363L501.001 171.351C501.088 171.2 501.176 171.047 501.265 170.892C501.705 170.125 502.624 167.73 503.684 166.357C504.847 164.85 505.002 167.138 506.818 163.204C507.552 161.618 507.237 158.93 509.452 156.571C512.191 151.144 515.252 146.413 517.924 140.929C518.044 140.683 518.076 139.713 518.39 139.15C518.858 138.316 519.289 137.954 519.628 137.361C519.648 137.326 519.668 137.292 519.688 137.257C521.008 134.772 522.025 132.391 523.279 129.977C523.761 129.047 523.784 129.469 524.359 128.36C524.934 127.252 525.062 126.383 525.947 124.935C526.616 123.842 527.7 122.959 528.526 121.476C528.055 121.165 528.592 120.132 529.396 118.218C529.55 117.85 529.183 118.142 529.247 117.964C529.504 117.235 529.969 116.676 530.2 115.977C530.256 115.808 530.089 115.713 530.126 115.57C530.431 114.345 531.731 112.732 531.955 112.455C532.813 111.394 532.872 110.726 533.435 109.864C533.997 109.003 533.431 110.429 534.031 109.395C535.275 107.252 536.685 104.404 537.828 102.167C538.283 101.274 537.746 101.768 537.806 101.638C538.685 99.7594 539.875 98.0126 539.941 96.7573C541.765 96.0707 540.392 95.5847 541.966 93.0611C542.091 92.8626 542.781 92.8792 542.457 93.7198C542.133 94.5602 541.346 95.6841 540.911 96.8574C540.807 97.1351 540.566 98.9031 540.493 99.1243C539.925 100.857 538.979 100.664 538.891 100.726C537.91 101.441 537.539 103.563 537.332 104.067C536.387 106.371 535.317 108.194 534.505 110.11C533.973 111.363 534.457 111.757 533.958 112.7C532.3 115.834 530.982 116.553 530.13 119.866C529.946 120.576 530.862 120.242 529.235 122.295C529.132 122.424 527.843 123.907 527.616 125.026C527.588 125.167 527.763 125.25 527.695 125.42C527.237 126.558 526.73 127.215 526.194 128.436C525.659 129.657 525.033 131.135 524.287 132.461C523.838 133.26 522.984 134.145 522.707 134.496C521.92 135.485 521.693 136.858 521.07 137.403C520.558 137.852 520.64 136.892 520.09 137.462L520.084 137.473C519.957 137.597 519.795 137.797 519.585 138.105C519.991 138.413 520.363 138.813 520.75 139.162C518.601 143.054 516.36 146.813 514.239 150.736C513.977 151.223 514.486 150.857 514.211 151.382C513.049 153.597 511.831 155.421 510.654 157.733C509.744 159.523 508.939 161.592 507.996 163.469C506.874 164.317 505.551 167.144 504.419 169.104C504.023 169.791 503.913 169.67 503.598 170.141C502.415 171.917 503.34 171.288 503.131 171.838C503.054 172.04 502.975 172.222 502.895 172.387L503.031 172.084C502.467 173.966 501.422 174.031 500.546 176.582C500.495 176.73 500.438 178.735 500.386 178.996C500.064 180.655 500.092 179.185 499.7 180.156C498.984 181.928 498.402 183.13 497.824 185.303C497.656 185.936 497.494 187.542 496.791 188.639C496.699 188.783 496.538 188.628 496.482 188.751C495.483 190.977 496.064 191.251 495.804 192.633C495.544 194.015 494.411 195.891 494.146 196.261C493.454 197.228 494.306 195.388 494.296 195.319C494.176 194.506 493.716 196.003 493.286 197.12C493.207 197.115 493.13 197.133 493.057 197.17L493.031 197.234C492.487 197.461 492.084 198.622 492.744 198.327C492.817 198.293 493.065 197.621 493.208 197.311L493.238 197.234C493.256 197.187 493.272 197.148 493.286 197.12C493.295 197.166 493.302 197.212 493.309 197.259L493.277 197.34C493.362 198.539 492.708 200.19 491.427 201.766C490.804 202.532 490.871 201.583 489.835 204.28C489.364 205.505 489.961 205.21 489.611 206.319C488.813 208.852 487.086 211.846 486.067 214.373C485.697 215.29 486.295 214.499 486.049 215.129C485.399 216.801 484.611 218.183 483.982 219.873C483.926 220.027 484.31 219.758 484.092 220.274C482.601 223.801 481.147 226.859 479.587 230.411L479.636 230.285C479.495 230.682 479.354 231.085 479.212 231.496C478.51 233.519 477.388 237.182 476.637 239.27C475.337 242.889 473.452 247.242 472.461 250.375C471.814 252.418 472.201 252.054 472.06 252.977C471.79 254.758 470.213 257.53 469.989 257.899C469.982 257.911 470.529 256.149 470.088 257.038C469.651 257.492 469.995 257.879 469.989 257.899C469.914 258.024 469.549 258.991 469.184 260.001L469.076 260.245C468.577 261.14 468.072 262.073 467.923 262.398C467.757 262.76 468.069 262.676 467.979 262.862C465.834 267.278 463.554 271.631 461.098 275.958L461.128 275.9C461.119 275.917 461.11 275.935 461.101 275.952C461.057 276.029 460.882 275.793 460.783 275.975C459.387 278.509 458.846 280.309 457.951 282.527C457.056 284.745 456.154 286.409 455.121 287.47C454.398 289.04 453.142 291.149 452.36 292.443L452.266 292.607C452.228 292.656 452.19 292.705 452.154 292.752C451.241 293.929 451.554 294.382 451.491 294.497C449.533 298.086 448 299.899 445.65 303.415C444.664 304.888 442.9 307.69 441.713 309.602L441.363 310.011C441.144 310.218 440.939 310.413 440.753 310.591C439.506 311.777 438.657 312.384 437.533 313.503C437.38 313.655 437.693 313.678 437.651 313.728C436.521 315.116 436.779 314.134 436.441 314.305C435.217 314.926 434.481 315.332 432.914 316.977C432.561 317.348 431.985 318.901 431.328 319.599L431.352 319.576C431.338 319.592 431.324 319.607 431.309 319.622C430.442 320.508 430.59 319.98 429.687 320.913C429.609 320.992 429.746 321.106 429.154 321.645C426.409 324.148 423.37 326.828 420.553 329.468C420.168 329.828 420.854 329.574 420.301 330.097C418.317 331.973 416.17 333.967 414.089 335.816L413.63 336.158C412.877 336.578 412.134 336.987 411.407 337.377C410.651 337.782 411.015 337.341 410.825 337.385C409.661 337.659 408.523 338.921 408.298 339.065C404.9 341.239 401.875 342.866 398.721 344.648L399.414 344.035C398.104 345.688 396.773 347.405 395.382 349.352C395.177 349.641 393.956 352.137 392.843 352.814C392.767 352.861 391.653 353.522 391.268 354.566C391.244 354.631 391.897 354.188 391.082 355.21C390.439 356.016 389.589 357.287 388.616 358.406L388.781 358.164C388.555 358.492 388.32 358.81 388.075 359.106C387.708 359.55 386.604 360.455 386.059 362.107C386.025 362.216 385.419 364.908 384.425 365.402C384.262 365.481 383.802 365.019 383.037 366.923C382.892 367.287 383.374 366.757 382.925 367.677C382.589 368.365 382.128 369.12 381.658 369.921C381.162 370.761 380.658 371.649 380.275 372.565C380.145 372.878 379.777 374.32 378.908 375.132C378.772 375.259 378.766 374.858 378.435 375.363C376.856 377.765 375.426 380.413 373.796 382.836C373.219 383.694 373.199 383.065 372.565 383.94C371.932 384.815 370.737 386.628 370.29 387.673C369.862 388.672 370.848 388.011 370.21 389.23L370.272 389.123C370.245 389.181 370.214 389.244 370.18 389.311C367.752 394.088 365.103 398.704 362.476 403.347L362.29 403.642C361.097 405.214 359.907 406.789 358.731 408.379C358.084 409.253 358.773 408.64 357.832 409.936C355.783 412.757 352.9 416.821 350.191 420.478L350.321 420.284C348.664 422.97 347.074 425.455 345.84 427.16C343.426 430.497 345.892 425.95 344.148 428.562C343.308 429.822 342.999 431.551 342.826 431.874C341.146 435.03 339.619 437.005 338.025 439.796C337.696 440.373 338.253 439.95 337.97 440.439C337.007 442.111 335.857 443.784 334.919 445.371C334.856 445.477 334.808 445.567 334.77 445.645L334.598 445.895C334.336 446.311 334.454 446.386 334.047 446.889C332.902 448.305 331.849 449.525 330.614 450.813C330.501 450.931 330.979 449.92 330.144 450.978C328.795 452.69 326.99 454.714 325.598 456.809C325.185 457.431 325.521 457.729 324.295 458.802C324.038 459.027 323.876 458.359 323.099 460.115C322.967 460.41 321.54 463.265 320.278 464.23C320 464.442 319.271 464.857 318.75 465.423L318.82 465.327C318.722 465.446 318.633 465.57 318.558 465.699C318.498 465.805 318.972 465.542 318.57 466.166C317.148 468.36 315.569 470.598 314.104 472.849C313.713 473.451 314.525 472.714 313.936 473.606C312.316 476.059 310.177 479.041 308.479 481.36C307.852 482.215 308.099 481.495 308.037 481.546C307.032 482.358 307.02 483.241 306.81 483.596C305.496 485.798 304.197 487.269 302.906 489.244C302.549 489.789 303.005 489.543 302.948 489.661C302.882 489.797 302.826 489.904 302.778 489.989L303.03 489.548C302.767 490.284 302.756 489.5 302.402 490.169C301.285 492.278 300.19 494.698 299.208 496.9C298.848 497.708 299.512 496.919 299.186 497.643C298.734 498.649 298.274 499.662 297.809 500.678L297.343 501.388C294.916 504.108 292.424 506.827 289.994 509.366C289.396 509.991 289.603 509.446 289.447 509.548C288.369 510.249 287.496 511.909 287.249 512.249C286.33 513.52 285.74 514.036 284.953 514.883L285.315 514.367C285.191 514.589 285.062 514.829 284.925 515.099C281.778 521.298 277.793 528.615 274.388 534.84L274.032 535.35C273.169 536.303 272.332 537.225 271.534 538.105C268.206 541.776 265.222 545.024 262.294 548.234L262.908 546.618C262.872 549.495 262.843 552.342 262.833 555.301C262.83 556.319 262.829 557.351 262.831 558.402L262.823 559.336L262.214 559.991C261.754 560.495 261.29 561.006 260.821 561.525C260.41 561.978 261.032 561.711 260.68 562.105C258.062 565.023 255.425 567.876 252.79 570.742L252.713 570.823C250.682 572.854 248.653 574.891 246.633 576.968C246.242 577.369 247 576.984 246.378 577.634C245.106 578.969 243.448 580.614 242.072 581.876C241.402 582.491 242.102 581.467 241.43 582.09C240.024 583.393 238.569 584.822 237.19 586.245L237.324 586.1C237.181 586.272 237.039 586.444 236.898 586.616C236.308 587.337 237.426 586.443 236.643 587.367C232.014 592.835 227.469 598.228 222.638 603.56L222.803 603.346C222.156 604.222 221.503 605.098 220.842 605.973C220.497 606.429 219.76 606.529 219.156 607.588C219.229 607.75 219.379 607.848 219.491 607.974C215.879 613.28 212.221 618.512 208.549 623.743L208.746 623.405C206.278 628.393 203.798 633.382 201.335 638.417C201.112 638.873 201.757 638.211 201.327 639.095C200.635 640.516 199.954 641.928 199.271 643.337L198.968 643.825C196.474 647.039 193.976 650.224 191.231 653.413C190.854 653.851 190.631 653.303 189.648 654.693C189.475 654.939 187.955 657.003 187.636 657.595C187.594 657.676 188.07 657.454 187.568 658.11C185.574 660.714 183.48 663.377 181.378 665.981L181.045 666.332C179.857 667.326 178.67 668.306 177.494 669.265C176.895 669.753 177.35 669.021 176.921 669.367C175.509 670.509 174.089 671.752 172.674 672.984L172.087 673.484L171.35 673.478C169.187 673.482 167.04 673.48 165.041 673.356C162.542 673.201 163.467 672.76 162.14 672.327C161.952 672.266 160.405 672.256 160.325 672.004C160.12 671.37 160.869 670.676 160.561 670C160.496 669.854 158.424 670.011 159.651 669.659C159.737 669.636 161.239 669.519 161.609 669.4C161.867 669.317 161.402 669.061 161.928 668.955C162.454 668.849 163.031 669.064 163.902 668.94C164.773 668.815 164.39 668.523 166.13 668.488ZM448.045 298.056C447.088 299.074 447.729 299.734 448.362 298.371C448.392 298.305 448.094 298.003 448.045 298.056ZM515.778 146.466C514.568 147.853 514.488 149.212 515.365 148.246C516.241 147.28 516.146 146.043 515.778 146.466ZM524.239 129.825C523.01 131.558 523.996 132.429 524.784 130.305C524.83 130.181 524.31 129.724 524.239 129.825ZM168.297 672.204C168.278 672.192 167.165 672.18 167.139 672.192C166.547 672.477 168.77 672.5 168.297 672.204ZM532.322 113.181C531.872 113.688 531.195 115.462 531.755 114.832C532.205 114.325 532.882 112.549 532.322 113.181ZM395.24 345.723C395.217 345.733 394.722 346.358 394.792 346.391C395.018 346.496 395.638 345.574 395.24 345.723ZM546.524 85.1268C544.381 89.249 542.17 91.2863 544.563 86.8273C544.996 86.0199 543.969 88.7401 544.581 87.7428C545.7 85.9177 545.752 84.3556 547.051 82.5733C547.287 82.251 546.648 84.8927 546.522 85.1349C546.522 85.1322 546.523 85.1295 546.524 85.1268ZM446.71 298.13C446.685 298.146 446.072 299.064 446.067 299.093C445.979 299.749 447.214 297.9 446.71 298.13ZM369.482 384.4C369.429 384.439 368.087 386.621 368.064 386.705C367.773 388.09 370.487 383.679 369.482 384.4ZM476.918 230.577C476.956 230.197 477.024 229.802 477.12 229.416L477.142 229.358C477.418 228.513 477.827 227.717 478.318 227.206C477.985 227.946 477.658 228.692 477.328 229.438L477.311 229.482C477.181 229.847 477.05 230.213 476.918 230.577Z" fill="black"/>
<path d="M1013.58 85.5574C1019.93 87.7778 1027.63 90.5743 1034.74 93.1915L1033.61 93.0215C1036.74 92.9033 1039.76 92.7959 1042.52 92.7028C1045.49 92.6026 1043.99 92.8302 1046.04 92.7682C1050.04 92.6467 1053.76 92.3981 1057.72 92.2906C1059.03 92.2557 1057.41 92.5821 1058.78 92.5398C1066.32 92.3061 1073.43 91.9158 1081.06 91.62C1082.43 91.567 1083.79 91.5138 1085.16 91.4604L1085.26 91.4582C1115.68 91.6624 1145.72 91.7598 1176.31 91.8514L1176.81 91.9232C1182.36 93.5836 1187.92 95.2493 1193.51 96.9228C1199.45 98.7004 1206.01 100.71 1212.63 102.721L1212.7 102.744C1219.37 105.131 1226.1 107.522 1232.31 109.639C1232.6 109.739 1232.8 109.797 1232.94 109.828L1232.75 109.775C1233.29 109.825 1232.8 109.576 1233.03 109.609C1237.5 110.28 1235.94 110.403 1238.81 111.077C1243.96 112.285 1249.37 113.507 1254.78 114.692L1255 114.761C1261.22 117.318 1267.44 119.82 1273.18 122.095C1277.63 123.859 1273.35 121.649 1277.72 123.688C1278.03 123.83 1276.81 123.591 1278.02 124.107C1280.76 125.278 1286.01 127.361 1288.15 128.246C1288.82 128.527 1289.41 128.769 1289.93 128.985L1289.94 128.991C1292.57 130.114 1293.58 130.535 1296.82 131.895C1302.12 134.123 1308.39 136.875 1314.1 139.211C1315.32 139.709 1313.81 138.813 1315.76 139.587C1317.72 140.362 1322.84 142.531 1324.55 143.308C1326.26 144.085 1325.45 143.951 1325.74 144.119C1328.12 145.512 1334.25 147.531 1335.02 147.84C1335.02 147.841 1335.02 147.842 1335.03 147.843L1334.94 147.811C1345.48 151.236 1354.83 154.544 1364.37 157.869L1363.95 157.8C1367.61 157.825 1371.29 157.846 1375.06 157.846C1377.76 157.845 1380.51 157.839 1383.27 157.83C1391.51 157.803 1399.9 157.752 1407.57 157.762C1409.31 157.764 1411.02 157.769 1412.7 157.775L1413.13 157.849C1420.12 160.323 1426.58 162.644 1433.33 165.029L1433.74 165.272C1435.63 166.988 1437.56 168.725 1439.54 170.508C1440.47 171.343 1439.57 170.152 1440.71 171.172C1449.84 179.372 1458.9 187.556 1467.91 195.8L1467.83 195.734C1470.92 198.174 1474 200.62 1477.08 203.076C1478.34 204.087 1476.54 203 1477.8 204.021C1482.18 207.585 1487.99 212.375 1493.16 216.346L1493.33 216.532C1495.95 220.686 1498.4 224.278 1500.13 226.18C1501.63 228.613 1503.26 231.266 1504.88 233.913L1504.57 233.577C1507.83 236.208 1511.05 238.841 1513.68 241.08C1516.63 243.592 1513.52 241.471 1517.32 244.331C1518.18 244.976 1517.23 243.925 1518.5 244.907C1523.87 249.04 1529.63 253.691 1534.96 257.751C1536.05 258.577 1535.89 258.179 1536.21 258.389C1538.95 260.159 1542.87 263.912 1543.78 264.672C1543.87 264.755 1543.97 264.837 1544.07 264.919L1544.37 265.158L1544.49 265.538C1546.34 272.679 1548 278.192 1549.84 284.465L1549.47 283.922C1550.46 284.676 1551.46 285.449 1552.5 286.251C1554.04 287.435 1552.4 285.811 1553.88 286.942C1561.58 292.813 1569.5 298.947 1576.94 304.828C1578.59 306.136 1576.9 305.146 1577.69 305.781C1581.14 308.58 1582.2 308.817 1585.51 311.493C1586.21 312.057 1585.68 311.913 1585.8 312.032C1587.61 313.88 1589.69 314.835 1590.22 315.229C1596.92 320.195 1600.82 323.868 1607.25 328.723C1608.02 329.304 1606.46 327.769 1608.61 329.414C1619.39 337.638 1630.57 346.284 1641.42 354.766L1641.66 354.947L1641.76 355.235C1643.22 359.565 1644.66 363.859 1646.07 368.085C1646.95 370.72 1646.11 368.911 1646.15 369.084C1646.72 371.901 1647.8 373.477 1648.12 374.326C1648.39 375.07 1648.66 375.81 1648.92 376.544L1648.91 376.517C1651.22 382.22 1653.6 387.546 1656.39 390.763C1656.69 391.216 1656.99 391.665 1657.31 392.096C1661.96 398.74 1668.17 403.957 1674.55 409.06C1683.65 416.161 1693.8 422.086 1703.82 427.877L1703.88 427.907C1711.53 432.861 1719.15 437.841 1726.73 442.882L1726.17 442.791C1726.78 442.649 1727.39 442.507 1728 442.366C1728.37 442.279 1727.77 442.689 1728.51 442.515C1737.44 440.42 1735.64 440.47 1741.41 438.529C1742.6 438.129 1745.94 437.671 1747.33 437.487L1746.85 437.904C1747 437.635 1747.1 437.449 1747.13 437.383C1747.84 436.053 1747.6 437.634 1747.82 437.18C1749.6 433.42 1748.2 433.583 1750.3 428.391C1750.37 428.229 1750.3 428.997 1750.5 428.569C1751.11 427.242 1751.57 425.866 1752.18 424.57C1753.58 421.606 1754.57 420.752 1756.12 415.989C1756.32 415.386 1755.31 416.018 1757.21 411.395C1757.98 409.552 1761.28 401.367 1762.25 399.091C1763.22 396.818 1762.79 398.475 1762.86 398.316C1765.22 393.169 1764.98 394.117 1765.87 392.725L1765.87 392.736C1765.92 392.448 1765.98 392.079 1766.05 391.578C1766.49 388.243 1765.43 389.168 1765.32 387.808C1765.2 386.447 1765.45 381.566 1765.53 380.367C1765.62 379.168 1765.76 380.663 1765.81 379.597C1766.13 372.53 1765.29 376.495 1765.12 374.166C1765.07 373.454 1765.04 372.761 1765.02 372.085L1765.13 372.501C1762.88 368.567 1761.59 364.936 1759.56 361.059C1758.93 359.854 1759.3 360.914 1758.71 359.858C1758.5 359.477 1758.3 359.109 1758.1 358.751L1758.04 358.515C1758.03 354.437 1758.21 351.602 1758.01 346.641C1757.99 346.129 1757.82 344.456 1757.75 342.584L1757.75 342.094L1758.2 341.878C1759.43 341.229 1760.78 340.579 1761.93 340.184C1762.32 340.053 1761.37 340.726 1763.23 339.879C1765.77 338.725 1770.13 336.67 1773.1 335.193L1773.05 335.222C1773.31 335.036 1773.56 334.857 1773.79 334.687C1775.74 333.252 1773.29 334.59 1775.84 332.915C1776.97 332.171 1775.03 333.77 1777.15 332.359C1779.26 330.956 1784.55 327.221 1786.56 325.796C1788.57 324.374 1787.33 324.951 1787.48 324.823C1788.41 324.054 1792.21 321.24 1792.55 321C1798.67 316.675 1804.66 312.515 1810.58 308.413L1810.46 308.529C1817.62 300.339 1823.79 292.274 1832.12 284.281C1831.82 284.314 1831.84 284.406 1831.83 284.392C1831.84 284.387 1831.85 284.376 1831.86 284.358C1831.88 284.329 1831.93 284.242 1831.95 284.206C1832 284.118 1832.08 283.958 1832.12 283.853C1832.18 283.741 1832.24 283.614 1832.3 283.473C1832.35 283.354 1832.4 283.235 1832.46 283.102C1832.68 282.582 1832.89 282.07 1833.1 281.539C1833.51 280.493 1833.91 279.436 1834.31 278.355C1834.85 276.866 1834.24 277.765 1834.33 277.538C1836.13 272.346 1835.27 276.64 1836.8 273.11C1836.13 273.457 1836.99 271.354 1838.24 267.681C1838.84 265.913 1838.31 266.803 1838.34 266.636C1838.98 263.922 1839.99 262.231 1840.23 261.789C1841.12 260.153 1841.44 258.158 1842.04 257.038C1842.64 255.926 1841.97 258.734 1843.19 255.22C1843.35 254.169 1841.99 256.626 1842.84 253.926C1843.49 251.845 1844.31 249.377 1845.19 246.754L1845.15 247.002C1845.1 236.21 1845.35 222.253 1845.38 215.446C1845.41 207.995 1845.39 204.94 1845.43 200.98L1845.43 200.855L1845.49 200.743C1845.78 200.236 1846.08 199.713 1846.4 199.158C1850.9 191.362 1848.97 194.065 1851.56 189.107C1854.15 184.135 1853.59 186.946 1854.15 186.336C1854.7 185.738 1854.95 184.889 1855.52 184.081C1856.09 183.277 1855.17 185.193 1856.33 183.199C1857.49 181.204 1860.27 175.532 1860.5 174.721C1860.97 173.005 1859.2 175.27 1862.31 170.017C1862.49 169.715 1862.14 170.824 1862.82 169.662C1862.86 169.593 1862.9 169.524 1862.94 169.454L1862.88 169.812C1861.77 163.775 1860.58 157.617 1859.4 151.482L1859.6 151.72C1855.36 150.072 1851.14 148.427 1846.99 146.785C1845.63 146.244 1846.94 146.466 1846.15 146.149C1841.57 144.313 1840.4 143.97 1839.45 143.81L1839.49 143.812C1838.81 144.151 1838.31 144.5 1836.27 145.271C1837.16 144.362 1834.45 144.679 1827.94 146.428C1824.02 147.479 1824.77 147.571 1822.29 148.445C1821.54 148.707 1818.72 149.265 1818.25 149.529C1816.71 150.394 1819.45 150.161 1812.68 151.781C1812.38 151.852 1813.26 151.37 1812.24 151.63C1811.84 151.731 1811.46 151.829 1811.1 151.924L1811.3 151.816C1806.9 155.541 1806.3 156.588 1801.08 161.127C1800.13 161.951 1799 162.903 1797.78 163.932L1797.79 163.919C1793.47 167.7 1787.82 172.493 1783.96 175.888C1783.75 175.538 1782.27 176.676 1780.74 178.111L1780.79 177.901C1781.45 179.479 1782.27 181.166 1782.89 182.138C1784.42 186.121 1786.12 190.406 1787.56 194.274C1788.05 195.606 1787.51 194.813 1787.56 194.988C1787.72 195.657 1787.92 196.256 1788.12 196.791L1788.15 196.861L1788.11 196.928C1787.28 198.439 1786.94 199.643 1786.63 200.258C1784.7 203.968 1782.85 207.347 1781.03 210.649L1780.93 210.779C1778.45 212.937 1776.02 215.049 1773.57 217.267L1773.59 217.246C1772.22 218.656 1770.83 220.103 1769.43 221.621C1769.2 221.87 1769.17 222.614 1767.11 224.157C1766.98 224.256 1769.04 221.865 1765.86 225.026C1764.12 226.749 1761.5 229.255 1758.79 231.919L1758.72 231.978C1755.95 233.516 1753.09 235.143 1750.68 236.634C1749.4 237.427 1746.29 239.665 1743.47 240.897C1743.1 241.06 1743.41 240.714 1742.86 240.935C1741.08 241.65 1740.43 242.607 1738.27 243.333C1736.12 244.059 1731.92 246.072 1726.61 249.433C1726.56 249.464 1726.43 249.579 1726.23 249.75L1726.24 249.745C1725.74 250.137 1724.8 250.839 1723.55 251.468C1720.74 252.887 1716.72 254.84 1713.79 256.334C1712.38 257.05 1713.39 256.817 1713.15 256.945C1708.28 259.506 1704.1 261.605 1699.78 263.74L1699.7 263.782L1699.61 263.759C1695.31 262.579 1690.91 261.345 1685.65 259.916C1684.48 259.598 1682 259.064 1679.38 258.419L1679.32 258.389C1677.7 257.328 1676.02 256.189 1674.7 255.153C1671.2 252.428 1675.65 253.953 1667.07 248.499C1665.97 247.793 1664.68 247.148 1663.26 246.439L1663.32 246.482C1660.48 244.673 1657.07 242.514 1653.59 238.869C1651.79 237.397 1650.03 235.931 1648.28 234.469L1648.33 234.541C1643.86 223.711 1639.84 213.24 1635.06 202.233C1634.95 201.982 1634.68 201.53 1634.36 200.985C1633.72 200.408 1632.94 199.691 1632.39 199.015C1630.97 197.273 1630.34 196.191 1629.33 194.943C1625.1 189.71 1621.05 185.069 1616.95 180.045C1615.39 178.138 1616.1 178.668 1614.24 176.394C1612.41 174.145 1610.96 172.816 1608.58 169.734L1608.58 169.725C1608.56 169.685 1608.54 169.645 1608.53 169.604C1607.39 166.822 1606.68 163.85 1605.1 160.186C1604.53 160.277 1603.41 157.774 1601.28 153.396C1600.87 152.554 1601.11 153.549 1600.9 153.155C1600.07 151.554 1599.54 149.967 1598.73 148.452C1598.54 148.083 1598.36 148.144 1598.19 147.847C1596.74 145.324 1595.18 140.802 1594.92 140.024C1594.81 139.707 1594.7 139.409 1594.59 139.128L1594.62 139.167C1593.31 137.015 1592.36 135.974 1591.21 134.153C1589.93 132.118 1592.1 134.985 1590.55 132.644C1587.34 127.791 1583.05 121.676 1579.68 116.824C1578.33 114.889 1579.04 116.355 1578.85 116.081C1577.69 114.465 1576.57 112.809 1575.52 111.284C1573.56 109.435 1571.81 107.83 1570.43 106.958C1568.86 103.688 1568.2 105.044 1563.29 100.095C1562.9 99.7044 1562.82 98.7728 1564.42 100.145C1566.02 101.516 1568.22 103.84 1570.45 105.732C1570.98 106.18 1574.28 108.461 1574.7 108.805C1575.41 109.393 1575.96 109.904 1576.39 110.346L1576.57 110.553C1577.72 112.42 1577.48 113.082 1577.55 113.249C1578.55 115.651 1581.84 119.267 1582.6 120.289C1586.1 124.965 1588.83 129.11 1591.73 133.035C1593.63 135.602 1594.31 135.51 1595.73 137.578C1595.86 137.765 1595.98 137.948 1596.11 138.129L1596.25 138.383C1599.37 145.565 1599.87 148.588 1603.66 155.263C1604.49 156.734 1604.41 154.935 1606.41 160.653C1606.53 161.013 1607.94 165.295 1609.27 167.532C1609.44 167.813 1609.61 167.724 1609.8 168.108C1609.95 168.409 1610.09 168.7 1610.23 168.983L1609.98 168.583C1611.52 170.381 1612.59 171.856 1614.4 173.949C1616.44 176.318 1618.92 179.153 1621.14 181.953C1622.48 183.641 1623.96 186.004 1624.55 186.856C1626.2 189.265 1628.51 191.409 1629.41 192.997C1630.33 194.599 1627.71 192.154 1630.58 195.963C1631.09 195.778 1631.74 195.762 1632.31 195.659C1633.46 197.057 1634.6 198.454 1635.74 199.85L1636.01 200.305C1639.23 208.284 1642.37 216.22 1645.68 224.236C1646.18 225.438 1645.92 224.105 1646.46 225.39C1647.69 228.33 1648.78 231.094 1649.89 233.902L1649.37 233.182C1651.3 234.849 1653.27 236.534 1655.43 238.306C1658.21 240.592 1661.29 242.949 1664.29 245.326L1664.11 245.187C1665.11 245.822 1666.1 246.46 1667.08 247.1C1669.25 249.268 1675.42 253.212 1679.8 256.239C1680.06 256.421 1680.28 256.574 1680.45 256.706L1679.9 256.453C1680.91 256.769 1680.98 256.904 1682.03 257.223C1686.82 258.672 1684.68 257.584 1686.03 257.854C1691.81 259.016 1692 260.26 1698.71 261.992C1698.83 262.021 1699.34 262.095 1700.02 262.185L1699.04 262.29C1700.29 261.451 1702.16 260.165 1702.52 259.949C1705.91 257.944 1703.2 259.844 1705.41 258.77C1709.45 256.808 1712.3 255.524 1716.91 252.974C1718.26 252.23 1721.37 250.217 1724.16 249.129C1724.53 248.985 1724.43 249.265 1724.72 249.133C1725.06 248.97 1725.39 248.816 1725.69 248.669L1725.63 248.7C1729.74 246.466 1729.75 245.805 1732.3 244.124C1735.03 242.322 1739.64 240.212 1740.6 239.815C1743.1 238.773 1738.88 240.954 1738.76 241.054C1737.47 242.233 1740.64 240.357 1743.1 238.996C1743.76 239.339 1747.16 237.363 1745.65 237.582C1745.48 237.609 1743.6 238.741 1743.1 238.996C1744.94 237.241 1748.66 235.037 1753.1 233.178C1755.01 232.376 1753.73 233.433 1758.1 230.895L1757.91 231.039C1758.21 230.733 1758.54 230.393 1758.91 230.012C1761.05 227.794 1759.9 228.332 1761.74 226.324C1764.72 223.064 1768.61 219.379 1772.22 215.876L1772.28 215.812C1773.84 214.482 1775.35 213.179 1776.73 211.939C1778.46 210.384 1776.6 211.705 1777.78 210.636C1778.35 210.117 1778.91 209.616 1779.47 209.125L1779.09 209.597C1780.68 206.678 1782.26 203.989 1783.84 200.912C1784.02 200.571 1783.35 201.277 1783.98 200.118C1784.75 198.69 1785.5 197.295 1786.25 195.92L1786.15 197.559C1783.7 191.218 1781.45 185.223 1778.91 178.633L1778.45 177.443L1779.4 176.607C1780.39 175.728 1781.4 174.833 1782.43 173.915C1785.93 170.799 1791.92 165.307 1795.89 161.78L1795.92 161.755C1796.22 161.498 1796.5 161.253 1796.78 161.019C1800.84 157.579 1805.53 153.753 1809.88 150.149L1810.53 149.805C1814.35 148.841 1817.98 147.905 1821.04 147.046C1825.89 145.684 1824.76 145.732 1826.8 145.008C1830.74 143.611 1838.01 142.261 1838.99 142.09C1839.02 142.086 1834.85 143.268 1837.12 142.79C1838.48 142.696 1838.94 142.104 1838.99 142.09C1839 142.089 1839.01 142.086 1839.03 142.083L1839.57 141.938L1840.09 142.136C1840.91 142.51 1848.75 145.536 1850.34 146.091C1851.23 146.398 1850.82 145.994 1851.28 146.158C1854.34 147.254 1857.39 148.362 1860.45 149.483L1861.52 149.895L1861.74 151.011C1863.03 157.073 1864.28 163.159 1865.48 169.289L1865.64 170.07L1865.25 170.75C1864.19 172.636 1863.12 174.524 1862.04 176.412C1861.93 176.591 1861.86 176.191 1861.61 176.611C1858.2 182.489 1856.35 186.445 1853.78 191.433C1851.51 195.842 1849.51 199.362 1847.69 201.969L1847.94 200.98C1847.9 201.395 1847.85 201.794 1847.8 202.179C1847.86 206.409 1847.66 212.477 1847.54 215.97C1847.42 219.462 1847.93 219.949 1847.94 220.256C1848.26 229.84 1847.97 235.38 1847.92 245.323C1847.92 245.832 1847.92 246.395 1847.92 247.002L1847.81 247.648C1846.19 252.399 1843.64 259.951 1842.17 264.281C1840.87 268.117 1839.94 270.376 1838.74 273.92C1838.58 274.393 1838.96 273.996 1838.92 274.143C1837.74 278.171 1837.91 276.085 1837.52 276.857C1836.86 278.171 1836.31 279.252 1835.74 280.539C1835.45 281.183 1835.16 281.859 1834.82 282.691C1834.74 282.88 1834.65 283.105 1834.56 283.323C1834.47 283.536 1834.38 283.761 1834.28 284.005C1834.18 284.224 1834.06 284.507 1833.95 284.752C1833.89 284.877 1833.81 285.055 1833.73 285.192C1833.71 285.247 1833.62 285.391 1833.55 285.498C1833.51 285.565 1833.5 285.587 1833.39 285.715C1833.33 285.794 1833.25 285.888 1833.08 286.01C1832.92 286.121 1832.65 286.318 1832.12 286.33C1832.49 286.321 1832.63 286.239 1832.73 286.201C1832.82 286.16 1832.86 286.131 1832.87 286.125C1832.89 286.111 1832.89 286.111 1832.89 286.12C1832.86 286.144 1832.82 286.179 1832.77 286.224C1832.66 286.332 1832.58 286.424 1832.45 286.558C1831.66 287.38 1829.87 290.566 1828.45 292.271C1826.58 294.494 1827.08 293.481 1825.15 295.824C1824.98 296.025 1825.15 296.098 1823.92 297.518C1820.34 301.666 1816.55 306.064 1812.81 310.494L1812.35 310.916C1809.54 312.875 1806.73 314.84 1803.98 316.783C1802.97 317.499 1804.43 316.813 1802.97 317.85C1796.11 322.716 1788.57 328.012 1781.8 332.62C1780.13 333.753 1781.05 332.865 1780.66 333.069C1778.26 334.327 1775.44 336.94 1774.93 337.309C1774.84 337.375 1774.75 337.441 1774.66 337.506L1774.31 337.71C1769.11 340.319 1764.32 342.603 1759.62 344.826L1761.02 342.584C1760.99 347.84 1760.92 353.001 1760.92 358.515L1760.63 357.378C1762.03 359.955 1763.49 362.611 1765.05 365.4C1765.32 365.877 1766.94 368.362 1768.29 370.786L1768.62 372.085C1768.64 373.528 1768.59 374.921 1768.43 375.899C1768.4 376.095 1767.92 378.921 1768.25 381.421C1768.27 381.576 1768.52 379.815 1768.49 382.888C1768.47 385.394 1768.58 389.146 1768.47 392.736L1768.28 393.702C1767.95 394.447 1767.62 395.179 1767.28 395.884C1766.7 397.091 1765.07 399.841 1763.92 403.683C1763.85 403.934 1762.34 409.969 1760.96 411.783C1760.74 412.076 1760.29 411.493 1758.8 416.029C1758.52 416.895 1759.27 415.417 1758.45 417.672C1757.2 421.128 1755.22 425.574 1753.79 429.865C1753.54 430.614 1752.68 433.881 1751.37 436.251C1751.16 436.622 1751.26 435.801 1750.71 437.109C1750.43 437.776 1750.14 438.448 1749.86 439.124L1749.37 440.331L1748.12 440.64C1742.21 442.064 1736.13 443.691 1730.16 445.054C1727.93 445.565 1728.8 445.03 1726.83 445.41L1725.99 445.619L1725.27 445.155C1725.17 445.084 1725.06 445.008 1724.94 444.926C1722.86 443.482 1718.62 440.654 1716.3 439.355C1713.99 438.056 1716.13 440.077 1712.77 437.971C1709.11 435.681 1705.48 433.37 1701.86 431.045L1702.01 431.133C1691.78 425.262 1681.8 419.268 1672.33 411.818C1671.38 411.047 1670.43 410.275 1669.48 409.494C1667.49 407.843 1669.02 409.383 1666.08 406.913C1662.44 403.851 1657.96 399.512 1654.23 394.37C1650.44 389.102 1647.84 383.347 1645.61 377.795L1645.58 377.701C1643.69 372.156 1642.01 367.081 1640.82 363.237C1637.98 354.008 1642.19 365.403 1639.9 358.389C1639.66 357.639 1639.38 356.886 1639.08 356.161L1639.69 357.007C1637.43 355.444 1635.23 354.237 1634.69 353.842C1627.92 348.882 1623.47 345.102 1617.43 340.562C1616.18 339.624 1617.24 340.761 1616.18 339.961C1612.55 337.23 1608.85 334.231 1605.4 331.604C1603.85 330.426 1604.02 330.8 1602.61 329.697C1599.24 327.059 1596.29 324.685 1593.09 321.994C1592.8 321.748 1594.98 323.12 1592.48 321.181C1588.43 318.043 1583.5 314.018 1578.71 310.57C1577.29 309.547 1576.96 309.86 1574.17 307.32C1573.58 306.788 1574.71 306.976 1570.95 304.672C1570.32 304.283 1564.11 300.29 1561.49 297.767C1560.8 297.102 1559.14 295.269 1557.43 294.041C1557.2 293.875 1557.96 294.763 1556.56 293.718C1553.53 291.448 1550.44 289.077 1547.33 286.705L1546.69 286.21L1546.47 285.451C1545.78 283.114 1545.08 280.773 1544.37 278.454C1543.88 276.842 1544.34 279.322 1543.62 276.916C1542.66 273.759 1541.63 270.218 1540.61 266.672L1541.56 268.089C1538.4 265.57 1535.26 263.034 1532.51 260.812C1530.57 259.244 1532.05 260.15 1531.92 260.02C1529.86 257.926 1528.21 257.243 1527.43 256.666C1522.6 253.069 1519.15 250.046 1514.77 246.655C1513.55 245.718 1514.26 246.576 1514.01 246.403C1511.4 244.604 1513.51 245.733 1511.97 244.456C1508.89 241.899 1505.5 239.199 1502.19 236.592L1501.61 235.948C1500.72 234.521 1499.83 233.112 1498.97 231.744C1497.86 229.984 1498.87 232.113 1497.87 230.532C1495.36 226.545 1492.82 222.483 1490.3 218.42L1490.97 219.161C1485.9 215.193 1480.86 211.211 1476.03 207.339C1474.44 206.068 1475.58 206.688 1475.27 206.39C1473.18 204.332 1469.52 202.065 1468.72 201.494C1467.31 200.495 1466.26 199.7 1465.32 198.964L1465.17 198.84C1463.76 197.561 1462.62 196.449 1460.8 194.839C1451.57 186.664 1441.04 177.162 1431.13 168.169L1432.04 168.71C1424.92 166.192 1418.03 163.748 1411.84 161.55L1412.7 161.697C1412.69 161.697 1412.68 161.697 1412.67 161.697C1402.1 161.653 1392.57 161.589 1383.27 161.537C1376.82 161.5 1370.47 161.469 1363.95 161.453L1363.19 161.327C1358.27 159.637 1353.24 157.921 1347.96 156.136C1346.6 155.675 1347.88 156.407 1346.71 156.013C1342.34 154.544 1337.99 153.068 1333.65 151.589L1333.48 151.524C1323.03 147.142 1312.64 142.746 1302.07 138.383C1300.86 137.88 1302.5 138.857 1300.55 138.057C1296.81 136.533 1292.17 134.578 1288.31 132.887L1288.34 132.9C1288.06 132.777 1287.77 132.655 1287.49 132.536C1285.52 131.695 1288.27 132.562 1286.29 131.72C1281.67 129.759 1276.7 127.725 1271.92 125.831C1269.88 125.026 1272.84 126.518 1270.2 125.452C1264.58 123.185 1259 120.933 1253.42 118.673L1253.9 118.819C1246.55 117.247 1239.21 115.66 1231.84 114.024L1231.5 113.929C1226.08 111.986 1220.65 110.011 1215.18 107.987C1214.13 107.599 1213.31 106.906 1211.49 106.198L1211.59 106.229C1211.22 106.104 1210.8 105.98 1210.33 105.861C1210.08 105.946 1210.04 106.121 1209.91 106.251C1198.42 102.889 1187 99.493 1175.58 96.0821L1176.31 96.1887C1160.12 96.1488 1143.94 96.0784 1127.63 96.0614C1126.43 96.0603 1128.5 96.3515 1126.19 96.3507C1112.81 96.3464 1099.82 96.4271 1086.14 96.1376C1085.71 96.1287 1085.49 96.0716 1085.26 96L1085.37 95.9975C1084.86 95.8653 1084.31 95.6668 1081.58 95.8451C1080.87 95.8915 1074.86 96.2356 1073.31 96.418C1073.09 96.4445 1074.2 96.6331 1072.26 96.7289C1060.99 97.2816 1049.18 97.7683 1037.92 98.1378C1036.11 98.197 1038.03 97.854 1036.73 97.8939C1035.78 97.9236 1034.81 97.9573 1033.84 97.994L1033.06 97.8761C1025.42 95.0633 1017.29 92.2766 1010.11 89.4984L1009.72 89.3081C1009.55 89.1915 1009.37 89.0751 1009.2 88.9589C1004.34 85.656 1006.41 86.4597 1004.02 84.4095C1003.68 84.1196 1000.62 82.1474 1000.6 81.8336C1000.54 81.0392 1002.39 81.4061 1002.15 80.4468C1002.1 80.2418 997.916 77.7434 1000.53 79.0047C1000.72 79.0937 1003.75 80.9024 1004.55 81.2717C1005.1 81.5292 1004.32 80.7241 1005.42 81.3024C1006.52 81.8807 1007.54 82.7948 1009.34 83.7965C1010.76 84.5938 1010.67 84.2902 1012.33 85.2389L1011.74 84.9486C1012.2 85.0894 1012.8 85.2838 1013.58 85.5574ZM1847 231.694C1846.75 234.927 1847.65 235.404 1847.44 231.907C1847.43 231.738 1847.01 231.527 1847 231.694ZM1641.03 214.746C1642.27 218.807 1643.91 221.262 1643.06 218.387C1642.21 215.513 1640.65 213.508 1641.03 214.746ZM1616.71 178.511C1619.61 182.523 1621.08 182.315 1617.52 178.394C1617.31 178.165 1616.54 178.277 1616.71 178.511ZM1017.12 90.7763C1017.08 90.75 1014.62 89.855 1014.56 89.845C1013.15 89.6425 1018.07 91.4318 1017.12 90.7763ZM1595.98 140.788C1596.45 142.265 1598.46 146.234 1597.86 144.398C1597.39 142.921 1595.38 138.948 1595.98 140.788ZM1759.88 360.731C1759.89 360.783 1760.78 362.436 1760.83 362.367C1760.98 362.139 1759.68 359.878 1759.88 360.731ZM1547.92 85.0743C1555.87 92.5682 1559.99 97.8585 1551.38 89.6492C1549.82 88.1625 1555 92.5745 1553.06 90.6331C1549.51 87.0812 1546.63 85.2886 1543.13 81.5343C1542.5 80.8542 1547.47 84.6451 1547.93 85.0865C1547.93 85.0824 1547.92 85.0783 1547.92 85.0743ZM1845.92 233.556C1845.91 233.62 1845.9 236.215 1845.91 236.278C1846.2 237.683 1846.22 232.455 1845.92 233.556ZM1722.31 440.382C1722.21 440.283 1717.15 437.011 1716.97 436.925C1714.08 435.621 1724.3 442.236 1722.31 440.382ZM1783.87 175.943C1783.05 176.833 1782.13 177.756 1781.19 178.618L1781.42 177.654C1782.07 179.253 1782.61 180.84 1782.89 182.125C1782.33 180.666 1781.77 179.204 1781.2 177.74L1781.03 178.443C1781.98 177.609 1782.92 176.775 1783.87 175.943ZM457.755 150.739C461.326 153.93 465.184 157.396 469.174 160.992L469.008 160.854C477.462 167.438 486.471 174.501 494.709 180.983L495.391 181.74C497.455 185.086 499.445 188.318 501.314 191.36C504.246 196.129 502.611 193.808 504.629 197.103C505.144 197.944 505.656 198.777 506.167 199.603L505.572 198.938C510.629 202.97 515.5 206.757 520.554 210.834C522.48 212.389 519.907 210.676 521.93 212.302C529.683 218.531 537.196 224.461 544.866 230.534L545.412 230.963L545.61 231.638C546.787 235.675 547.973 239.751 549.173 243.912C549.809 246.12 550.445 248.327 551.082 250.532L550.332 249.436C581.026 273.238 611.488 296.8 642.127 320.476L642.561 320.809L642.744 321.332C645.181 328.409 647.62 335.492 650.064 342.586L649.961 342.345C652.707 347.653 655.458 352.967 658.212 358.289L657.88 357.84C663.682 363.54 669.497 369.252 675.328 374.979L675.052 374.758C681.951 379.2 688.869 383.653 695.811 388.121C698.614 389.926 701.501 391.789 704.45 393.694C711.821 398.456 719.577 403.483 727.387 408.534L726.943 408.339C739.89 411.814 752.955 415.303 764.965 418.426C767.729 419.145 766.14 418.496 766.669 418.617C774.979 420.525 772.126 420.233 777.49 421.712C798.78 427.583 822.516 433.88 843.085 439.23C851.836 441.505 843.184 438.763 851.922 441.329C852.529 441.506 850.251 441.147 852.642 441.805C858.064 443.297 868.389 445.983 872.597 447.115C880.708 449.298 882.052 449.65 889.732 451.684C900.23 454.465 912.688 457.88 923.967 460.807C926.374 461.431 923.253 460.356 927.098 461.331C930.947 462.306 941.095 465.01 944.504 465.97C947.913 466.93 946.407 466.728 947.002 466.93C951.894 468.602 963.769 471.217 965.283 471.604C992.891 478.683 1016.45 485.209 1042.31 492.046C1061.95 497.236 1082.97 502.695 1101.65 507.647C1123.9 513.548 1142.73 518.662 1164.36 524.357C1166.64 524.959 1164.04 523.978 1166.83 524.712C1196.45 532.509 1225.85 540.314 1255.29 548.294C1258.24 549.095 1254.36 548.327 1257.31 549.141C1275.34 554.121 1303.84 562.162 1314.86 563.956C1327.1 567.236 1341.96 571.211 1352.87 574.32C1359.9 576.324 1352.97 574.771 1361.68 576.954C1363.64 577.447 1361.16 576.545 1364.1 577.301C1376.48 580.486 1389.97 584.131 1402.23 587.246C1404.72 587.879 1404.1 587.494 1404.81 587.644C1410.82 588.91 1420.55 592.013 1422.69 592.617C1438.99 597.213 1450.97 600.268 1466.22 604.306C1469.75 605.244 1465.64 603.862 1469.05 604.754C1486.72 609.384 1505.01 614.244 1522.27 618.939C1526.11 619.984 1522.51 619.283 1524.34 619.795C1532.42 622.046 1534.33 622.078 1542.08 624.229C1543.72 624.682 1542.74 624.639 1543.03 624.74C1547.62 626.324 1551.81 626.907 1553.02 627.214C1568.28 631.09 1577.88 634.176 1592.6 637.991C1594.36 638.447 1590.46 637.144 1595.41 638.441C1628.22 647.04 1662.87 656.276 1695.3 665.064L1694.26 665.584C1694.32 665.438 1694.38 665.292 1694.44 665.146C1696.44 660.297 1695.21 663.842 1695.36 663.545C1697.73 658.702 1698.57 655.285 1699.19 653.693C1704.12 641.136 1709.25 629.616 1712.13 620.892C1712.24 620.62 1712.35 620.347 1712.46 620.075L1712.38 620.483C1712.41 613.595 1712.42 606.712 1712.44 599.832L1712.56 600.324C1710.11 595.795 1707.67 591.269 1705.22 586.745L1705.09 586.262C1705.1 580.949 1705.1 575.639 1705.1 570.331L1705.1 569.699L1705.67 569.422C1710.58 567.062 1715.49 564.701 1720.39 562.342L1720.25 562.426C1732.83 553.566 1745.4 544.717 1757.98 535.904L1757.79 536.075C1764.97 527.837 1770.78 519.795 1779.69 511.658C1781.36 505.892 1784.82 497.704 1787.26 490.667C1787.51 489.989 1787.32 491.291 1787.81 489.939C1791.2 480.476 1792.1 477.506 1792.91 474.551L1792.88 474.748C1792.74 472.533 1792.56 470.329 1792.36 465.53C1792.24 462.645 1792.81 453.87 1792.86 453.093C1793.01 450.265 1793.38 453.199 1793.42 452.251C1793.65 444.413 1792.42 445.69 1792.42 435.116C1792.42 434.785 1792.64 436.174 1792.67 435.287C1792.72 433.083 1792.68 430.894 1792.7 428.727L1792.7 428.522L1792.8 428.341C1793.07 427.868 1793.34 427.398 1793.62 426.933C1796.79 421.631 1798.39 420.004 1802.68 411.6C1803.22 410.536 1801.72 411.785 1806.36 403.56C1807 402.418 1808.41 399.908 1810.06 396.951L1809.95 397.66C1808.7 391.444 1807.1 383.469 1806.53 380.48C1806.45 380.038 1806.38 379.667 1806.33 379.358L1806.94 380.08C1804.22 378.974 1806.7 379.717 1806.42 379.603C1794.78 374.869 1799.28 376.442 1793.55 373.797C1787.99 371.235 1789.01 372.661 1786.85 372.023L1787.2 372.04C1787.13 372.064 1787.06 372.087 1786.98 372.111C1784.53 372.892 1775.57 375.047 1773.36 375.553C1771.16 376.058 1773.84 375.186 1771.89 375.661C1758.92 378.821 1766.37 377.687 1762.17 378.99C1761.01 379.35 1759.87 379.686 1758.76 380.003L1759.1 379.824C1754.22 384.125 1749.68 387.587 1745.03 391.307C1743.48 392.601 1741.91 393.931 1740.31 395.335C1738.37 397.028 1740.06 395.767 1738.36 397.3C1734.63 400.671 1731.67 403.232 1728.48 406.045L1728.59 405.556C1729.81 408.734 1731.13 412.104 1732.89 416.334C1733.3 417.312 1734.81 420.669 1736.29 424.306L1736.42 424.65L1736.25 424.979C1735.17 427.037 1734 429.15 1732.94 430.851C1732.53 431.498 1733.39 429.499 1731.51 432.87C1730.67 434.391 1729.62 436.283 1728.49 438.335L1728.42 438.431C1726.05 440.498 1723.44 442.783 1721.04 444.904L1721.06 444.889C1719.43 446.525 1717.9 448.069 1716.64 449.365C1713.44 452.637 1717.37 449.152 1713.23 453.158C1711.39 454.938 1714.61 451.448 1711.17 454.804C1710.01 455.933 1708.25 457.673 1706.31 459.608L1706.25 459.654C1701.58 462.287 1696.03 465.45 1693.35 466.974C1689.32 469.274 1691.65 468.23 1691.33 468.429C1689.4 469.633 1681.71 474.138 1681.02 474.527C1678.77 475.81 1676.52 477.085 1674.29 478.353L1674.03 478.503L1673.73 478.428C1638.09 469.339 1604.87 460.526 1569.8 451.734C1566.85 450.995 1568.75 451.742 1568.3 451.632C1558.2 449.174 1566.31 450.534 1559.33 448.523C1560.22 449.286 1556.09 448.138 1548.98 446.388C1545.56 445.545 1547.37 446.214 1547.05 446.155C1541.91 445.161 1538.47 443.88 1537.58 443.571C1534.3 442.429 1530.56 441.839 1528.32 441.065C1526.09 440.294 1531.41 441.347 1524.61 439.62C1522.66 439.315 1527.59 441.071 1522.4 439.833C1502.84 435.164 1466.55 425.538 1450.89 421.512C1435.26 417.495 1430.2 416.243 1421.1 413.859C1404.67 409.553 1410.61 411.438 1400.35 408.997C1390.06 406.549 1395.26 406.957 1393.83 406.397C1392.43 405.844 1390.8 405.632 1389.03 405.073C1387.26 404.515 1391.18 405.377 1386.97 404.266C1382.76 403.154 1371.13 400.547 1369.59 400.36C1366.32 399.965 1371.41 401.718 1360.28 398.725C1359.64 398.553 1361.79 398.857 1359.33 398.208C1339.84 393.065 1319.55 387.891 1300.08 382.773C1297.4 382.069 1299.86 382.428 1298.31 382.015C1282.09 377.717 1287.79 379.62 1278.76 377.824C1280.92 377.706 1276.09 376.068 1263.75 372.925C1256.33 371.035 1257.54 371.634 1252.69 370.606C1251.23 370.298 1246.03 368.774 1245.05 368.661C1241.8 368.284 1246.63 370.013 1233.95 366.588C1233.4 366.437 1235.23 366.659 1233.31 366.154C1220.86 362.891 1219.26 362.952 1205.76 359.576C1195.19 356.93 1176.47 351.881 1164.45 348.777C1164.88 348.136 1153.48 345.407 1148.74 344.72C1140.94 342.714 1132.5 340.596 1124.97 338.609C1122.38 337.926 1124.14 338.156 1123.82 338.05C1118.88 336.427 1115.37 336.036 1113.68 335.626C1095.37 331.16 1080.58 327.015 1063.06 322.931C1062.44 322.787 1061.31 323.021 1056.74 321.478C1056.45 321.377 1062.26 322.619 1054.07 320.516C1045.87 318.412 1030.48 314.216 1019.03 311.547C1016.27 310.9 1009.2 309.525 1003.68 307.792C1002.95 307.56 1003.8 307.627 1002.74 307.275C999.329 306.141 997.305 306.153 993.325 304.693C989.346 303.233 980.925 300.755 969.369 298.124C969.002 298.04 966.184 297.741 962.575 296.816C956.813 295.339 948.651 293.176 942.632 291.647C939.75 290.915 941.533 291.628 941.031 291.505C921.621 286.713 907.886 282.987 887.153 277.612C883.353 276.626 872.334 274.177 865.034 272.04C857.019 269.695 865.635 270.613 846.971 266.168C839.443 264.374 829.563 263.477 816.288 259.262C790.103 252.808 766.035 246.257 739.756 239.867C738.575 239.58 734.74 239.055 731.971 238.344C727.86 237.289 725.652 236.516 722.718 235.756C714.823 233.706 707.334 231.861 699.844 229.996C695.681 228.926 691.518 227.85 687.285 226.73C682.968 225.587 684.298 225.734 679.659 224.49L679.688 224.503C679.526 224.392 679.355 224.275 679.174 224.152C674.592 221.036 671.377 219.195 665.235 214.873C664.52 214.371 663.812 213.859 663.103 213.337C659.529 210.081 655.943 206.518 651.107 202.374C650.858 202.479 649.99 201.924 648.516 200.799L648.584 200.891C647.54 198.654 646.016 195.025 643.946 190.203C643.249 188.58 643.788 190.406 643.449 189.642C642.065 186.534 641.02 183.561 639.694 180.616C639.371 179.899 639.18 179.938 638.906 179.356C637.295 175.94 635.357 170.835 634.143 167.524L634.213 167.641C633.256 166.385 632.543 165.43 632.258 165.047C628.713 160.295 626.762 158.318 623.961 154.741C621.165 151.169 625.584 156.313 622.269 152.182C618.3 147.234 613.623 141.518 609.016 135.912L609.053 135.971C606.882 131.131 604.731 126.356 602.803 122.06C600.981 118.002 601.993 120.875 601.726 120.296C599.328 115.062 597.033 109.736 595.025 105.394C593.365 103.064 591.872 101.062 590.625 99.6045C588.059 93.6182 587.349 95.1254 580.05 84.1846C579.475 83.3224 579.233 81.8853 581.581 85.0962C583.929 88.3071 587.215 93.3664 590.486 97.8124C591.13 98.6889 594.534 102.86 596.01 104.705L596.121 104.901C596.345 105.321 596.509 105.634 596.584 105.788C600.117 112.97 599.733 114.386 599.86 114.793C601.326 119.396 605.65 127.48 606.677 129.658C607.664 131.75 608.607 133.781 609.518 135.762L609.409 135.587C614.681 141.881 619.323 147.609 624.039 153.158C627.942 157.753 628.787 157.82 631.782 161.486C633.235 163.264 634.537 164.885 635.731 166.391L635.962 166.778C640.038 177.254 641.771 182.871 647.159 194.346C648.27 196.715 648.074 194.99 650.102 200.268L649.574 199.543C650.492 200.352 651.654 201.403 653.144 202.779C653.67 203.265 659.831 209.079 663.764 211.994C663.887 212.085 663.986 212.144 664.076 212.188L663.947 212.09C664.229 212.195 664.408 212.18 664.918 212.511C669.469 215.465 672.377 217.621 677.312 220.873C678.383 221.579 679.503 222.315 680.655 223.075L680.097 222.822C684.924 224.024 690.259 225.365 695.353 226.755C696.928 227.185 698.668 227.712 700.307 228.226L700.295 228.222C702.747 228.971 704.975 229.694 706.091 230.032C711.354 231.634 717.167 232.682 720.39 233.821C723.641 234.968 717.02 233.77 725.695 236.184C726.142 235.777 727.012 235.465 727.657 235.105C746.772 239.987 765.545 244.931 784.734 249.79C787.113 250.391 784.747 249.51 787.3 250.148C798.067 252.843 807.415 255.421 818.589 258.184C827.239 260.322 836.779 262.453 845.826 264.68C851.198 266.642 864.645 269.861 874.365 272.389C877.77 273.274 877.504 273.365 879.917 274.031C889.018 276.538 884.857 274.953 887.385 275.513C898.228 277.919 898.865 279.272 911.557 282.471C912.229 282.641 920.595 284.135 921.736 284.385C928.987 285.972 922.873 284.896 927.361 286.084C935.555 288.255 941.227 289.849 950.91 292.127C953.733 292.79 960.569 294.133 965.954 295.809C966.662 296.03 966.215 296.126 966.79 296.284C977.201 299.138 977.634 298.588 983.664 299.899C989.696 301.211 998.821 303.987 1000.67 304.588C1005.5 306.158 996.867 303.766 996.593 303.73C993.371 303.307 1000.12 304.956 1005.26 306.296C1005.85 307.093 1013.05 308.887 1010.59 307.684C1010.3 307.549 1006.29 306.587 1005.26 306.296C1009.93 306.849 1017.85 308.785 1026.45 311.564C1030.47 312.865 1026.53 312.186 1038.98 315.235C1044.63 316.619 1042.55 315.646 1047.56 316.798C1058.99 319.429 1073.66 323.576 1085.39 326.495C1089.65 327.555 1085.56 326.272 1088.47 326.988C1096.2 328.888 1102.96 330.79 1110.73 332.673C1111.43 332.843 1109.78 332.167 1112.19 332.777C1130.46 337.395 1146.32 341.593 1165.38 346.448C1174.59 348.793 1191.09 352.851 1200.63 355.305C1217.16 359.557 1237.41 365.082 1251.56 368.592C1260.79 370.882 1258.83 370.128 1262.82 370.969C1270.52 372.591 1283.86 376.589 1285.66 377.139C1285.71 377.156 1277.77 375.195 1281.97 376.394C1284.36 377.277 1285.57 377.117 1285.66 377.139C1286.84 377.499 1302.66 381.583 1305.82 382.338C1307.53 382.747 1306.64 382.277 1307.53 382.495C1328.76 387.68 1349.99 393.021 1371.45 398.592C1371.83 398.693 1371.19 398.802 1372.08 399.036C1384.49 402.313 1392.53 404.028 1402.83 406.453C1413.14 408.878 1421.25 411.009 1427.21 412.989C1434.97 414.903 1446.02 417.92 1452.38 419.662C1458.74 421.405 1459.75 421.137 1460.32 421.27C1477.93 425.418 1487.99 428.279 1506.17 432.951C1514.81 435.172 1531.98 439.465 1541.36 441.792C1548.77 443.631 1553.2 444.881 1560.04 446.542C1560.96 446.767 1560.09 446.31 1560.37 446.373C1568.05 448.045 1564.25 447.653 1565.8 448.149C1571.41 449.947 1574.88 451.029 1584.66 453.344C1586.92 453.878 1593.67 454.769 1597.77 455.766C1603.12 457.063 1601.03 456.83 1606.63 458.181C1607.11 458.297 1607.05 458.101 1610.49 458.984C1626.46 463.082 1643.86 467.614 1660.47 471.822C1662.74 472.397 1659.9 471.386 1663.18 472.212C1666.91 473.153 1670.73 474.118 1674.58 475.096L1672.59 475.364C1683.39 469.22 1694.56 462.912 1704.79 457.212C1704.81 457.202 1704.83 457.192 1704.84 457.182L1704.3 457.599C1706.95 454.994 1705.42 456.798 1706.04 456.257C1709.87 452.917 1714.59 447.463 1715.42 446.617C1716.65 445.36 1717.87 444.124 1719.07 442.905L1719.18 442.797C1721.68 440.568 1724.12 438.402 1726.52 436.281L1725.97 436.968C1728.48 432.33 1730.93 427.844 1733.35 423.409L1733.22 425.501C1730.79 419.192 1728.4 412.968 1725.94 406.59L1725.34 405.027L1726.58 403.92C1731.91 399.21 1737.36 394.366 1743.14 389.167L1743.17 389.135C1744.65 387.865 1746.14 386.573 1747.65 385.256C1748.45 384.561 1752.72 380.58 1756.76 377.093L1757.83 376.533C1760.33 375.851 1762.73 375.252 1764.47 374.943C1764.83 374.878 1770.11 373.957 1774.58 372.413C1774.86 372.317 1771.58 372.941 1777.19 371.458C1779.71 370.793 1782.91 369.904 1786.37 368.964L1787.19 368.744L1787.98 369.044C1792.1 370.594 1796.59 372.314 1800.64 374.012C1802.07 374.607 1804.63 375.793 1808.05 377.153L1809.16 377.578L1809.4 378.741C1809.82 381.053 1810.37 383.696 1811.1 386.546C1811.18 386.871 1812.68 392.219 1813.69 396.908L1813.89 397.92L1813.39 398.811C1812.33 400.766 1811.29 402.546 1810.48 403.6C1810.07 404.14 1809.86 403.216 1805.76 411.222C1804.97 412.752 1806.62 410.099 1804.49 414.092C1802.04 418.673 1798.83 424.275 1795.73 429.981L1796.06 428.727C1796.09 430.904 1796.13 433.086 1796.2 435.226C1796.25 436.712 1796.68 443.039 1796.35 448.114C1796.3 448.909 1796.09 447.399 1796.07 450.079C1795.99 458.146 1796.03 466.455 1796.02 474.748L1795.88 475.565C1794.33 480.108 1792.74 484.662 1791.12 489.132C1789.56 493.449 1790.01 491.122 1788.33 495.604C1787.52 497.765 1786.33 500.983 1785.1 504.282C1784.48 505.93 1783.86 507.583 1783.27 509.144C1782.96 509.942 1782.68 510.66 1782.38 511.402C1782.32 511.559 1782.23 511.774 1782.16 511.942C1782.09 512.108 1782.01 512.295 1781.93 512.476C1781.89 512.566 1781.86 512.644 1781.82 512.733C1781.77 512.84 1781.72 512.939 1781.67 513.034C1781.65 513.082 1781.62 513.125 1781.6 513.176C1781.56 513.247 1781.52 513.317 1781.47 513.391C1781.42 513.465 1781.37 513.542 1781.3 513.634C1781.24 513.712 1781.14 513.84 1780.95 513.996C1780.75 514.137 1780.43 514.422 1779.69 514.445C1780.21 514.43 1780.37 514.312 1780.49 514.264C1780.61 514.209 1780.65 514.178 1780.66 514.173C1780.69 514.153 1780.69 514.151 1780.68 514.16C1780.65 514.186 1780.63 514.215 1780.58 514.263C1777.45 517.73 1781.41 514.251 1776.51 519.775C1771.17 525.941 1765.89 532.223 1760.65 538.467L1760.12 538.952C1747.53 547.805 1734.93 556.58 1722.32 565.379L1721.95 565.596C1717.04 567.934 1712.13 570.274 1707.21 572.622L1708.65 570.331C1708.64 573.768 1708.63 577.208 1708.63 580.65C1708.62 584.822 1708.77 582.395 1708.81 586.262L1708.48 584.975C1708.78 585.503 1709.14 586.167 1709.6 587.011C1711.5 590.509 1713.61 594.392 1715.86 598.533L1716.19 599.832C1716.2 606.289 1716.22 613.297 1716.22 620.483L1716.02 621.517C1709.66 637.282 1702.9 653.954 1697.52 666.905L1696.64 669.064L1694.4 668.467C1690.34 667.355 1686.63 666.325 1683.4 665.407C1665.87 660.43 1688.1 666.046 1674.68 662.357C1668.2 660.578 1661.01 659.331 1659.43 658.936C1644.06 655.082 1633.49 651.996 1619.68 648.434C1616.83 647.699 1619.56 648.685 1617.13 648.056C1608.84 645.911 1600.17 643.501 1592.26 641.43C1588.71 640.502 1589.31 640.864 1586.05 639.986C1578.25 637.888 1571.36 635.982 1563.79 633.791C1563.1 633.591 1567.84 634.593 1562.07 633.056C1552.72 630.569 1541.15 627.325 1530.34 624.66C1527.13 623.87 1526.89 624.27 1520.11 622.156C1518.69 621.713 1520.66 621.679 1512.55 620.014C1511.18 619.733 1497.59 616.788 1491.1 614.655C1489.39 614.092 1485.06 612.493 1481.21 611.545C1480.68 611.418 1482.71 612.202 1479.52 611.383C1468.28 608.494 1456.54 605.362 1445 602.389C1441.92 601.596 1446.43 603.048 1441.84 601.857C1429.22 598.584 1413.49 594.361 1401.18 591.026C1396.64 589.795 1399.84 590.427 1399.51 590.318C1394.29 588.559 1391.01 588.203 1389.24 587.764C1378.22 585.028 1369.92 582.593 1359.78 579.977C1356.98 579.254 1358.9 580.005 1358.34 579.878C1352.52 578.551 1356.93 579.279 1353.29 578.269C1343.1 575.438 1331.69 572.443 1321.35 569.738C1317.54 568.745 1321.74 570.137 1318.33 569.243C1298.15 563.954 1277.18 558.384 1257.53 553.033C1253.83 552.026 1256.22 552.439 1255.46 552.189C1250.22 550.457 1242.3 548.835 1240.49 548.403C1232.27 546.436 1229.15 545.418 1221.93 543.545C1186.66 534.399 1143.19 522.78 1109.96 513.916C1066.66 502.365 1033.08 493.283 991.751 482.409C989.124 481.717 991.701 482.687 989.436 482.094C960.19 474.432 931.444 466.719 902.137 459.054C899.732 458.424 903.128 459.596 899.266 458.594C891.344 456.541 881.325 453.878 873.347 451.681C869.456 450.61 874.747 451.774 870.829 450.701C861.706 448.201 851.908 445.591 842.503 443.148C838.501 442.109 844.463 443.965 839.266 442.595C803.866 433.263 769.094 424.118 733.417 414.323C731.364 413.759 729.617 412.893 726.008 411.875L725.412 411.612C724.815 411.216 724.156 410.793 723.419 410.34C722.994 410.249 722.916 410.412 722.679 410.453C715.818 406.069 708.972 401.685 702.135 397.302C692.312 391.004 682.508 384.706 672.711 378.407L672.296 378.076C666.477 372.366 660.661 366.655 654.844 360.941L654.361 360.29C651.611 354.978 648.861 349.663 646.11 344.346L645.963 344.007C643.524 336.928 641.084 329.845 638.639 322.754L639.477 323.918C630.2 316.755 620.905 309.582 611.578 302.394C609.793 301.019 612.702 303.625 609.245 300.963C589.24 285.559 569.762 270.667 549.473 254.684C548.469 253.893 548.303 253.595 547.641 252.932L547.052 252.477L546.846 251.77C546.702 250.839 546.37 249.313 545.27 245.689C544.951 244.64 542.69 237.077 541.38 232.874L542.132 233.991C541.378 233.416 540.751 232.943 540.33 232.636C540.006 232.401 541.485 233.876 538.606 231.608C526.725 222.247 514.469 212.532 502.422 202.922L501.857 202.29C498.552 196.939 495.274 191.616 492.049 186.365C490.27 183.467 492.365 186.353 491.161 184.378L491.645 184.916C491.629 184.903 491.612 184.889 491.595 184.876C483.297 178.307 474.477 171.488 465.924 164.814L465.812 164.721C460.673 160.08 455.639 155.507 450.906 151.119C442.774 143.578 446.118 146 442.032 141.733C441.454 141.129 436.36 136.524 436.265 136.099C436.013 135.018 438.948 136.729 438.387 135.313C438.27 135.012 431.335 128.971 435.615 132.355C435.913 132.593 440.943 136.97 442.243 137.981C443.147 138.685 441.788 137.115 443.592 138.599C445.395 140.082 447.155 141.958 450.11 144.455C453.065 146.95 451.998 145.596 457.755 150.739ZM1481.01 427.503C1486.86 429.246 1487.96 428.598 1481.51 427.178C1481.2 427.111 1480.71 427.414 1481.01 427.503ZM765.27 245.559C772.906 247.91 778.341 248.693 772.961 247.008C767.582 245.325 762.944 244.844 765.27 245.559ZM685.041 225.326C693.983 227.995 695.726 227.137 685.999 224.851C685.433 224.717 684.519 225.17 685.041 225.326ZM462.41 159.938C462.355 159.873 458.697 156.559 458.602 156.489C456.459 154.941 463.774 161.566 462.41 159.938ZM634.121 166.279C634.306 166.533 634.535 166.833 634.793 167.163L634.838 167.239C636.075 170.481 638.642 176.265 637.593 173.206C637.098 171.762 635.939 168.968 635.116 167.125L635.025 166.972C633.814 165.59 633.101 164.88 634.121 166.279ZM1739.82 395.179C1739.9 395.125 1742.55 392.78 1742.45 392.771C1742.11 392.749 1738.48 396.076 1739.82 395.179ZM552.015 55.0875C567.046 69.2023 575.461 78.507 559.138 63.0875C556.183 60.2952 565.77 68.8269 562.053 65.2236C555.253 58.6309 550.209 54.8191 543.39 47.9617C542.156 46.7198 551.16 54.2806 552.043 55.1114C552.034 55.1034 552.025 55.0954 552.015 55.0875ZM1484.15 429.414C1484.27 429.456 1489.01 430.675 1489.13 430.692C1491.77 431.07 1482.21 428.615 1484.15 429.414ZM1783.08 503.092C1783.09 503.152 1780.44 509.775 1779.69 512.045C1779.33 512.092 1779.32 512.194 1779.25 512.226C1779.19 512.271 1779.1 512.342 1779.07 512.374C1778.98 512.45 1778.85 512.57 1778.78 512.634C1778.62 512.789 1778.46 512.95 1778.35 513.066C1778.09 513.329 1777.97 513.469 1777.93 513.508C1776.67 515.179 1777.52 514.064 1779.69 512.385C1781.75 508.422 1784.48 500.048 1783.08 503.092ZM1164.26 348.71C1159.01 347.67 1152.81 346.126 1148.77 344.727C1153.91 346.055 1159.09 347.376 1164.26 348.71Z" fill="black"/>
</svg>
