<svg width="1921" height="131" viewBox="0 0 1921 131" fill="none" xmlns="http://www.w3.org/2000/svg">
<path d="M555.754 86.3851C563.173 85.267 572.837 83.1443 580.105 81.2478C582.376 80.656 581.238 81.0148 582.814 80.5976C585.88 79.7787 588.717 78.9271 591.73 78.0283C592.724 77.731 591.514 78.1922 592.557 77.8772C598.283 76.1368 603.632 74.2872 609.306 72.1581C613.043 70.7532 616.739 69.2673 620.387 67.687C644.617 58.0817 670.535 55.7683 696.583 53.1812C706.544 52.2915 718.668 51.5229 728.971 50.9096C730.172 50.8375 729.452 50.8045 729.68 50.7855C733.261 50.4929 732.083 50.7077 734.427 50.6018C743.742 50.1844 754.064 49.7486 763.042 49.3818C766.861 49.2262 763.039 49.222 766.862 49.1629C767.126 49.1588 766.171 49.2721 767.206 49.2426C769.609 49.173 774.06 49.0025 775.927 48.9448C779.429 48.8368 780.081 48.8143 783.39 48.7032C788.007 48.5489 793.395 48.4077 798.32 48.2084C798.999 48.1806 798.629 48.158 798.78 48.1243C798.858 48.1072 799.068 48.0871 799.624 48.0625C801.288 47.9856 805.751 47.8566 807.22 47.8395C808.711 47.8195 808.08 47.8993 808.344 47.9069C810.536 47.9698 815.638 47.6977 816.303 47.6838C828.331 47.4 838.632 47.4449 849.921 47.4451C858.489 47.4475 867.647 47.4679 875.799 47.5499C885.511 47.6486 893.738 47.8053 903.171 47.961C904.163 47.9777 903.003 47.863 904.213 47.8833C915.637 48.0771 926.996 48.3388 938.345 48.711C939.862 48.7607 941.355 48.8131 942.824 48.8681C944.095 48.9161 942.456 48.9452 943.723 48.9984C951.652 49.3107 964.051 50.0607 968.776 49.9897C974.105 50.3069 980.6 50.764 985.36 51.2185C988.44 51.5142 985.405 51.3543 989.218 51.6346C990.069 51.699 988.974 51.5253 990.242 51.628C995.589 52.0618 1001.47 52.6778 1006.79 53.2691C1007.86 53.3877 1007.57 53.2826 1007.87 53.3058C1010.46 53.5085 1014.69 54.2441 1015.64 54.3915C1020.57 55.1231 1024.59 55.8255 1028.77 56.3087C1030.59 56.4987 1032.46 56.6662 1034.45 56.8262C1035.98 56.9472 1034.17 56.7111 1035.66 56.8223C1043.33 57.3829 1051.3 57.7291 1058.83 58.2179C1060.51 58.326 1058.96 58.3164 1059.76 58.372C1063.28 58.621 1064.08 58.5181 1067.46 58.7805C1068.17 58.8364 1067.76 58.8779 1067.89 58.8945C1069.92 59.1553 1071.7 59.1197 1072.22 59.156C1076.84 59.4731 1080.27 59.8483 1084.09 60.2513C1085.78 60.4297 1087.51 60.6016 1089.46 60.7698C1090.23 60.8354 1088.51 60.5934 1090.66 60.7824C1104.97 62.036 1120.11 63.0853 1134.32 63.9507C1136.52 64.0847 1134.94 64.0624 1135.08 64.0784C1137.36 64.3329 1138.81 64.2408 1139.54 64.274C1145.22 64.5357 1150.52 64.9484 1154.39 64.9447C1168.75 65.7586 1183.1 66.3189 1197.32 67.99C1206.92 69.1605 1216.49 70.1827 1226.08 71.1147C1226.38 71.1438 1225.83 71.1789 1226.44 71.2366C1233.7 71.9191 1232.32 71.6626 1237.14 71.892C1238.36 71.9499 1242.03 72.4214 1242.35 72.4586C1243.54 72.5986 1242.3 72.6315 1242.69 72.671C1245.98 72.9903 1245.48 72.5441 1249.92 72.8512C1250.06 72.8614 1249.47 72.8971 1249.85 72.9302C1251.01 73.0333 1252.15 73.08 1253.29 73.181C1255.88 73.4113 1256.8 73.6725 1260.77 73.7999C1261.27 73.8147 1260.52 73.5381 1264.49 73.785C1266.08 73.8864 1273.09 74.2781 1275.05 74.3974C1277.02 74.5188 1275.66 74.5211 1275.8 74.532C1281.09 74.9154 1279.08 74.8484 1281.72 75.1356C1284.37 75.4209 1283.65 75.0323 1284.73 75.0493C1285.82 75.0668 1289.69 75.348 1290.64 75.4251C1291.6 75.5024 1290.4 75.4894 1291.25 75.5489C1296.86 75.9413 1293.73 75.501 1295.58 75.54C1299.95 75.6313 1303.34 76.0654 1307.33 76.3015C1308.41 76.3655 1307.53 76.2597 1308.49 76.3052C1312.31 76.4872 1314.6 76.6922 1318.94 76.8638C1319.65 76.8917 1323.16 76.9379 1325.42 77.1901C1325.74 77.2261 1324.83 77.2353 1326.45 77.3483C1327 77.3869 1327.65 77.4315 1328.37 77.4795C1330.73 77.6389 1333.83 77.8486 1335.84 77.9705C1337.76 78.0861 1335.56 77.8272 1337.99 78.0289C1339.08 78.1198 1337.06 78.041 1339.09 78.2066C1341.07 78.3664 1346.27 78.741 1348.19 78.8824C1350.14 79.0247 1349.08 78.865 1349.24 78.8712C1350.23 78.9126 1353.93 79.151 1354.29 79.1779C1370.98 80.428 1386.38 81.7611 1402.66 82.8737C1403.95 82.9617 1403.1 82.8157 1403.29 82.8282C1407.65 83.1008 1404.19 83.0843 1407.24 83.375C1406.81 83.1707 1408.63 83.3307 1411.69 83.523C1413.18 83.6159 1412.38 83.4933 1412.51 83.4958C1414.74 83.5463 1416.24 83.7796 1416.64 83.8334C1418.08 84.0303 1419.7 84.0207 1420.67 84.1519C1421.66 84.2827 1419.38 84.2298 1422.32 84.4229C1423.15 84.4154 1420.97 84.1097 1423.22 84.2307C1431.7 84.6978 1447.48 85.7686 1454.29 86.1394C1461.08 86.5179 1463.27 86.6124 1467.24 86.83C1474.38 87.2119 1471.79 86.9672 1476.22 87.1131C1480.68 87.2541 1478.5 87.4539 1479.14 87.5456C1479.77 87.6363 1480.45 87.6001 1481.23 87.6678C1482.01 87.7354 1480.32 87.708 1482.15 87.7977C1483.99 87.889 1489.01 87.9725 1489.66 87.9292C1490.91 87.8486 1489.2 87.653 1492.41 87.7841C1492.76 87.7983 1493.17 87.8163 1493.64 87.8385C1493.92 87.8516 1493.02 87.897 1494.08 87.943C1502.58 88.3054 1511.4 88.5708 1519.89 88.8317C1521.05 88.8676 1520.01 88.9287 1520.69 88.9505C1527.76 89.1725 1525.24 88.9662 1529.12 88.8882C1528.24 89.0846 1530.38 89.2666 1535.75 89.3681C1538.98 89.4277 1538.43 89.323 1540.51 89.2922C1541.14 89.283 1543.42 89.3843 1543.84 89.3462C1545.2 89.2217 1543.06 89.03 1548.59 89.1737C1548.83 89.1801 1548.06 89.2487 1548.9 89.2651C1554.33 89.3687 1554.97 89.2254 1560.84 89.2663C1565.44 89.2986 1573.6 89.4469 1578.84 89.4786C1578.73 89.7214 1583.69 89.6813 1585.68 89.5156C1589.09 89.5274 1592.74 89.5167 1596.03 89.5332C1597.16 89.5388 1596.42 89.6105 1596.56 89.6178C1598.74 89.7322 1600.23 89.5642 1600.96 89.5552C1608.91 89.4636 1615.38 89.5393 1622.96 89.3372C1623.23 89.3298 1623.67 89.1571 1625.69 89.2563C1625.82 89.2632 1623.33 89.3696 1626.88 89.333C1630.48 89.2962 1637.16 89.2906 1642.13 89.1221C1643.32 89.0825 1646.37 88.889 1648.79 88.9458C1649.12 88.9536 1648.77 89.0093 1649.24 89.0265C1650.76 89.0805 1651.57 88.893 1653.35 88.9982C1655.15 89.1022 1658.84 89.1275 1663.83 88.8925C1663.99 88.8852 1665.18 88.7181 1666.73 88.676C1669.26 88.6078 1672.82 88.5262 1675.41 88.4381C1675.53 88.4343 1675.62 88.4302 1675.71 88.4261C1676.53 88.385 1675.88 88.338 1676.08 88.3298C1684.51 87.9903 1690.52 87.8142 1699.53 87.3616C1701.14 87.2821 1705.94 86.8905 1709.12 86.7712C1712.65 86.6333 1709.07 87.306 1717.13 86.6287C1720.4 86.3454 1724.45 85.5102 1730.32 85.2503C1741.62 84.1751 1752.1 83.0319 1763.41 81.6951C1763.92 81.6365 1765.53 81.3223 1766.72 81.2096C1768.51 81.0402 1769.48 81.0241 1770.76 80.9258C1772.4 80.8017 1774.01 80.6935 1775.58 80.6124C1779.19 80.4261 1782.6 80.2166 1786.16 80.0097C1788.13 79.8934 1787.46 80.0063 1789.76 79.8642C1792.15 79.7129 1793.63 79.5217 1796.82 79.3317C1799.18 79.1893 1801.59 79.1921 1804.77 78.9357C1804.86 78.7382 1807.05 78.5607 1810.9 78.1252C1811.64 78.0407 1810.84 78.0564 1811.19 78.0131C1812.58 77.8375 1813.95 77.7466 1815.28 77.5613C1815.6 77.5162 1815.61 77.4511 1815.87 77.4106C1818.18 77.0601 1821.92 76.7265 1822.58 76.6591C1825.07 76.4187 1826.21 76.1652 1828.11 75.9121C1830.01 75.651 1827.19 76.1436 1829.39 75.8167C1833.97 75.1405 1839.81 73.9933 1844.38 72.8294C1846.19 72.366 1844.93 72.6001 1845.19 72.5321C1848.94 71.5475 1852.7 70.4397 1854.68 69.5776C1856.94 69.1888 1856.96 68.8886 1860 67.7098C1860.6 67.5391 1861.31 67.3527 1862.18 67.149C1862.61 67.0501 1863.19 67.1137 1861.58 67.555C1861.13 67.6778 1860.62 67.8114 1860.07 67.9568L1860.09 67.9508C1858.68 68.4736 1856.99 69.0686 1855.4 69.6517C1854.88 69.8542 1851.96 71.0229 1851.53 71.158C1848.33 72.2413 1847.77 72.0383 1847.6 72.0763C1845.6 72.4584 1841.91 73.5702 1840.91 73.8007C1836.39 74.8855 1832.49 75.5316 1828.65 76.1863C1826.14 76.607 1825.9 76.8421 1823.94 77.111C1817.35 77.9769 1814.99 77.9394 1808.81 78.799C1807.5 78.9731 1808.82 79.0871 1804.04 79.3347C1803.72 79.3532 1800.19 79.4893 1798.1 79.747C1797.84 79.7789 1797.86 79.8429 1797.52 79.8736C1795.27 80.0777 1793.71 80.1363 1791.24 80.3258C1788.74 80.5167 1785.72 80.7383 1782.92 80.8732C1781.19 80.958 1779 80.9522 1778.18 80.9643C1777.33 80.9766 1776.45 81.0197 1775.6 81.0674C1774.17 81.1476 1772.85 81.2689 1771.94 81.2706C1770.5 81.2784 1773.3 80.8947 1769.51 81.1357C1769.39 81.3152 1769.08 81.5151 1768.87 81.7037C1760.59 82.4552 1752.5 83.452 1744.17 84.3417C1743.15 84.4527 1744.2 84.4305 1743.11 84.5507C1738.46 85.0594 1734.38 85.3994 1729.54 85.8604C1725.81 86.2163 1721.71 86.65 1717.77 86.9687C1715.39 86.9578 1709.57 87.4302 1705.32 87.6658C1703.86 87.7478 1703.95 87.6905 1702.89 87.7354C1698.87 87.9031 1700.79 87.9628 1699.69 88.0509C1694.99 88.4169 1694.59 88.0544 1689.09 88.3162C1688.81 88.331 1685.21 88.6904 1684.74 88.721C1681.62 88.9301 1684.23 88.671 1682.26 88.7335C1679.85 88.8081 1678.02 88.8462 1675.72 88.9249C1674.62 88.9625 1673.42 89.0097 1672 89.0743C1670.79 89.1306 1667.83 89.3483 1665.48 89.3144C1665.17 89.3101 1665.34 89.2375 1665.09 89.2405C1660.49 89.2998 1660.45 89.5112 1657.81 89.6489C1655.24 89.7844 1651.19 89.726 1650.38 89.7001C1648.24 89.6355 1652.02 89.6186 1652.13 89.6049C1653.47 89.4472 1650.58 89.5337 1648.31 89.5684C1647.98 89.3667 1644.87 89.4398 1646 89.6038C1646.14 89.6217 1647.86 89.5683 1648.31 89.5684C1646.38 89.8129 1642.91 89.9063 1639.12 89.778C1637.32 89.7171 1639.02 89.588 1633.61 89.7081C1631.14 89.7611 1632.11 89.8911 1629.95 89.9598C1624.99 90.1164 1618.57 90.0498 1613.48 90.1092C1611.62 90.1309 1613.43 90.1961 1612.16 90.2134C1608.8 90.2591 1605.83 90.2168 1602.47 90.2609C1602.17 90.2649 1602.92 90.3444 1601.87 90.3496C1593.92 90.3888 1587 90.338 1578.7 90.3071C1574.69 90.2935 1567.53 90.2949 1563.37 90.2473C1556.18 90.1708 1547.32 89.9359 1541.17 89.8615C1537.17 89.8127 1538.04 89.9089 1536.32 89.9344C1533.01 89.9846 1527.14 89.6661 1526.35 89.6173C1526.33 89.6162 1529.78 89.6706 1527.94 89.589C1526.87 89.4779 1526.39 89.6177 1526.35 89.6173C1525.83 89.5885 1518.94 89.4082 1517.57 89.3864C1516.83 89.376 1517.24 89.4647 1516.85 89.4578C1508.73 89.31 1500.59 89.0836 1492.37 88.7645C1491.27 88.7216 1490.16 88.677 1489.06 88.6307C1488.9 88.6228 1489.15 88.545 1488.76 88.5276C1483.36 88.2807 1479.89 88.2401 1475.42 88.1047C1470.96 87.9679 1467.43 87.7754 1464.79 87.4941C1461.44 87.3472 1456.61 87.0278 1453.83 86.8358C1451.05 86.6439 1450.66 86.7911 1450.42 86.7811C1442.79 86.4604 1438.4 86.1009 1430.5 85.5903C1426.74 85.3478 1419.29 84.884 1415.23 84.6248C1412 84.4204 1410.1 84.2487 1407.11 84.0655C1406.71 84.0407 1407.11 84.1447 1406.99 84.139C1403.68 83.9971 1405.28 83.9241 1404.6 83.8431C1402.14 83.5483 1400.62 83.3762 1396.38 83.1256C1395.39 83.0673 1392.56 83.1275 1390.76 83.0106C1388.44 82.8594 1389.34 82.8302 1386.91 82.6728C1386.7 82.6592 1386.74 82.7211 1385.24 82.607C1378.31 82.0788 1370.75 81.4688 1363.56 80.9273C1362.56 80.8522 1363.83 81.0422 1362.4 80.9356C1355.71 80.4386 1348.43 79.8843 1341.92 79.3732C1340.31 79.2467 1341.32 79.2538 1340.97 79.2094C1338.88 78.9413 1335.8 78.9 1335.33 78.8719C1332.86 78.7204 1330.53 78.5745 1328.31 78.4375C1319.56 77.8997 1311.83 77.3944 1302.17 76.9527C1301.51 76.9224 1296.41 76.8442 1294.15 76.5717C1293.99 76.5533 1291.75 76.2783 1289.76 76.2863C1289.64 76.2869 1291.03 76.4412 1288.59 76.3076C1286.15 76.1741 1282.21 76.0263 1278.86 75.757C1277.79 75.6717 1275.29 75.3783 1272.11 75.3302C1271.91 75.3287 1266.99 75.3418 1265.25 75.0386C1264.97 74.9885 1265.28 74.7986 1261.49 74.6786C1260.77 74.6555 1262.07 74.7826 1260.17 74.6956C1257.25 74.5622 1253.38 74.2582 1249.79 74.1065C1249.16 74.0803 1246.5 74.0397 1244.36 73.775C1244.03 73.7337 1244.67 73.7098 1243.54 73.6197C1238.18 73.1892 1232.57 72.7866 1227.13 72.2568C1225.21 72.0686 1226.2 72.0438 1224.19 71.8309C1222.19 71.6194 1218.15 71.2043 1216.05 71.0441C1213.93 70.8838 1216.21 71.2979 1213.07 70.9915C1207.75 70.4677 1202.46 69.8743 1197.17 69.2233C1188.94 68.2202 1180.6 67.6222 1172.25 67.1121C1170.23 66.9916 1171.89 67.1517 1168.91 66.9834C1157.89 66.3683 1138.82 65.5084 1129.25 64.7839C1121.59 64.2143 1131.23 64.7096 1125.39 64.3118C1122.54 64.1169 1119.49 64.1302 1118.8 64.0914C1112.13 63.7197 1107.5 63.2906 1101.5 62.848C1100.26 62.7561 1101.47 62.9376 1100.41 62.8579C1096.79 62.5834 1093.03 62.226 1089.59 61.9234C1088.04 61.7865 1088.33 61.8785 1086.91 61.743C1085.91 61.6472 1084.94 61.5512 1083.98 61.4533C1081.7 61.221 1079.53 60.9999 1077.22 60.7612C1076.91 60.7302 1078.95 60.8199 1076.44 60.6062C1072.39 60.2633 1067.34 59.835 1062.66 59.6071C1061.26 59.54 1061.2 59.683 1058.22 59.4061C1057.6 59.3494 1058.4 59.2129 1054.92 59.1739C1054.33 59.165 1048.47 59.0628 1045.61 58.7689C1044.85 58.6915 1042.92 58.4365 1041.25 58.3568C1041.02 58.3464 1041.93 58.4828 1040.54 58.4046C1036.67 58.183 1032.65 57.8867 1028.65 57.4763C1027.58 57.3661 1026.55 57.2277 1025.51 57.0847C1024.17 56.8994 1026.14 57.2686 1024.16 56.9883C1018.71 56.1884 1011.95 55.2082 1006.62 54.565C1004.63 54.3227 1006.01 54.4153 1005.87 54.3909C1003.6 54.0041 1002.2 54.0193 1001.45 53.9478C996.681 53.4968 993.064 53.0815 988.673 52.728C987.443 52.63 988.308 52.7814 988.063 52.7677C985.565 52.6298 987.438 52.6427 985.86 52.4991C981.423 52.0982 976.474 51.7584 971.96 51.4921C970.329 51.3965 972.16 51.5986 970.69 51.5121C961.864 50.9984 952.817 50.5896 944.195 50.2503C942.581 50.187 943.6 50.151 943.266 50.1239C941.762 50.0004 939.75 49.9801 938.309 49.9796C937.595 49.98 937.03 49.9849 936.765 49.9823C933.176 49.9481 931.812 49.8506 928.678 49.7822C913.314 49.4458 894.352 49.077 879.851 48.9023C860.958 48.6787 846.29 48.5608 828.273 48.744C827.129 48.7567 828.283 48.8378 827.299 48.8502C817.738 48.9711 808.327 49.1246 798.831 49.4753C795.71 49.5918 792.518 49.7055 789.271 49.823C788.242 49.8601 789.732 49.8976 788.075 49.9602C784.632 50.0906 780.233 50.2333 776.771 50.3242C775.073 50.3691 777.35 50.2149 775.637 50.2619C771.623 50.3721 767.374 50.517 763.278 50.6862C761.523 50.759 764.177 50.7483 761.892 50.8364C746.478 51.4376 731.344 52.1583 715.778 53.1012C714.711 53.1664 713.763 53.0469 711.499 53.2458C711.331 53.3089 711.345 53.3679 711.274 53.4275C688.9 55.1417 666.695 57.1891 644.707 61.8766C643.784 62.0797 645.396 61.8219 643.615 62.2172C635.892 63.9647 628.242 66.0598 621.022 69.1426C618.585 70.1939 616.101 71.2082 613.574 72.1855C612.561 72.5727 613.02 72.2228 610.049 73.3894C609.528 73.6036 605.022 75.2896 603.86 75.7265C603.702 75.7877 604.558 75.5718 603.095 76.0883C594.591 79.0777 585.548 81.7602 576.8 83.8921C575.393 84.2332 576.867 83.7804 575.867 84.0209C568.752 85.7274 560.923 87.4159 553.968 88.2795C549.286 88.8164 550.994 88.448 548.509 88.5376C548.134 88.564 545.282 88.7151 545.092 88.6158C544.695 88.4158 546.121 88.1426 545.524 87.9356C545.364 87.9327 541.62 87.9158 543.833 87.8427C544.024 87.8597 546.747 87.7449 547.448 87.6379C547.915 87.5778 547.059 87.5532 548.022 87.4483C549.011 87.3372 550.072 87.3143 551.668 87.0869C553.269 86.8456 552.569 86.8587 555.754 86.3851ZM1441.34 85.9456C1438.78 85.7111 1438.38 85.9869 1441.17 86.0812C1441.3 86.0854 1441.48 85.9575 1441.34 85.9456ZM1752.5 83.1808C1749.14 83.4309 1746.89 83.8742 1749.23 83.7152C1751.63 83.549 1753.52 83.1042 1752.5 83.1808ZM1787.25 80.2068C1783.28 80.3408 1782.71 80.7977 1786.92 80.4615C1787.17 80.4418 1787.48 80.1988 1787.25 80.2068ZM559.943 86.9568C559.898 86.9635 557.868 87.3026 557.803 87.314C556.724 87.5918 560.834 86.9084 559.943 86.9568ZM1821.71 76.9939C1820.51 77.0992 1816.99 77.5882 1818.51 77.4769C1819.75 77.3915 1823.22 76.8682 1821.71 76.9939ZM1307.43 76.453C1307.39 76.4463 1305.9 76.3639 1305.93 76.3907C1306.02 76.4769 1308.1 76.5634 1307.43 76.453ZM1878.89 63.4926C1877.08 63.89 1875.41 64.239 1874.01 64.5226C1868.94 65.5478 1867.22 65.7252 1873.95 64.2496C1874.1 64.2152 1874.26 64.1813 1874.42 64.1454C1875.12 63.9952 1874.62 64.1243 1873.96 64.297C1873.01 64.5407 1871.73 64.8714 1872.98 64.6124C1873.32 64.5417 1873.66 64.4702 1873.98 64.4001C1877.35 63.667 1879.78 62.9508 1883.43 62.2525C1884.16 62.1142 1879.37 63.3872 1878.87 63.4964C1878.88 63.4951 1878.88 63.4938 1878.89 63.4926ZM1439.89 85.4989C1439.83 85.492 1437.78 85.3644 1437.73 85.3653C1436.61 85.393 1440.75 85.6501 1439.89 85.4989ZM1220.57 70.688C1220.45 70.6709 1215.69 70.1978 1215.53 70.1862C1213.03 70.0969 1222.67 71.059 1220.57 70.688ZM1578.93 89.4854C1581.16 89.3981 1583.89 89.3932 1585.67 89.5155C1583.44 89.506 1581.16 89.4993 1578.93 89.4854Z" fill="black"/>
<path d="M41.0234 25.3951C41.0234 24.1407 46.853 23.4945 56.7786 24.7489C74.0458 26.9311 82.9342 43.7547 91.7779 45.9783C96.1831 46.3014 104.994 46.9286 116.752 47.8789C121.952 48.202 125.596 48.202 129.35 48.202" stroke="url(#paint0_radial_1083955_193)" stroke-width="40" stroke-linecap="round"/>
<path d="M37.3203 55.6602C42.0688 57.4843 53.2072 60.2136 79.834 65.4459C101.528 69.7089 140.641 73.8464 169.889 76.4111C199.137 78.9758 217.541 78.9758 238.854 76.4865C260.167 73.9973 283.83 69.0187 304.696 66.2276C325.562 63.4366 342.915 62.984 360.005 63.4298C377.095 63.8755 393.396 65.2333 410.207 67.7432C444.085 72.8011 470.122 77.1517 484.981 76.2397C490.901 75.7802 493.53 75.3276 498.039 73.5104C502.549 71.6931 508.859 68.5249 520.141 65.2607" stroke="url(#paint1_radial_1083955_193)" stroke-width="40" stroke-linecap="round"/>
<path d="M431.52 106.429C431.52 107.044 445.1 105.208 469.608 100.408C499.701 94.5132 506.917 85.6424 512.906 81.8952C518.412 78.4502 524.613 75.072 530.055 71.9493C532.216 70.7095 534.393 69.7681 537.626 69.302C539.786 69.1436 543.003 69.1436 546.317 69.1436" stroke="url(#paint2_radial_1083955_193)" stroke-width="40" stroke-linecap="round"/>
<path d="M546.316 90.5824C553.475 87.5157 567.24 77.5511 571.566 73.2026C578.427 66.0485 584.914 62.3199 590.318 60.3018C592.863 59.5142 595.008 59.2066 597.217 58.8896" stroke="url(#paint3_radial_1083955_193)" stroke-width="40" stroke-linecap="round"/>
<defs>
<radialGradient id="paint0_radial_1083955_193" cx="0" cy="0" r="1" gradientUnits="userSpaceOnUse" gradientTransform="translate(85.1865 36.1366) scale(44.1631 12.0654)">
<stop stop-color="white"/>
<stop offset="1" stop-color="#A6FF00"/>
</radialGradient>
<radialGradient id="paint1_radial_1083955_193" cx="0" cy="0" r="1" gradientUnits="userSpaceOnUse" gradientTransform="translate(278.73 67.0022) scale(241.41 11.342)">
<stop stop-color="white"/>
<stop offset="1" stop-color="#A6FF00"/>
</radialGradient>
<radialGradient id="paint2_radial_1083955_193" cx="0" cy="0" r="1" gradientUnits="userSpaceOnUse" gradientTransform="translate(488.918 87.8437) scale(57.3985 18.7002)">
<stop stop-color="white"/>
<stop offset="1" stop-color="#A6FF00"/>
</radialGradient>
<radialGradient id="paint3_radial_1083955_193" cx="0" cy="0" r="1" gradientUnits="userSpaceOnUse" gradientTransform="translate(571.767 74.736) scale(25.4503 15.8464)">
<stop stop-color="white"/>
<stop offset="1" stop-color="#A6FF00"/>
</radialGradient>
</defs>
</svg>
